<svg width="1126" height="422" viewBox="0 0 1126 422" fill="none" xmlns="http://www.w3.org/2000/svg">
<mask id="path-1-inside-1_682_207" fill="white">
<path d="M0 18C0 8.05888 8.05888 0 18 0H1126V422H0V18Z"/>
</mask>
<path d="M0 18C0 8.05888 8.05888 0 18 0H1126V422H0V18Z" fill="white" fill-opacity="0.01"/>
<path d="M-2 18C-2 6.95431 6.95431 -2 18 -2H1126V2H18C9.16344 2 2 9.16344 2 18H-2ZM1126 422H0H1126ZM-2 422V18C-2 6.95431 6.95431 -2 18 -2V2C9.16344 2 2 9.16344 2 18V422H-2ZM1126 0V422V0Z" fill="white" fill-opacity="0.16" mask="url(#path-1-inside-1_682_207)"/>
<rect x="21" y="27" width="158" height="58" rx="13" fill="white" fill-opacity="0.21"/>
<path d="M47.214 65V48.594H41.78V46.8H54.832V48.594H49.398V65H47.214ZM57.3942 65V46.28H59.5782V54.106C60.0116 53.326 60.6182 52.7107 61.3982 52.26C62.1956 51.8093 63.0622 51.584 63.9982 51.584C65.0036 51.584 65.8789 51.792 66.6242 52.208C67.3696 52.6067 67.9416 53.222 68.3402 54.054C68.7389 54.886 68.9382 55.9347 68.9382 57.2V65H66.7802V57.434C66.7802 56.1167 66.5029 55.1287 65.9482 54.47C65.3936 53.794 64.5876 53.456 63.5302 53.456C62.7849 53.456 62.1089 53.638 61.5022 54.002C60.9129 54.366 60.4449 54.886 60.0982 55.562C59.7516 56.238 59.5782 57.07 59.5782 58.058V65H57.3942ZM72.5573 65V51.896H74.7413V65H72.5573ZM73.6493 49.114C73.216 49.114 72.852 48.9753 72.5573 48.698C72.28 48.4033 72.1413 48.0393 72.1413 47.606C72.1413 47.1727 72.28 46.826 72.5573 46.566C72.852 46.2887 73.216 46.15 73.6493 46.15C74.0653 46.15 74.4206 46.2887 74.7153 46.566C75.01 46.826 75.1573 47.1727 75.1573 47.606C75.1573 48.0393 75.01 48.4033 74.7153 48.698C74.4206 48.9753 74.0653 49.114 73.6493 49.114ZM83.5354 65.312C82.4434 65.312 81.4901 65.13 80.6754 64.766C79.8781 64.402 79.2367 63.8993 78.7514 63.258C78.2834 62.5993 77.9974 61.828 77.8934 60.944H80.1294C80.2161 61.3947 80.3981 61.8107 80.6754 62.192C80.9527 62.5733 81.3254 62.8853 81.7934 63.128C82.2787 63.3533 82.8681 63.466 83.5614 63.466C84.1681 63.466 84.6707 63.3793 85.0694 63.206C85.4681 63.0153 85.7627 62.764 85.9534 62.452C86.1614 62.14 86.2654 61.802 86.2654 61.438C86.2654 60.9007 86.1354 60.4933 85.8754 60.216C85.6327 59.9387 85.2687 59.722 84.7834 59.566C84.2981 59.3927 83.7087 59.2453 83.0154 59.124C82.4434 59.02 81.8801 58.8813 81.3254 58.708C80.7707 58.5347 80.2767 58.3093 79.8434 58.032C79.4101 57.7373 79.0634 57.382 78.8034 56.966C78.5607 56.55 78.4394 56.0387 78.4394 55.432C78.4394 54.6867 78.6301 54.028 79.0114 53.456C79.3927 52.8667 79.9387 52.4073 80.6494 52.078C81.3774 51.7487 82.2181 51.584 83.1714 51.584C84.5754 51.584 85.7107 51.922 86.5774 52.598C87.4441 53.274 87.9554 54.2533 88.1114 55.536H85.9534C85.8667 54.8773 85.5807 54.366 85.0954 54.002C84.6274 53.6207 83.9774 53.43 83.1454 53.43C82.3307 53.43 81.7067 53.5947 81.2734 53.924C80.8574 54.2533 80.6494 54.6867 80.6494 55.224C80.6494 55.5707 80.7621 55.8827 80.9874 56.16C81.2301 56.42 81.5767 56.6453 82.0274 56.836C82.4954 57.0267 83.0674 57.1827 83.7434 57.304C84.6101 57.46 85.3987 57.668 86.1094 57.928C86.8201 58.188 87.3921 58.578 87.8254 59.098C88.2761 59.6007 88.5014 60.32 88.5014 61.256C88.5014 62.0707 88.2934 62.7813 87.8774 63.388C87.4787 63.9947 86.9067 64.4713 86.1614 64.818C85.4161 65.1473 84.5407 65.312 83.5354 65.312ZM101.204 65L97.3564 51.896H99.5404L102.53 62.946H102.14L105.39 51.896H107.86L111.162 62.92L110.746 62.946L113.71 51.896H115.92L112.098 65H109.862L106.43 53.456H106.872L103.44 65H101.204ZM123.646 65.312C122.415 65.312 121.323 65.026 120.37 64.454C119.434 63.882 118.697 63.0847 118.16 62.062C117.623 61.022 117.354 59.8173 117.354 58.448C117.354 57.0613 117.614 55.8567 118.134 54.834C118.671 53.8113 119.417 53.014 120.37 52.442C121.341 51.87 122.45 51.584 123.698 51.584C124.981 51.584 126.064 51.87 126.948 52.442C127.849 53.014 128.534 53.768 129.002 54.704C129.487 55.6227 129.73 56.6367 129.73 57.746C129.73 57.9193 129.73 58.1013 129.73 58.292C129.73 58.4827 129.721 58.6993 129.704 58.942H118.992V57.252H127.598C127.546 56.056 127.147 55.12 126.402 54.444C125.674 53.768 124.755 53.43 123.646 53.43C122.901 53.43 122.207 53.6033 121.566 53.95C120.942 54.2793 120.439 54.7733 120.058 55.432C119.677 56.0733 119.486 56.8793 119.486 57.85V58.578C119.486 59.6527 119.677 60.554 120.058 61.282C120.457 62.01 120.968 62.556 121.592 62.92C122.233 63.284 122.918 63.466 123.646 63.466C124.565 63.466 125.319 63.2667 125.908 62.868C126.515 62.452 126.948 61.8973 127.208 61.204H129.366C129.158 61.984 128.794 62.686 128.274 63.31C127.754 63.934 127.104 64.428 126.324 64.792C125.561 65.1387 124.669 65.312 123.646 65.312ZM138.423 65.312C137.193 65.312 136.101 65.026 135.147 64.454C134.211 63.882 133.475 63.0847 132.937 62.062C132.4 61.022 132.131 59.8173 132.131 58.448C132.131 57.0613 132.391 55.8567 132.911 54.834C133.449 53.8113 134.194 53.014 135.147 52.442C136.118 51.87 137.227 51.584 138.475 51.584C139.758 51.584 140.841 51.87 141.725 52.442C142.627 53.014 143.311 53.768 143.779 54.704C144.265 55.6227 144.507 56.6367 144.507 57.746C144.507 57.9193 144.507 58.1013 144.507 58.292C144.507 58.4827 144.499 58.6993 144.481 58.942H133.769V57.252H142.375C142.323 56.056 141.925 55.12 141.179 54.444C140.451 53.768 139.533 53.43 138.423 53.43C137.678 53.43 136.985 53.6033 136.343 53.95C135.719 54.2793 135.217 54.7733 134.835 55.432C134.454 56.0733 134.263 56.8793 134.263 57.85V58.578C134.263 59.6527 134.454 60.554 134.835 61.282C135.234 62.01 135.745 62.556 136.369 62.92C137.011 63.284 137.695 63.466 138.423 63.466C139.342 63.466 140.096 63.2667 140.685 62.868C141.292 62.452 141.725 61.8973 141.985 61.204H144.143C143.935 61.984 143.571 62.686 143.051 63.31C142.531 63.934 141.881 64.428 141.101 64.792C140.339 65.1387 139.446 65.312 138.423 65.312ZM155.515 65L149.275 57.824L154.969 51.896H157.647L151.121 58.604L151.147 57.044L158.297 65H155.515ZM147.455 65V46.28H149.639V65H147.455Z" fill="white"/>
<path d="M215.95 65V46.8H218.134V63.258H226.61V65H215.95ZM233.795 65.312C232.738 65.312 231.854 65.13 231.143 64.766C230.432 64.3847 229.904 63.8907 229.557 63.284C229.21 62.66 229.037 61.984 229.037 61.256C229.037 60.372 229.262 59.6267 229.713 59.02C230.181 58.396 230.831 57.928 231.663 57.616C232.512 57.2867 233.509 57.122 234.653 57.122H238.111C238.111 56.3073 237.981 55.6313 237.721 55.094C237.478 54.5393 237.114 54.1233 236.629 53.846C236.161 53.5687 235.572 53.43 234.861 53.43C234.029 53.43 233.31 53.638 232.703 54.054C232.096 54.47 231.724 55.0853 231.585 55.9H229.349C229.453 54.964 229.765 54.184 230.285 53.56C230.822 52.9187 231.498 52.4333 232.313 52.104C233.128 51.7573 233.977 51.584 234.861 51.584C236.074 51.584 237.08 51.8093 237.877 52.26C238.692 52.6933 239.298 53.3087 239.697 54.106C240.096 54.886 240.295 55.8133 240.295 56.888V65H238.345L238.215 62.686C238.042 63.05 237.816 63.3967 237.539 63.726C237.279 64.038 236.967 64.3153 236.603 64.558C236.239 64.7833 235.823 64.9653 235.355 65.104C234.904 65.2427 234.384 65.312 233.795 65.312ZM234.133 63.466C234.74 63.466 235.286 63.3447 235.771 63.102C236.274 62.842 236.698 62.4953 237.045 62.062C237.392 61.6113 237.652 61.1173 237.825 60.58C238.016 60.0427 238.111 59.4793 238.111 58.89V58.812H234.835C233.986 58.812 233.301 58.916 232.781 59.124C232.261 59.3147 231.888 59.592 231.663 59.956C231.438 60.3027 231.325 60.7013 231.325 61.152C231.325 61.62 231.429 62.0273 231.637 62.374C231.862 62.7207 232.183 62.9893 232.599 63.18C233.032 63.3707 233.544 63.466 234.133 63.466ZM248.614 65.312C247.522 65.312 246.568 65.13 245.754 64.766C244.956 64.402 244.315 63.8993 243.83 63.258C243.362 62.5993 243.076 61.828 242.972 60.944H245.208C245.294 61.3947 245.476 61.8107 245.754 62.192C246.031 62.5733 246.404 62.8853 246.872 63.128C247.357 63.3533 247.946 63.466 248.64 63.466C249.246 63.466 249.749 63.3793 250.148 63.206C250.546 63.0153 250.841 62.764 251.032 62.452C251.24 62.14 251.344 61.802 251.344 61.438C251.344 60.9007 251.214 60.4933 250.954 60.216C250.711 59.9387 250.347 59.722 249.862 59.566C249.376 59.3927 248.787 59.2453 248.094 59.124C247.522 59.02 246.958 58.8813 246.404 58.708C245.849 58.5347 245.355 58.3093 244.922 58.032C244.488 57.7373 244.142 57.382 243.882 56.966C243.639 56.55 243.518 56.0387 243.518 55.432C243.518 54.6867 243.708 54.028 244.09 53.456C244.471 52.8667 245.017 52.4073 245.728 52.078C246.456 51.7487 247.296 51.584 248.25 51.584C249.654 51.584 250.789 51.922 251.656 52.598C252.522 53.274 253.034 54.2533 253.19 55.536H251.032C250.945 54.8773 250.659 54.366 250.174 54.002C249.706 53.6207 249.056 53.43 248.224 53.43C247.409 53.43 246.785 53.5947 246.352 53.924C245.936 54.2533 245.728 54.6867 245.728 55.224C245.728 55.5707 245.84 55.8827 246.066 56.16C246.308 56.42 246.655 56.6453 247.106 56.836C247.574 57.0267 248.146 57.1827 248.822 57.304C249.688 57.46 250.477 57.668 251.188 57.928C251.898 58.188 252.47 58.578 252.904 59.098C253.354 59.6007 253.58 60.32 253.58 61.256C253.58 62.0707 253.372 62.7813 252.956 63.388C252.557 63.9947 251.985 64.4713 251.24 64.818C250.494 65.1473 249.619 65.312 248.614 65.312ZM261.288 65C260.508 65 259.832 64.8787 259.26 64.636C258.688 64.3933 258.246 63.986 257.934 63.414C257.64 62.8247 257.492 62.036 257.492 61.048V53.742H255.204V51.896H257.492L257.778 48.724H259.676V51.896H263.472V53.742H259.676V61.048C259.676 61.8627 259.841 62.4173 260.17 62.712C260.5 62.9893 261.08 63.128 261.912 63.128H263.316V65H261.288ZM275.88 65L272.032 51.896H274.216L277.206 62.946H276.816L280.066 51.896H282.536L285.838 62.92L285.422 62.946L288.386 51.896H290.596L286.774 65H284.538L281.106 53.456H281.548L278.116 65H275.88ZM298.322 65.312C297.091 65.312 295.999 65.026 295.046 64.454C294.11 63.882 293.373 63.0847 292.836 62.062C292.299 61.022 292.03 59.8173 292.03 58.448C292.03 57.0613 292.29 55.8567 292.81 54.834C293.347 53.8113 294.093 53.014 295.046 52.442C296.017 51.87 297.126 51.584 298.374 51.584C299.657 51.584 300.74 51.87 301.624 52.442C302.525 53.014 303.21 53.768 303.678 54.704C304.163 55.6227 304.406 56.6367 304.406 57.746C304.406 57.9193 304.406 58.1013 304.406 58.292C304.406 58.4827 304.397 58.6993 304.38 58.942H293.668V57.252H302.274C302.222 56.056 301.823 55.12 301.078 54.444C300.35 53.768 299.431 53.43 298.322 53.43C297.577 53.43 296.883 53.6033 296.242 53.95C295.618 54.2793 295.115 54.7733 294.734 55.432C294.353 56.0733 294.162 56.8793 294.162 57.85V58.578C294.162 59.6527 294.353 60.554 294.734 61.282C295.133 62.01 295.644 62.556 296.268 62.92C296.909 63.284 297.594 63.466 298.322 63.466C299.241 63.466 299.995 63.2667 300.584 62.868C301.191 62.452 301.624 61.8973 301.884 61.204H304.042C303.834 61.984 303.47 62.686 302.95 63.31C302.43 63.934 301.78 64.428 301 64.792C300.237 65.1387 299.345 65.312 298.322 65.312ZM313.099 65.312C311.869 65.312 310.777 65.026 309.823 64.454C308.887 63.882 308.151 63.0847 307.613 62.062C307.076 61.022 306.807 59.8173 306.807 58.448C306.807 57.0613 307.067 55.8567 307.587 54.834C308.125 53.8113 308.87 53.014 309.823 52.442C310.794 51.87 311.903 51.584 313.151 51.584C314.434 51.584 315.517 51.87 316.401 52.442C317.303 53.014 317.987 53.768 318.455 54.704C318.941 55.6227 319.183 56.6367 319.183 57.746C319.183 57.9193 319.183 58.1013 319.183 58.292C319.183 58.4827 319.175 58.6993 319.157 58.942H308.445V57.252H317.051C316.999 56.056 316.601 55.12 315.855 54.444C315.127 53.768 314.209 53.43 313.099 53.43C312.354 53.43 311.661 53.6033 311.019 53.95C310.395 54.2793 309.893 54.7733 309.511 55.432C309.13 56.0733 308.939 56.8793 308.939 57.85V58.578C308.939 59.6527 309.13 60.554 309.511 61.282C309.91 62.01 310.421 62.556 311.045 62.92C311.687 63.284 312.371 63.466 313.099 63.466C314.018 63.466 314.772 63.2667 315.361 62.868C315.968 62.452 316.401 61.8973 316.661 61.204H318.819C318.611 61.984 318.247 62.686 317.727 63.31C317.207 63.934 316.557 64.428 315.777 64.792C315.015 65.1387 314.122 65.312 313.099 65.312ZM330.191 65L323.951 57.824L329.645 51.896H332.323L325.797 58.604L325.823 57.044L332.973 65H330.191ZM322.131 65V46.28H324.315V65H322.131Z" fill="white"/>
<path d="M395.214 65V48.594H389.78V46.8H402.832V48.594H397.398V65H395.214ZM405.394 65V46.28H407.578V54.106C408.012 53.326 408.618 52.7107 409.398 52.26C410.196 51.8093 411.062 51.584 411.998 51.584C413.004 51.584 413.879 51.792 414.624 52.208C415.37 52.6067 415.942 53.222 416.34 54.054C416.739 54.886 416.938 55.9347 416.938 57.2V65H414.78V57.434C414.78 56.1167 414.503 55.1287 413.948 54.47C413.394 53.794 412.588 53.456 411.53 53.456C410.785 53.456 410.109 53.638 409.502 54.002C408.913 54.366 408.445 54.886 408.098 55.562C407.752 56.238 407.578 57.07 407.578 58.058V65H405.394ZM420.557 65V51.896H422.741V65H420.557ZM421.649 49.114C421.216 49.114 420.852 48.9753 420.557 48.698C420.28 48.4033 420.141 48.0393 420.141 47.606C420.141 47.1727 420.28 46.826 420.557 46.566C420.852 46.2887 421.216 46.15 421.649 46.15C422.065 46.15 422.421 46.2887 422.715 46.566C423.01 46.826 423.157 47.1727 423.157 47.606C423.157 48.0393 423.01 48.4033 422.715 48.698C422.421 48.9753 422.065 49.114 421.649 49.114ZM431.535 65.312C430.443 65.312 429.49 65.13 428.675 64.766C427.878 64.402 427.237 63.8993 426.751 63.258C426.283 62.5993 425.997 61.828 425.893 60.944H428.129C428.216 61.3947 428.398 61.8107 428.675 62.192C428.953 62.5733 429.325 62.8853 429.793 63.128C430.279 63.3533 430.868 63.466 431.561 63.466C432.168 63.466 432.671 63.3793 433.069 63.206C433.468 63.0153 433.763 62.764 433.953 62.452C434.161 62.14 434.265 61.802 434.265 61.438C434.265 60.9007 434.135 60.4933 433.875 60.216C433.633 59.9387 433.269 59.722 432.783 59.566C432.298 59.3927 431.709 59.2453 431.015 59.124C430.443 59.02 429.88 58.8813 429.325 58.708C428.771 58.5347 428.277 58.3093 427.843 58.032C427.41 57.7373 427.063 57.382 426.803 56.966C426.561 56.55 426.439 56.0387 426.439 55.432C426.439 54.6867 426.63 54.028 427.011 53.456C427.393 52.8667 427.939 52.4073 428.649 52.078C429.377 51.7487 430.218 51.584 431.171 51.584C432.575 51.584 433.711 51.922 434.577 52.598C435.444 53.274 435.955 54.2533 436.111 55.536H433.953C433.867 54.8773 433.581 54.366 433.095 54.002C432.627 53.6207 431.977 53.43 431.145 53.43C430.331 53.43 429.707 53.5947 429.273 53.924C428.857 54.2533 428.649 54.6867 428.649 55.224C428.649 55.5707 428.762 55.8827 428.987 56.16C429.23 56.42 429.577 56.6453 430.027 56.836C430.495 57.0267 431.067 57.1827 431.743 57.304C432.61 57.46 433.399 57.668 434.109 57.928C434.82 58.188 435.392 58.578 435.825 59.098C436.276 59.6007 436.501 60.32 436.501 61.256C436.501 62.0707 436.293 62.7813 435.877 63.388C435.479 63.9947 434.907 64.4713 434.161 64.818C433.416 65.1473 432.541 65.312 431.535 65.312ZM446.552 65V51.896H448.528L448.658 53.768C449.074 53.092 449.629 52.5633 450.322 52.182C451.033 51.7833 451.804 51.584 452.636 51.584C453.312 51.584 453.919 51.6793 454.456 51.87C455.011 52.0433 455.496 52.3207 455.912 52.702C456.328 53.066 456.666 53.534 456.926 54.106C457.377 53.3087 457.992 52.6933 458.772 52.26C459.57 51.8093 460.419 51.584 461.32 51.584C462.326 51.584 463.201 51.792 463.946 52.208C464.709 52.6067 465.29 53.222 465.688 54.054C466.104 54.8687 466.312 55.9087 466.312 57.174V65H464.154V57.408C464.154 56.0907 463.886 55.1027 463.348 54.444C462.811 53.7853 462.057 53.456 461.086 53.456C460.41 53.456 459.804 53.638 459.266 54.002C458.729 54.3487 458.304 54.86 457.992 55.536C457.68 56.212 457.524 57.044 457.524 58.032V65H455.34V57.408C455.34 56.0907 455.072 55.1027 454.534 54.444C453.997 53.7853 453.234 53.456 452.246 53.456C451.588 53.456 450.99 53.638 450.452 54.002C449.932 54.3487 449.516 54.86 449.204 55.536C448.892 56.212 448.736 57.044 448.736 58.032V65H446.552ZM475.559 65.312C474.345 65.312 473.253 65.0347 472.283 64.48C471.312 63.908 470.549 63.1107 469.995 62.088C469.44 61.048 469.163 59.8433 469.163 58.474C469.163 57.07 469.44 55.8567 469.995 54.834C470.567 53.794 471.338 52.9967 472.309 52.442C473.297 51.87 474.397 51.584 475.611 51.584C476.859 51.584 477.959 51.87 478.913 52.442C479.883 52.9967 480.646 53.794 481.201 54.834C481.773 55.8567 482.059 57.0613 482.059 58.448C482.059 59.8347 481.773 61.048 481.201 62.088C480.629 63.1107 479.857 63.908 478.887 64.48C477.916 65.0347 476.807 65.312 475.559 65.312ZM475.585 63.44C476.33 63.44 477.023 63.258 477.665 62.894C478.306 62.5127 478.826 61.9493 479.225 61.204C479.623 60.4587 479.823 59.54 479.823 58.448C479.823 57.3387 479.623 56.42 479.225 55.692C478.843 54.9467 478.332 54.392 477.691 54.028C477.067 53.6467 476.373 53.456 475.611 53.456C474.883 53.456 474.189 53.6467 473.531 54.028C472.889 54.392 472.369 54.9467 471.971 55.692C471.589 56.42 471.399 57.3387 471.399 58.448C471.399 59.54 471.589 60.4587 471.971 61.204C472.369 61.9493 472.881 62.5127 473.505 62.894C474.146 63.258 474.839 63.44 475.585 63.44ZM485.121 65V51.896H487.097L487.201 54.184C487.617 53.3693 488.206 52.7367 488.969 52.286C489.749 51.818 490.633 51.584 491.621 51.584C492.643 51.584 493.527 51.792 494.273 52.208C495.018 52.6067 495.599 53.222 496.015 54.054C496.431 54.8687 496.639 55.9087 496.639 57.174V65H494.455V57.408C494.455 56.0907 494.16 55.1027 493.571 54.444C492.999 53.7853 492.184 53.456 491.127 53.456C490.399 53.456 489.749 53.638 489.177 54.002C488.605 54.3487 488.145 54.86 487.799 55.536C487.469 56.1947 487.305 57.018 487.305 58.006V65H485.121ZM505.198 65C504.418 65 503.742 64.8787 503.17 64.636C502.598 64.3933 502.156 63.986 501.844 63.414C501.55 62.8247 501.402 62.036 501.402 61.048V53.742H499.114V51.896H501.402L501.688 48.724H503.586V51.896H507.382V53.742H503.586V61.048C503.586 61.8627 503.751 62.4173 504.08 62.712C504.41 62.9893 504.99 63.128 505.822 63.128H507.226V65H505.198ZM510.232 65V46.28H512.416V54.106C512.849 53.326 513.456 52.7107 514.236 52.26C515.033 51.8093 515.9 51.584 516.836 51.584C517.841 51.584 518.717 51.792 519.462 52.208C520.207 52.6067 520.779 53.222 521.178 54.054C521.577 54.886 521.776 55.9347 521.776 57.2V65H519.618V57.434C519.618 56.1167 519.341 55.1287 518.786 54.47C518.231 53.794 517.425 53.456 516.368 53.456C515.623 53.456 514.947 53.638 514.34 54.002C513.751 54.366 513.283 54.886 512.936 55.562C512.589 56.238 512.416 57.07 512.416 58.058V65H510.232Z" fill="white"/>
<path d="M580.95 65V46.8H583.134V63.258H591.61V65H580.95ZM598.795 65.312C597.738 65.312 596.854 65.13 596.143 64.766C595.432 64.3847 594.904 63.8907 594.557 63.284C594.21 62.66 594.037 61.984 594.037 61.256C594.037 60.372 594.262 59.6267 594.713 59.02C595.181 58.396 595.831 57.928 596.663 57.616C597.512 57.2867 598.509 57.122 599.653 57.122H603.111C603.111 56.3073 602.981 55.6313 602.721 55.094C602.478 54.5393 602.114 54.1233 601.629 53.846C601.161 53.5687 600.572 53.43 599.861 53.43C599.029 53.43 598.31 53.638 597.703 54.054C597.096 54.47 596.724 55.0853 596.585 55.9H594.349C594.453 54.964 594.765 54.184 595.285 53.56C595.822 52.9187 596.498 52.4333 597.313 52.104C598.128 51.7573 598.977 51.584 599.861 51.584C601.074 51.584 602.08 51.8093 602.877 52.26C603.692 52.6933 604.298 53.3087 604.697 54.106C605.096 54.886 605.295 55.8133 605.295 56.888V65H603.345L603.215 62.686C603.042 63.05 602.816 63.3967 602.539 63.726C602.279 64.038 601.967 64.3153 601.603 64.558C601.239 64.7833 600.823 64.9653 600.355 65.104C599.904 65.2427 599.384 65.312 598.795 65.312ZM599.133 63.466C599.74 63.466 600.286 63.3447 600.771 63.102C601.274 62.842 601.698 62.4953 602.045 62.062C602.392 61.6113 602.652 61.1173 602.825 60.58C603.016 60.0427 603.111 59.4793 603.111 58.89V58.812H599.835C598.986 58.812 598.301 58.916 597.781 59.124C597.261 59.3147 596.888 59.592 596.663 59.956C596.438 60.3027 596.325 60.7013 596.325 61.152C596.325 61.62 596.429 62.0273 596.637 62.374C596.862 62.7207 597.183 62.9893 597.599 63.18C598.032 63.3707 598.544 63.466 599.133 63.466ZM613.614 65.312C612.522 65.312 611.568 65.13 610.754 64.766C609.956 64.402 609.315 63.8993 608.83 63.258C608.362 62.5993 608.076 61.828 607.972 60.944H610.208C610.294 61.3947 610.476 61.8107 610.754 62.192C611.031 62.5733 611.404 62.8853 611.872 63.128C612.357 63.3533 612.946 63.466 613.64 63.466C614.246 63.466 614.749 63.3793 615.148 63.206C615.546 63.0153 615.841 62.764 616.032 62.452C616.24 62.14 616.344 61.802 616.344 61.438C616.344 60.9007 616.214 60.4933 615.954 60.216C615.711 59.9387 615.347 59.722 614.862 59.566C614.376 59.3927 613.787 59.2453 613.094 59.124C612.522 59.02 611.958 58.8813 611.404 58.708C610.849 58.5347 610.355 58.3093 609.922 58.032C609.488 57.7373 609.142 57.382 608.882 56.966C608.639 56.55 608.518 56.0387 608.518 55.432C608.518 54.6867 608.708 54.028 609.09 53.456C609.471 52.8667 610.017 52.4073 610.728 52.078C611.456 51.7487 612.296 51.584 613.25 51.584C614.654 51.584 615.789 51.922 616.656 52.598C617.522 53.274 618.034 54.2533 618.19 55.536H616.032C615.945 54.8773 615.659 54.366 615.174 54.002C614.706 53.6207 614.056 53.43 613.224 53.43C612.409 53.43 611.785 53.5947 611.352 53.924C610.936 54.2533 610.728 54.6867 610.728 55.224C610.728 55.5707 610.84 55.8827 611.066 56.16C611.308 56.42 611.655 56.6453 612.106 56.836C612.574 57.0267 613.146 57.1827 613.822 57.304C614.688 57.46 615.477 57.668 616.188 57.928C616.898 58.188 617.47 58.578 617.904 59.098C618.354 59.6007 618.58 60.32 618.58 61.256C618.58 62.0707 618.372 62.7813 617.956 63.388C617.557 63.9947 616.985 64.4713 616.24 64.818C615.494 65.1473 614.619 65.312 613.614 65.312ZM626.288 65C625.508 65 624.832 64.8787 624.26 64.636C623.688 64.3933 623.246 63.986 622.934 63.414C622.64 62.8247 622.492 62.036 622.492 61.048V53.742H620.204V51.896H622.492L622.778 48.724H624.676V51.896H628.472V53.742H624.676V61.048C624.676 61.8627 624.841 62.4173 625.17 62.712C625.5 62.9893 626.08 63.128 626.912 63.128H628.316V65H626.288ZM640.88 65L637.032 51.896H639.216L642.206 62.946H641.816L645.066 51.896H647.536L650.838 62.92L650.422 62.946L653.386 51.896H655.596L651.774 65H649.538L646.106 53.456H646.548L643.116 65H640.88ZM663.322 65.312C662.091 65.312 660.999 65.026 660.046 64.454C659.11 63.882 658.373 63.0847 657.836 62.062C657.299 61.022 657.03 59.8173 657.03 58.448C657.03 57.0613 657.29 55.8567 657.81 54.834C658.347 53.8113 659.093 53.014 660.046 52.442C661.017 51.87 662.126 51.584 663.374 51.584C664.657 51.584 665.74 51.87 666.624 52.442C667.525 53.014 668.21 53.768 668.678 54.704C669.163 55.6227 669.406 56.6367 669.406 57.746C669.406 57.9193 669.406 58.1013 669.406 58.292C669.406 58.4827 669.397 58.6993 669.38 58.942H658.668V57.252H667.274C667.222 56.056 666.823 55.12 666.078 54.444C665.35 53.768 664.431 53.43 663.322 53.43C662.577 53.43 661.883 53.6033 661.242 53.95C660.618 54.2793 660.115 54.7733 659.734 55.432C659.353 56.0733 659.162 56.8793 659.162 57.85V58.578C659.162 59.6527 659.353 60.554 659.734 61.282C660.133 62.01 660.644 62.556 661.268 62.92C661.909 63.284 662.594 63.466 663.322 63.466C664.241 63.466 664.995 63.2667 665.584 62.868C666.191 62.452 666.624 61.8973 666.884 61.204H669.042C668.834 61.984 668.47 62.686 667.95 63.31C667.43 63.934 666.78 64.428 666 64.792C665.237 65.1387 664.345 65.312 663.322 65.312ZM678.099 65.312C676.869 65.312 675.777 65.026 674.823 64.454C673.887 63.882 673.151 63.0847 672.613 62.062C672.076 61.022 671.807 59.8173 671.807 58.448C671.807 57.0613 672.067 55.8567 672.587 54.834C673.125 53.8113 673.87 53.014 674.823 52.442C675.794 51.87 676.903 51.584 678.151 51.584C679.434 51.584 680.517 51.87 681.401 52.442C682.303 53.014 682.987 53.768 683.455 54.704C683.941 55.6227 684.183 56.6367 684.183 57.746C684.183 57.9193 684.183 58.1013 684.183 58.292C684.183 58.4827 684.175 58.6993 684.157 58.942H673.445V57.252H682.051C681.999 56.056 681.601 55.12 680.855 54.444C680.127 53.768 679.209 53.43 678.099 53.43C677.354 53.43 676.661 53.6033 676.019 53.95C675.395 54.2793 674.893 54.7733 674.511 55.432C674.13 56.0733 673.939 56.8793 673.939 57.85V58.578C673.939 59.6527 674.13 60.554 674.511 61.282C674.91 62.01 675.421 62.556 676.045 62.92C676.687 63.284 677.371 63.466 678.099 63.466C679.018 63.466 679.772 63.2667 680.361 62.868C680.968 62.452 681.401 61.8973 681.661 61.204H683.819C683.611 61.984 683.247 62.686 682.727 63.31C682.207 63.934 681.557 64.428 680.777 64.792C680.015 65.1387 679.122 65.312 678.099 65.312ZM695.191 65L688.951 57.824L694.645 51.896H697.323L690.797 58.604L690.823 57.044L697.973 65H695.191ZM687.131 65V46.28H689.315V65H687.131Z" fill="white"/>
<path d="M760.214 65V48.594H754.78V46.8H767.832V48.594H762.398V65H760.214ZM770.394 65V46.28H772.578V54.106C773.012 53.326 773.618 52.7107 774.398 52.26C775.196 51.8093 776.062 51.584 776.998 51.584C778.004 51.584 778.879 51.792 779.624 52.208C780.37 52.6067 780.942 53.222 781.34 54.054C781.739 54.886 781.938 55.9347 781.938 57.2V65H779.78V57.434C779.78 56.1167 779.503 55.1287 778.948 54.47C778.394 53.794 777.588 53.456 776.53 53.456C775.785 53.456 775.109 53.638 774.502 54.002C773.913 54.366 773.445 54.886 773.098 55.562C772.752 56.238 772.578 57.07 772.578 58.058V65H770.394ZM785.557 65V51.896H787.741V65H785.557ZM786.649 49.114C786.216 49.114 785.852 48.9753 785.557 48.698C785.28 48.4033 785.141 48.0393 785.141 47.606C785.141 47.1727 785.28 46.826 785.557 46.566C785.852 46.2887 786.216 46.15 786.649 46.15C787.065 46.15 787.421 46.2887 787.715 46.566C788.01 46.826 788.157 47.1727 788.157 47.606C788.157 48.0393 788.01 48.4033 787.715 48.698C787.421 48.9753 787.065 49.114 786.649 49.114ZM796.535 65.312C795.443 65.312 794.49 65.13 793.675 64.766C792.878 64.402 792.237 63.8993 791.751 63.258C791.283 62.5993 790.997 61.828 790.893 60.944H793.129C793.216 61.3947 793.398 61.8107 793.675 62.192C793.953 62.5733 794.325 62.8853 794.793 63.128C795.279 63.3533 795.868 63.466 796.561 63.466C797.168 63.466 797.671 63.3793 798.069 63.206C798.468 63.0153 798.763 62.764 798.953 62.452C799.161 62.14 799.265 61.802 799.265 61.438C799.265 60.9007 799.135 60.4933 798.875 60.216C798.633 59.9387 798.269 59.722 797.783 59.566C797.298 59.3927 796.709 59.2453 796.015 59.124C795.443 59.02 794.88 58.8813 794.325 58.708C793.771 58.5347 793.277 58.3093 792.843 58.032C792.41 57.7373 792.063 57.382 791.803 56.966C791.561 56.55 791.439 56.0387 791.439 55.432C791.439 54.6867 791.63 54.028 792.011 53.456C792.393 52.8667 792.939 52.4073 793.649 52.078C794.377 51.7487 795.218 51.584 796.171 51.584C797.575 51.584 798.711 51.922 799.577 52.598C800.444 53.274 800.955 54.2533 801.111 55.536H798.953C798.867 54.8773 798.581 54.366 798.095 54.002C797.627 53.6207 796.977 53.43 796.145 53.43C795.331 53.43 794.707 53.5947 794.273 53.924C793.857 54.2533 793.649 54.6867 793.649 55.224C793.649 55.5707 793.762 55.8827 793.987 56.16C794.23 56.42 794.577 56.6453 795.027 56.836C795.495 57.0267 796.067 57.1827 796.743 57.304C797.61 57.46 798.399 57.668 799.109 57.928C799.82 58.188 800.392 58.578 800.825 59.098C801.276 59.6007 801.501 60.32 801.501 61.256C801.501 62.0707 801.293 62.7813 800.877 63.388C800.479 63.9947 799.907 64.4713 799.161 64.818C798.416 65.1473 797.541 65.312 796.535 65.312ZM812.982 70.72L816.18 63.544H815.426L810.278 51.896H812.644L816.908 61.906L821.38 51.896H823.642L815.27 70.72H812.982ZM830.527 65.312C829.296 65.312 828.204 65.026 827.251 64.454C826.315 63.882 825.578 63.0847 825.041 62.062C824.504 61.022 824.235 59.8173 824.235 58.448C824.235 57.0613 824.495 55.8567 825.015 54.834C825.552 53.8113 826.298 53.014 827.251 52.442C828.222 51.87 829.331 51.584 830.579 51.584C831.862 51.584 832.945 51.87 833.829 52.442C834.73 53.014 835.415 53.768 835.883 54.704C836.368 55.6227 836.611 56.6367 836.611 57.746C836.611 57.9193 836.611 58.1013 836.611 58.292C836.611 58.4827 836.602 58.6993 836.585 58.942H825.873V57.252H834.479C834.427 56.056 834.028 55.12 833.283 54.444C832.555 53.768 831.636 53.43 830.527 53.43C829.782 53.43 829.088 53.6033 828.447 53.95C827.823 54.2793 827.32 54.7733 826.939 55.432C826.558 56.0733 826.367 56.8793 826.367 57.85V58.578C826.367 59.6527 826.558 60.554 826.939 61.282C827.338 62.01 827.849 62.556 828.473 62.92C829.114 63.284 829.799 63.466 830.527 63.466C831.446 63.466 832.2 63.2667 832.789 62.868C833.396 62.452 833.829 61.8973 834.089 61.204H836.247C836.039 61.984 835.675 62.686 835.155 63.31C834.635 63.934 833.985 64.428 833.205 64.792C832.442 65.1387 831.55 65.312 830.527 65.312ZM843.822 65.312C842.765 65.312 841.881 65.13 841.17 64.766C840.46 64.3847 839.931 63.8907 839.584 63.284C839.238 62.66 839.064 61.984 839.064 61.256C839.064 60.372 839.29 59.6267 839.74 59.02C840.208 58.396 840.858 57.928 841.69 57.616C842.54 57.2867 843.536 57.122 844.68 57.122H848.138C848.138 56.3073 848.008 55.6313 847.748 55.094C847.506 54.5393 847.142 54.1233 846.656 53.846C846.188 53.5687 845.599 53.43 844.888 53.43C844.056 53.43 843.337 53.638 842.73 54.054C842.124 54.47 841.751 55.0853 841.612 55.9H839.376C839.48 54.964 839.792 54.184 840.312 53.56C840.85 52.9187 841.526 52.4333 842.34 52.104C843.155 51.7573 844.004 51.584 844.888 51.584C846.102 51.584 847.107 51.8093 847.904 52.26C848.719 52.6933 849.326 53.3087 849.724 54.106C850.123 54.886 850.322 55.8133 850.322 56.888V65H848.372L848.242 62.686C848.069 63.05 847.844 63.3967 847.566 63.726C847.306 64.038 846.994 64.3153 846.63 64.558C846.266 64.7833 845.85 64.9653 845.382 65.104C844.932 65.2427 844.412 65.312 843.822 65.312ZM844.16 63.466C844.767 63.466 845.313 63.3447 845.798 63.102C846.301 62.842 846.726 62.4953 847.072 62.062C847.419 61.6113 847.679 61.1173 847.852 60.58C848.043 60.0427 848.138 59.4793 848.138 58.89V58.812H844.862C844.013 58.812 843.328 58.916 842.808 59.124C842.288 59.3147 841.916 59.592 841.69 59.956C841.465 60.3027 841.352 60.7013 841.352 61.152C841.352 61.62 841.456 62.0273 841.664 62.374C841.89 62.7207 842.21 62.9893 842.626 63.18C843.06 63.3707 843.571 63.466 844.16 63.466ZM853.701 65V51.896H855.677L855.833 54.392C856.128 53.8027 856.5 53.3 856.951 52.884C857.419 52.468 857.974 52.1473 858.615 51.922C859.274 51.6967 860.019 51.584 860.851 51.584V53.872H860.045C859.49 53.872 858.962 53.95 858.459 54.106C857.956 54.2447 857.506 54.4787 857.107 54.808C856.726 55.1373 856.422 55.588 856.197 56.16C855.989 56.7147 855.885 57.408 855.885 58.24V65H853.701Z" fill="white"/>
<mask id="path-13-inside-2_682_207" fill="white">
<path d="M21 144C21 135.163 28.1634 128 37 128H543C551.837 128 559 135.163 559 144V422H21V144Z"/>
</mask>
<path d="M21 144C21 135.163 28.1634 128 37 128H543C551.837 128 559 135.163 559 144V422H21V144Z" fill="white" fill-opacity="0.02"/>
<path d="M19 144C19 134.059 27.0589 126 37 126H543C552.941 126 561 134.059 561 144H557C557 136.268 550.732 130 543 130H37C29.268 130 23 136.268 23 144H19ZM559 422H21H559ZM19 422V144C19 134.059 27.0589 126 37 126V130C29.268 130 23 136.268 23 144V422H19ZM543 126C552.941 126 561 134.059 561 144V422H557V144C557 136.268 550.732 130 543 130V126Z" fill="url(#paint0_linear_682_207)" mask="url(#path-13-inside-2_682_207)"/>
<path d="M64.04 186V173.88L61.64 174.48V173.28L64.6 172H65.74V186H64.04ZM74.0905 186.24C72.8638 186.24 71.8038 185.94 70.9105 185.34C70.0305 184.727 69.3571 183.88 68.8905 182.8C68.4238 181.707 68.1905 180.44 68.1905 179C68.1905 177.56 68.4238 176.3 68.8905 175.22C69.3571 174.127 70.0305 173.28 70.9105 172.68C71.8038 172.067 72.8638 171.76 74.0905 171.76C75.3171 171.76 76.3638 172.067 77.2305 172.68C78.1105 173.28 78.7838 174.127 79.2505 175.22C79.7171 176.3 79.9505 177.56 79.9505 179C79.9505 180.44 79.7171 181.707 79.2505 182.8C78.7838 183.88 78.1105 184.727 77.2305 185.34C76.3638 185.94 75.3171 186.24 74.0905 186.24ZM74.0705 184.76C74.8705 184.76 75.5838 184.533 76.2105 184.08C76.8371 183.613 77.3305 182.953 77.6905 182.1C78.0505 181.233 78.2305 180.2 78.2305 179C78.2305 177.8 78.0505 176.773 77.6905 175.92C77.3305 175.053 76.8371 174.393 76.2105 173.94C75.5838 173.487 74.8705 173.26 74.0705 173.26C73.2705 173.26 72.5505 173.487 71.9105 173.94C71.2838 174.393 70.7905 175.053 70.4305 175.92C70.0838 176.773 69.9105 177.8 69.9105 179C69.9105 180.2 70.0838 181.233 70.4305 182.1C70.7905 182.953 71.2838 183.613 71.9105 184.08C72.5505 184.533 73.2705 184.76 74.0705 184.76ZM87.7623 186.24C86.5357 186.24 85.4757 185.94 84.5823 185.34C83.7023 184.727 83.029 183.88 82.5623 182.8C82.0957 181.707 81.8623 180.44 81.8623 179C81.8623 177.56 82.0957 176.3 82.5623 175.22C83.029 174.127 83.7023 173.28 84.5823 172.68C85.4757 172.067 86.5357 171.76 87.7623 171.76C88.989 171.76 90.0357 172.067 90.9023 172.68C91.7823 173.28 92.4557 174.127 92.9223 175.22C93.389 176.3 93.6223 177.56 93.6223 179C93.6223 180.44 93.389 181.707 92.9223 182.8C92.4557 183.88 91.7823 184.727 90.9023 185.34C90.0357 185.94 88.989 186.24 87.7623 186.24ZM87.7423 184.76C88.5423 184.76 89.2557 184.533 89.8823 184.08C90.509 183.613 91.0023 182.953 91.3623 182.1C91.7223 181.233 91.9023 180.2 91.9023 179C91.9023 177.8 91.7223 176.773 91.3623 175.92C91.0023 175.053 90.509 174.393 89.8823 173.94C89.2557 173.487 88.5423 173.26 87.7423 173.26C86.9423 173.26 86.2223 173.487 85.5823 173.94C84.9557 174.393 84.4623 175.053 84.1023 175.92C83.7557 176.773 83.5823 177.8 83.5823 179C83.5823 180.2 83.7557 181.233 84.1023 182.1C84.4623 182.953 84.9557 183.613 85.5823 184.08C86.2223 184.533 86.9423 184.76 87.7423 184.76Z" fill="#737373"/>
<path d="M63.76 224L69.22 211.44H61.54V210H70.94V211.26L65.54 224H63.76ZM77.3177 224.24C76.3577 224.24 75.5243 224.067 74.8177 223.72C74.1243 223.373 73.571 222.9 73.1577 222.3C72.7577 221.7 72.5043 221.027 72.3977 220.28H74.0377C74.1977 221.027 74.5643 221.633 75.1377 222.1C75.711 222.567 76.4443 222.8 77.3377 222.8C78.0043 222.8 78.571 222.647 79.0377 222.34C79.5177 222.033 79.8843 221.613 80.1377 221.08C80.4043 220.547 80.5377 219.953 80.5377 219.3C80.5377 218.62 80.4043 218.02 80.1377 217.5C79.871 216.98 79.5043 216.58 79.0377 216.3C78.571 216.007 78.0243 215.86 77.3977 215.86C76.6377 215.86 75.991 216.027 75.4577 216.36C74.9243 216.693 74.5243 217.12 74.2577 217.64H72.6377L73.7977 210H81.1977V211.46H75.0977L74.3177 215.76C74.651 215.373 75.091 215.06 75.6377 214.82C76.1977 214.567 76.8443 214.44 77.5777 214.44C78.271 214.44 78.8977 214.56 79.4577 214.8C80.0177 215.04 80.4977 215.38 80.8977 215.82C81.2977 216.26 81.6043 216.773 81.8177 217.36C82.0443 217.947 82.1577 218.587 82.1577 219.28C82.1577 219.96 82.0443 220.6 81.8177 221.2C81.6043 221.787 81.291 222.313 80.8777 222.78C80.4643 223.233 79.9577 223.593 79.3577 223.86C78.7577 224.113 78.0777 224.24 77.3177 224.24Z" fill="#737373"/>
<path d="M67.22 262.24C66.26 262.24 65.4267 262.067 64.72 261.72C64.0267 261.373 63.4733 260.9 63.06 260.3C62.66 259.7 62.4067 259.027 62.3 258.28H63.94C64.1 259.027 64.4667 259.633 65.04 260.1C65.6133 260.567 66.3467 260.8 67.24 260.8C67.9067 260.8 68.4733 260.647 68.94 260.34C69.42 260.033 69.7867 259.613 70.04 259.08C70.3067 258.547 70.44 257.953 70.44 257.3C70.44 256.62 70.3067 256.02 70.04 255.5C69.7733 254.98 69.4067 254.58 68.94 254.3C68.4733 254.007 67.9267 253.86 67.3 253.86C66.54 253.86 65.8933 254.027 65.36 254.36C64.8267 254.693 64.4267 255.12 64.16 255.64H62.54L63.7 248H71.1V249.46H65L64.22 253.76C64.5533 253.373 64.9933 253.06 65.54 252.82C66.1 252.567 66.7467 252.44 67.48 252.44C68.1733 252.44 68.8 252.56 69.36 252.8C69.92 253.04 70.4 253.38 70.8 253.82C71.2 254.26 71.5067 254.773 71.72 255.36C71.9467 255.947 72.06 256.587 72.06 257.28C72.06 257.96 71.9467 258.6 71.72 259.2C71.5067 259.787 71.1933 260.313 70.78 260.78C70.3667 261.233 69.86 261.593 69.26 261.86C68.66 262.113 67.98 262.24 67.22 262.24ZM80.067 262.24C78.8404 262.24 77.7804 261.94 76.887 261.34C76.007 260.727 75.3337 259.88 74.867 258.8C74.4004 257.707 74.167 256.44 74.167 255C74.167 253.56 74.4004 252.3 74.867 251.22C75.3337 250.127 76.007 249.28 76.887 248.68C77.7804 248.067 78.8404 247.76 80.067 247.76C81.2937 247.76 82.3404 248.067 83.207 248.68C84.087 249.28 84.7604 250.127 85.227 251.22C85.6937 252.3 85.927 253.56 85.927 255C85.927 256.44 85.6937 257.707 85.227 258.8C84.7604 259.88 84.087 260.727 83.207 261.34C82.3404 261.94 81.2937 262.24 80.067 262.24ZM80.047 260.76C80.847 260.76 81.5604 260.533 82.187 260.08C82.8137 259.613 83.307 258.953 83.667 258.1C84.027 257.233 84.207 256.2 84.207 255C84.207 253.8 84.027 252.773 83.667 251.92C83.307 251.053 82.8137 250.393 82.187 249.94C81.5604 249.487 80.847 249.26 80.047 249.26C79.247 249.26 78.527 249.487 77.887 249.94C77.2604 250.393 76.767 251.053 76.407 251.92C76.0604 252.773 75.887 253.8 75.887 255C75.887 256.2 76.0604 257.233 76.407 258.1C76.767 258.953 77.2604 259.613 77.887 260.08C78.527 260.533 79.247 260.76 80.047 260.76Z" fill="#737373"/>
<path d="M62.28 300V298.82C63.2267 298.073 64.1267 297.32 64.98 296.56C65.8467 295.8 66.6133 295.047 67.28 294.3C67.9467 293.54 68.4667 292.8 68.84 292.08C69.2267 291.36 69.42 290.667 69.42 290C69.42 289.507 69.3333 289.053 69.16 288.64C68.9867 288.213 68.7067 287.867 68.32 287.6C67.9467 287.333 67.44 287.2 66.8 287.2C66.1733 287.2 65.6533 287.34 65.24 287.62C64.8267 287.887 64.5133 288.247 64.3 288.7C64.1 289.14 64 289.627 64 290.16H62.38C62.3933 289.24 62.5867 288.453 62.96 287.8C63.3467 287.133 63.8733 286.627 64.54 286.28C65.2067 285.933 65.9667 285.76 66.82 285.76C67.66 285.76 68.4 285.92 69.04 286.24C69.68 286.547 70.18 287.007 70.54 287.62C70.9133 288.233 71.1 289.007 71.1 289.94C71.1 290.593 70.96 291.247 70.68 291.9C70.4133 292.553 70.0533 293.193 69.6 293.82C69.1467 294.433 68.64 295.027 68.08 295.6C67.5333 296.173 66.9667 296.713 66.38 297.22C65.8067 297.727 65.2667 298.187 64.76 298.6H71.58V300H62.28ZM78.7434 300.24C77.7834 300.24 76.9501 300.067 76.2434 299.72C75.5501 299.373 74.9968 298.9 74.5834 298.3C74.1834 297.7 73.9301 297.027 73.8234 296.28H75.4634C75.6234 297.027 75.9901 297.633 76.5634 298.1C77.1368 298.567 77.8701 298.8 78.7634 298.8C79.4301 298.8 79.9968 298.647 80.4634 298.34C80.9434 298.033 81.3101 297.613 81.5634 297.08C81.8301 296.547 81.9634 295.953 81.9634 295.3C81.9634 294.62 81.8301 294.02 81.5634 293.5C81.2968 292.98 80.9301 292.58 80.4634 292.3C79.9968 292.007 79.4501 291.86 78.8234 291.86C78.0634 291.86 77.4168 292.027 76.8834 292.36C76.3501 292.693 75.9501 293.12 75.6834 293.64H74.0634L75.2234 286H82.6234V287.46H76.5234L75.7434 291.76C76.0768 291.373 76.5168 291.06 77.0634 290.82C77.6234 290.567 78.2701 290.44 79.0034 290.44C79.6968 290.44 80.3234 290.56 80.8834 290.8C81.4434 291.04 81.9234 291.38 82.3234 291.82C82.7234 292.26 83.0301 292.773 83.2434 293.36C83.4701 293.947 83.5834 294.587 83.5834 295.28C83.5834 295.96 83.4701 296.6 83.2434 297.2C83.0301 297.787 82.7168 298.313 82.3034 298.78C81.8901 299.233 81.3834 299.593 80.7834 299.86C80.1834 300.113 79.5034 300.24 78.7434 300.24Z" fill="#737373"/>
<path d="M67.86 338.24C66.6333 338.24 65.5733 337.94 64.68 337.34C63.8 336.727 63.1267 335.88 62.66 334.8C62.1933 333.707 61.96 332.44 61.96 331C61.96 329.56 62.1933 328.3 62.66 327.22C63.1267 326.127 63.8 325.28 64.68 324.68C65.5733 324.067 66.6333 323.76 67.86 323.76C69.0867 323.76 70.1333 324.067 71 324.68C71.88 325.28 72.5533 326.127 73.02 327.22C73.4867 328.3 73.72 329.56 73.72 331C73.72 332.44 73.4867 333.707 73.02 334.8C72.5533 335.88 71.88 336.727 71 337.34C70.1333 337.94 69.0867 338.24 67.86 338.24ZM67.84 336.76C68.64 336.76 69.3533 336.533 69.98 336.08C70.6067 335.613 71.1 334.953 71.46 334.1C71.82 333.233 72 332.2 72 331C72 329.8 71.82 328.773 71.46 327.92C71.1 327.053 70.6067 326.393 69.98 325.94C69.3533 325.487 68.64 325.26 67.84 325.26C67.04 325.26 66.32 325.487 65.68 325.94C65.0533 326.393 64.56 327.053 64.2 327.92C63.8533 328.773 63.68 329.8 63.68 331C63.68 332.2 63.8533 333.233 64.2 334.1C64.56 334.953 65.0533 335.613 65.68 336.08C66.32 336.533 67.04 336.76 67.84 336.76Z" fill="#737373"/>
<path d="M63.9 398L72.04 384H73.72L65.58 398H63.9ZM72.72 398.24C72.12 398.24 71.58 398.107 71.1 397.84C70.62 397.56 70.2333 397.167 69.94 396.66C69.66 396.153 69.52 395.56 69.52 394.88C69.52 394.187 69.66 393.593 69.94 393.1C70.2333 392.593 70.62 392.207 71.1 391.94C71.58 391.66 72.12 391.52 72.72 391.52C73.3333 391.52 73.8733 391.66 74.34 391.94C74.82 392.207 75.2 392.593 75.48 393.1C75.76 393.593 75.9 394.187 75.9 394.88C75.9 395.56 75.76 396.153 75.48 396.66C75.2 397.167 74.82 397.56 74.34 397.84C73.86 398.107 73.32 398.24 72.72 398.24ZM72.7 396.94C73.02 396.94 73.3133 396.867 73.58 396.72C73.8467 396.56 74.06 396.327 74.22 396.02C74.3933 395.713 74.48 395.333 74.48 394.88C74.48 394.413 74.4 394.027 74.24 393.72C74.08 393.413 73.8667 393.187 73.6 393.04C73.3333 392.88 73.04 392.8 72.72 392.8C72.4133 392.8 72.12 392.88 71.84 393.04C71.5733 393.187 71.3533 393.413 71.18 393.72C71.02 394.027 70.94 394.413 70.94 394.88C70.94 395.333 71.02 395.713 71.18 396.02C71.3533 396.327 71.5733 396.56 71.84 396.72C72.1067 396.867 72.3933 396.94 72.7 396.94ZM65.02 390.5C64.42 390.5 63.88 390.367 63.4 390.1C62.92 389.82 62.5333 389.427 62.24 388.92C61.96 388.413 61.82 387.82 61.82 387.14C61.82 386.447 61.96 385.853 62.24 385.36C62.5333 384.853 62.92 384.467 63.4 384.2C63.8933 383.92 64.44 383.78 65.04 383.78C65.64 383.78 66.18 383.92 66.66 384.2C67.14 384.467 67.52 384.853 67.8 385.36C68.08 385.853 68.22 386.447 68.22 387.14C68.22 387.82 68.08 388.413 67.8 388.92C67.52 389.427 67.1333 389.82 66.64 390.1C66.16 390.367 65.62 390.5 65.02 390.5ZM65.02 389.2C65.34 389.2 65.6333 389.127 65.9 388.98C66.1667 388.82 66.38 388.587 66.54 388.28C66.7 387.973 66.78 387.593 66.78 387.14C66.78 386.673 66.7 386.287 66.54 385.98C66.38 385.66 66.1667 385.427 65.9 385.28C65.6333 385.12 65.3467 385.04 65.04 385.04C64.7333 385.04 64.44 385.12 64.16 385.28C63.88 385.427 63.6533 385.66 63.48 385.98C63.32 386.287 63.24 386.673 63.24 387.14C63.24 387.593 63.32 387.973 63.48 388.28C63.6533 388.587 63.8733 388.82 64.14 388.98C64.42 389.127 64.7133 389.2 65.02 389.2Z" fill="#737373"/>
<path d="M167.78 398V385.38H163.6V384H173.64V385.38H169.46V398H167.78ZM178.314 398.24C177.381 398.24 176.541 398.027 175.794 397.6C175.047 397.16 174.461 396.547 174.034 395.76C173.607 394.96 173.394 394.033 173.394 392.98C173.394 391.9 173.607 390.967 174.034 390.18C174.474 389.38 175.067 388.767 175.814 388.34C176.574 387.9 177.421 387.68 178.354 387.68C179.314 387.68 180.161 387.9 180.894 388.34C181.641 388.767 182.227 389.38 182.654 390.18C183.094 390.967 183.314 391.893 183.314 392.96C183.314 394.027 183.094 394.96 182.654 395.76C182.214 396.547 181.621 397.16 180.874 397.6C180.127 398.027 179.274 398.24 178.314 398.24ZM178.334 396.8C178.907 396.8 179.441 396.66 179.934 396.38C180.427 396.087 180.827 395.653 181.134 395.08C181.441 394.507 181.594 393.8 181.594 392.96C181.594 392.107 181.441 391.4 181.134 390.84C180.841 390.267 180.447 389.84 179.954 389.56C179.474 389.267 178.941 389.12 178.354 389.12C177.794 389.12 177.261 389.267 176.754 389.56C176.261 389.84 175.861 390.267 175.554 390.84C175.261 391.4 175.114 392.107 175.114 392.96C175.114 393.8 175.261 394.507 175.554 395.08C175.861 395.653 176.254 396.087 176.734 396.38C177.227 396.66 177.761 396.8 178.334 396.8ZM190.11 398.24C189.136 398.24 188.283 398.013 187.55 397.56C186.816 397.093 186.25 396.46 185.85 395.66C185.45 394.86 185.25 393.953 185.25 392.94C185.25 391.927 185.45 391.027 185.85 390.24C186.25 389.44 186.816 388.813 187.55 388.36C188.296 387.907 189.156 387.68 190.13 387.68C190.956 387.68 191.676 387.847 192.29 388.18C192.916 388.513 193.396 388.98 193.73 389.58V383.6H195.41V398H193.89L193.75 396.34C193.536 396.673 193.263 396.987 192.93 397.28C192.596 397.56 192.196 397.793 191.73 397.98C191.263 398.153 190.723 398.24 190.11 398.24ZM190.31 396.78C190.976 396.78 191.563 396.62 192.07 396.3C192.576 395.98 192.97 395.54 193.25 394.98C193.53 394.407 193.67 393.733 193.67 392.96C193.67 392.2 193.53 391.533 193.25 390.96C192.97 390.387 192.576 389.94 192.07 389.62C191.563 389.3 190.976 389.14 190.31 389.14C189.656 389.14 189.076 389.3 188.57 389.62C188.063 389.94 187.67 390.387 187.39 390.96C187.11 391.533 186.97 392.2 186.97 392.96C186.97 393.733 187.11 394.407 187.39 394.98C187.67 395.54 188.063 395.98 188.57 396.3C189.076 396.62 189.656 396.78 190.31 396.78ZM201.489 398.24C200.675 398.24 199.995 398.1 199.449 397.82C198.902 397.527 198.495 397.147 198.229 396.68C197.962 396.2 197.829 395.68 197.829 395.12C197.829 394.44 198.002 393.867 198.349 393.4C198.709 392.92 199.209 392.56 199.849 392.32C200.502 392.067 201.269 391.94 202.149 391.94H204.809C204.809 391.313 204.709 390.793 204.509 390.38C204.322 389.953 204.042 389.633 203.669 389.42C203.309 389.207 202.855 389.1 202.309 389.1C201.669 389.1 201.115 389.26 200.649 389.58C200.182 389.9 199.895 390.373 199.789 391H198.069C198.149 390.28 198.389 389.68 198.789 389.2C199.202 388.707 199.722 388.333 200.349 388.08C200.975 387.813 201.629 387.68 202.309 387.68C203.242 387.68 204.015 387.853 204.629 388.2C205.255 388.533 205.722 389.007 206.029 389.62C206.335 390.22 206.489 390.933 206.489 391.76V398H204.989L204.889 396.22C204.755 396.5 204.582 396.767 204.369 397.02C204.169 397.26 203.929 397.473 203.649 397.66C203.369 397.833 203.049 397.973 202.689 398.08C202.342 398.187 201.942 398.24 201.489 398.24ZM201.749 396.82C202.215 396.82 202.635 396.727 203.009 396.54C203.395 396.34 203.722 396.073 203.989 395.74C204.255 395.393 204.455 395.013 204.589 394.6C204.735 394.187 204.809 393.753 204.809 393.3V393.24H202.289C201.635 393.24 201.109 393.32 200.709 393.48C200.309 393.627 200.022 393.84 199.849 394.12C199.675 394.387 199.589 394.693 199.589 395.04C199.589 395.4 199.669 395.713 199.829 395.98C200.002 396.247 200.249 396.453 200.569 396.6C200.902 396.747 201.295 396.82 201.749 396.82ZM209.895 402.4L212.355 396.88H211.775L207.815 387.92H209.635L212.915 395.62L216.355 387.92H218.095L211.655 402.4H209.895Z" fill="#A3A3A3"/>
<path d="M291.78 398V385.38H287.6V384H297.64V385.38H293.46V398H291.78ZM301.407 398.24C300.593 398.24 299.913 398.1 299.367 397.82C298.82 397.527 298.413 397.147 298.147 396.68C297.88 396.2 297.747 395.68 297.747 395.12C297.747 394.44 297.92 393.867 298.267 393.4C298.627 392.92 299.127 392.56 299.767 392.32C300.42 392.067 301.187 391.94 302.067 391.94H304.727C304.727 391.313 304.627 390.793 304.427 390.38C304.24 389.953 303.96 389.633 303.587 389.42C303.227 389.207 302.773 389.1 302.227 389.1C301.587 389.1 301.033 389.26 300.567 389.58C300.1 389.9 299.813 390.373 299.707 391H297.987C298.067 390.28 298.307 389.68 298.707 389.2C299.12 388.707 299.64 388.333 300.267 388.08C300.893 387.813 301.547 387.68 302.227 387.68C303.16 387.68 303.933 387.853 304.547 388.2C305.173 388.533 305.64 389.007 305.947 389.62C306.253 390.22 306.407 390.933 306.407 391.76V398H304.907L304.807 396.22C304.673 396.5 304.5 396.767 304.287 397.02C304.087 397.26 303.847 397.473 303.567 397.66C303.287 397.833 302.967 397.973 302.607 398.08C302.26 398.187 301.86 398.24 301.407 398.24ZM301.667 396.82C302.133 396.82 302.553 396.727 302.927 396.54C303.313 396.34 303.64 396.073 303.907 395.74C304.173 395.393 304.373 395.013 304.507 394.6C304.653 394.187 304.727 393.753 304.727 393.3V393.24H302.207C301.553 393.24 301.027 393.32 300.627 393.48C300.227 393.627 299.94 393.84 299.767 394.12C299.593 394.387 299.507 394.693 299.507 395.04C299.507 395.4 299.587 395.713 299.747 395.98C299.92 396.247 300.167 396.453 300.487 396.6C300.82 396.747 301.213 396.82 301.667 396.82ZM309.005 398V387.92H310.525L310.645 389.84C310.872 389.387 311.159 389 311.505 388.68C311.865 388.36 312.292 388.113 312.785 387.94C313.292 387.767 313.865 387.68 314.505 387.68V389.44H313.885C313.459 389.44 313.052 389.5 312.665 389.62C312.279 389.727 311.932 389.907 311.625 390.16C311.332 390.413 311.099 390.76 310.925 391.2C310.765 391.627 310.685 392.16 310.685 392.8V398H309.005ZM320.153 402.64C319.247 402.64 318.44 402.52 317.733 402.28C317.04 402.053 316.5 401.7 316.113 401.22C315.727 400.74 315.533 400.147 315.533 399.44C315.533 399.133 315.593 398.807 315.713 398.46C315.847 398.113 316.067 397.773 316.373 397.44C316.693 397.107 317.14 396.807 317.713 396.54L318.873 397.22C318.167 397.513 317.707 397.847 317.493 398.22C317.28 398.607 317.173 398.96 317.173 399.28C317.173 399.72 317.3 400.087 317.553 400.38C317.807 400.673 318.16 400.893 318.613 401.04C319.067 401.187 319.58 401.26 320.153 401.26C320.727 401.26 321.22 401.18 321.633 401.02C322.047 400.86 322.367 400.633 322.593 400.34C322.82 400.047 322.933 399.7 322.933 399.3C322.933 398.833 322.76 398.44 322.413 398.12C322.067 397.813 321.407 397.633 320.433 397.58C319.647 397.527 318.987 397.453 318.453 397.36C317.92 397.267 317.48 397.16 317.133 397.04C316.787 396.907 316.493 396.76 316.253 396.6C316.027 396.44 315.82 396.273 315.633 396.1V395.64L317.573 393.72L319.033 394.24L317.033 396.04L317.293 395.34C317.44 395.447 317.58 395.547 317.713 395.64C317.847 395.733 318.027 395.813 318.253 395.88C318.48 395.947 318.793 396.007 319.193 396.06C319.607 396.113 320.147 396.167 320.813 396.22C321.733 396.287 322.467 396.447 323.013 396.7C323.573 396.953 323.973 397.293 324.213 397.72C324.467 398.147 324.593 398.653 324.593 399.24C324.593 399.813 324.433 400.353 324.113 400.86C323.807 401.38 323.327 401.807 322.673 402.14C322.02 402.473 321.18 402.64 320.153 402.64ZM320.133 394.84C319.293 394.84 318.573 394.68 317.973 394.36C317.387 394.04 316.94 393.613 316.633 393.08C316.327 392.533 316.173 391.927 316.173 391.26C316.173 390.593 316.327 389.993 316.633 389.46C316.953 388.927 317.407 388.5 317.993 388.18C318.58 387.847 319.293 387.68 320.133 387.68C320.973 387.68 321.687 387.847 322.273 388.18C322.86 388.5 323.307 388.927 323.613 389.46C323.92 389.993 324.073 390.593 324.073 391.26C324.073 391.927 323.92 392.533 323.613 393.08C323.307 393.613 322.86 394.04 322.273 394.36C321.687 394.68 320.973 394.84 320.133 394.84ZM320.133 393.46C320.853 393.46 321.42 393.273 321.833 392.9C322.247 392.527 322.453 391.98 322.453 391.26C322.453 390.553 322.247 390.013 321.833 389.64C321.42 389.267 320.853 389.08 320.133 389.08C319.427 389.08 318.853 389.267 318.413 389.64C317.987 390.013 317.773 390.553 317.773 391.26C317.773 391.98 317.987 392.527 318.413 392.9C318.84 393.273 319.413 393.46 320.133 393.46ZM321.773 389.34L321.273 387.92H325.393V389.18L321.773 389.34ZM331.355 398.24C330.408 398.24 329.568 398.02 328.835 397.58C328.115 397.14 327.548 396.527 327.135 395.74C326.722 394.94 326.515 394.013 326.515 392.96C326.515 391.893 326.715 390.967 327.115 390.18C327.528 389.393 328.102 388.78 328.835 388.34C329.582 387.9 330.435 387.68 331.395 387.68C332.382 387.68 333.215 387.9 333.895 388.34C334.588 388.78 335.115 389.36 335.475 390.08C335.848 390.787 336.035 391.567 336.035 392.42C336.035 392.553 336.035 392.693 336.035 392.84C336.035 392.987 336.028 393.153 336.015 393.34H327.775V392.04H334.395C334.355 391.12 334.048 390.4 333.475 389.88C332.915 389.36 332.208 389.1 331.355 389.1C330.782 389.1 330.248 389.233 329.755 389.5C329.275 389.753 328.888 390.133 328.595 390.64C328.302 391.133 328.155 391.753 328.155 392.5V393.06C328.155 393.887 328.302 394.58 328.595 395.14C328.902 395.7 329.295 396.12 329.775 396.4C330.268 396.68 330.795 396.82 331.355 396.82C332.062 396.82 332.642 396.667 333.095 396.36C333.562 396.04 333.895 395.613 334.095 395.08H335.755C335.595 395.68 335.315 396.22 334.915 396.7C334.515 397.18 334.015 397.56 333.415 397.84C332.828 398.107 332.142 398.24 331.355 398.24ZM341.93 398C341.33 398 340.81 397.907 340.37 397.72C339.93 397.533 339.59 397.22 339.35 396.78C339.124 396.327 339.01 395.72 339.01 394.96V389.34H337.25V387.92H339.01L339.23 385.48H340.69V387.92H343.61V389.34H340.69V394.96C340.69 395.587 340.817 396.013 341.07 396.24C341.324 396.453 341.77 396.56 342.41 396.56H343.49V398H341.93Z" fill="#A3A3A3"/>
<path d="M404.78 398V385.38H400.6V384H410.64V385.38H406.46V398H404.78ZM412.611 398V383.6H414.291V389.62C414.624 389.02 415.091 388.547 415.691 388.2C416.304 387.853 416.971 387.68 417.691 387.68C418.464 387.68 419.138 387.84 419.711 388.16C420.284 388.467 420.724 388.94 421.031 389.58C421.338 390.22 421.491 391.027 421.491 392V398H419.831V392.18C419.831 391.167 419.618 390.407 419.191 389.9C418.764 389.38 418.144 389.12 417.331 389.12C416.758 389.12 416.238 389.26 415.771 389.54C415.318 389.82 414.958 390.22 414.691 390.74C414.424 391.26 414.291 391.9 414.291 392.66V398H412.611ZM424.275 398V387.92H425.955V398H424.275ZM425.115 385.78C424.782 385.78 424.502 385.673 424.275 385.46C424.062 385.233 423.955 384.953 423.955 384.62C423.955 384.287 424.062 384.02 424.275 383.82C424.502 383.607 424.782 383.5 425.115 383.5C425.435 383.5 425.708 383.607 425.935 383.82C426.162 384.02 426.275 384.287 426.275 384.62C426.275 384.953 426.162 385.233 425.935 385.46C425.708 385.673 425.435 385.78 425.115 385.78ZM432.72 398.24C431.88 398.24 431.146 398.1 430.52 397.82C429.906 397.54 429.413 397.153 429.04 396.66C428.68 396.153 428.46 395.56 428.38 394.88H430.1C430.166 395.227 430.306 395.547 430.52 395.84C430.733 396.133 431.02 396.373 431.38 396.56C431.753 396.733 432.206 396.82 432.74 396.82C433.206 396.82 433.593 396.753 433.9 396.62C434.206 396.473 434.433 396.28 434.58 396.04C434.74 395.8 434.82 395.54 434.82 395.26C434.82 394.847 434.72 394.533 434.52 394.32C434.333 394.107 434.053 393.94 433.68 393.82C433.306 393.687 432.853 393.573 432.32 393.48C431.88 393.4 431.446 393.293 431.02 393.16C430.593 393.027 430.213 392.853 429.88 392.64C429.546 392.413 429.28 392.14 429.08 391.82C428.893 391.5 428.8 391.107 428.8 390.64C428.8 390.067 428.946 389.56 429.24 389.12C429.533 388.667 429.953 388.313 430.5 388.06C431.06 387.807 431.706 387.68 432.44 387.68C433.52 387.68 434.393 387.94 435.06 388.46C435.726 388.98 436.12 389.733 436.24 390.72H434.58C434.513 390.213 434.293 389.82 433.92 389.54C433.56 389.247 433.06 389.1 432.42 389.1C431.793 389.1 431.313 389.227 430.98 389.48C430.66 389.733 430.5 390.067 430.5 390.48C430.5 390.747 430.586 390.987 430.76 391.2C430.946 391.4 431.213 391.573 431.56 391.72C431.92 391.867 432.36 391.987 432.88 392.08C433.546 392.2 434.153 392.36 434.7 392.56C435.246 392.76 435.686 393.06 436.02 393.46C436.366 393.847 436.54 394.4 436.54 395.12C436.54 395.747 436.38 396.293 436.06 396.76C435.753 397.227 435.313 397.593 434.74 397.86C434.166 398.113 433.493 398.24 432.72 398.24ZM446.311 398L443.351 387.92H445.031L447.331 396.42H447.031L449.531 387.92H451.431L453.971 396.4L453.651 396.42L455.931 387.92H457.631L454.691 398H452.971L450.331 389.12H450.671L448.031 398H446.311ZM463.574 398.24C462.627 398.24 461.787 398.02 461.054 397.58C460.334 397.14 459.767 396.527 459.354 395.74C458.941 394.94 458.734 394.013 458.734 392.96C458.734 391.893 458.934 390.967 459.334 390.18C459.747 389.393 460.321 388.78 461.054 388.34C461.801 387.9 462.654 387.68 463.614 387.68C464.601 387.68 465.434 387.9 466.114 388.34C466.807 388.78 467.334 389.36 467.694 390.08C468.067 390.787 468.254 391.567 468.254 392.42C468.254 392.553 468.254 392.693 468.254 392.84C468.254 392.987 468.247 393.153 468.234 393.34H459.994V392.04H466.614C466.574 391.12 466.267 390.4 465.694 389.88C465.134 389.36 464.427 389.1 463.574 389.1C463.001 389.1 462.467 389.233 461.974 389.5C461.494 389.753 461.107 390.133 460.814 390.64C460.521 391.133 460.374 391.753 460.374 392.5V393.06C460.374 393.887 460.521 394.58 460.814 395.14C461.121 395.7 461.514 396.12 461.994 396.4C462.487 396.68 463.014 396.82 463.574 396.82C464.281 396.82 464.861 396.667 465.314 396.36C465.781 396.04 466.114 395.613 466.314 395.08H467.974C467.814 395.68 467.534 396.22 467.134 396.7C466.734 397.18 466.234 397.56 465.634 397.84C465.047 398.107 464.361 398.24 463.574 398.24ZM474.941 398.24C473.994 398.24 473.154 398.02 472.421 397.58C471.701 397.14 471.134 396.527 470.721 395.74C470.308 394.94 470.101 394.013 470.101 392.96C470.101 391.893 470.301 390.967 470.701 390.18C471.114 389.393 471.688 388.78 472.421 388.34C473.168 387.9 474.021 387.68 474.981 387.68C475.968 387.68 476.801 387.9 477.481 388.34C478.174 388.78 478.701 389.36 479.061 390.08C479.434 390.787 479.621 391.567 479.621 392.42C479.621 392.553 479.621 392.693 479.621 392.84C479.621 392.987 479.614 393.153 479.601 393.34H471.361V392.04H477.981C477.941 391.12 477.634 390.4 477.061 389.88C476.501 389.36 475.794 389.1 474.941 389.1C474.368 389.1 473.834 389.233 473.341 389.5C472.861 389.753 472.474 390.133 472.181 390.64C471.888 391.133 471.741 391.753 471.741 392.5V393.06C471.741 393.887 471.888 394.58 472.181 395.14C472.488 395.7 472.881 396.12 473.361 396.4C473.854 396.68 474.381 396.82 474.941 396.82C475.648 396.82 476.228 396.667 476.681 396.36C477.148 396.04 477.481 395.613 477.681 395.08H479.341C479.181 395.68 478.901 396.22 478.501 396.7C478.101 397.18 477.601 397.56 477.001 397.84C476.414 398.107 475.728 398.24 474.941 398.24ZM488.088 398L483.288 392.48L487.668 387.92H489.728L484.708 393.08L484.728 391.88L490.228 398H488.088ZM481.888 398V383.6H483.568V398H481.888Z" fill="#A3A3A3"/>
<line x1="61" y1="361.5" x2="522" y2="361.5" stroke="#262626"/>
<rect x="152" y="300" width="77" height="31" rx="8" fill="url(#paint1_linear_682_207)" fill-opacity="0.2"/>
<rect x="152.5" y="300.5" width="76" height="30" rx="7.5" stroke="#404040" stroke-opacity="0.8"/>
<rect x="277" y="242" width="77" height="89" rx="8" fill="url(#paint2_linear_682_207)" fill-opacity="0.2"/>
<rect x="277.5" y="242.5" width="76" height="88" rx="7.5" stroke="#404040" stroke-opacity="0.8"/>
<rect x="407" y="204" width="77" height="127" rx="8" fill="url(#paint3_linear_682_207)" fill-opacity="0.2"/>
<rect x="407.5" y="204.5" width="76" height="126" rx="7.5" stroke="#404040" stroke-opacity="0.8"/>
<g filter="url(#filter0_d_682_207)">
<path d="M253 231.5H379" stroke="white" stroke-width="2" stroke-linecap="round"/>
</g>
<mask id="path-32-inside-3_682_207" fill="white">
<path d="M588 144C588 135.163 595.163 128 604 128H1110C1118.84 128 1126 135.163 1126 144V422H588V144Z"/>
</mask>
<path d="M588 144C588 135.163 595.163 128 604 128H1110C1118.84 128 1126 135.163 1126 144V422H588V144Z" fill="white" fill-opacity="0.02"/>
<path d="M586 144C586 134.059 594.059 126 604 126H1110C1119.94 126 1128 134.059 1128 144H1124C1124 136.268 1117.73 130 1110 130H604C596.268 130 590 136.268 590 144H586ZM1126 422H588H1126ZM586 422V144C586 134.059 594.059 126 604 126V130C596.268 130 590 136.268 590 144V422H586ZM1110 126C1119.94 126 1128 134.059 1128 144V422H1124V144C1124 136.268 1117.73 130 1110 130V126Z" fill="#172554" fill-opacity="0.2" mask="url(#path-32-inside-3_682_207)"/>
<path d="M631.04 186V173.88L628.64 174.48V173.28L631.6 172H632.74V186H631.04ZM641.09 186.24C639.864 186.24 638.804 185.94 637.91 185.34C637.03 184.727 636.357 183.88 635.89 182.8C635.424 181.707 635.19 180.44 635.19 179C635.19 177.56 635.424 176.3 635.89 175.22C636.357 174.127 637.03 173.28 637.91 172.68C638.804 172.067 639.864 171.76 641.09 171.76C642.317 171.76 643.364 172.067 644.23 172.68C645.11 173.28 645.784 174.127 646.25 175.22C646.717 176.3 646.95 177.56 646.95 179C646.95 180.44 646.717 181.707 646.25 182.8C645.784 183.88 645.11 184.727 644.23 185.34C643.364 185.94 642.317 186.24 641.09 186.24ZM641.07 184.76C641.87 184.76 642.584 184.533 643.21 184.08C643.837 183.613 644.33 182.953 644.69 182.1C645.05 181.233 645.23 180.2 645.23 179C645.23 177.8 645.05 176.773 644.69 175.92C644.33 175.053 643.837 174.393 643.21 173.94C642.584 173.487 641.87 173.26 641.07 173.26C640.27 173.26 639.55 173.487 638.91 173.94C638.284 174.393 637.79 175.053 637.43 175.92C637.084 176.773 636.91 177.8 636.91 179C636.91 180.2 637.084 181.233 637.43 182.1C637.79 182.953 638.284 183.613 638.91 184.08C639.55 184.533 640.27 184.76 641.07 184.76ZM654.762 186.24C653.536 186.24 652.476 185.94 651.582 185.34C650.702 184.727 650.029 183.88 649.562 182.8C649.096 181.707 648.862 180.44 648.862 179C648.862 177.56 649.096 176.3 649.562 175.22C650.029 174.127 650.702 173.28 651.582 172.68C652.476 172.067 653.536 171.76 654.762 171.76C655.989 171.76 657.036 172.067 657.902 172.68C658.782 173.28 659.456 174.127 659.922 175.22C660.389 176.3 660.622 177.56 660.622 179C660.622 180.44 660.389 181.707 659.922 182.8C659.456 183.88 658.782 184.727 657.902 185.34C657.036 185.94 655.989 186.24 654.762 186.24ZM654.742 184.76C655.542 184.76 656.256 184.533 656.882 184.08C657.509 183.613 658.002 182.953 658.362 182.1C658.722 181.233 658.902 180.2 658.902 179C658.902 177.8 658.722 176.773 658.362 175.92C658.002 175.053 657.509 174.393 656.882 173.94C656.256 173.487 655.542 173.26 654.742 173.26C653.942 173.26 653.222 173.487 652.582 173.94C651.956 174.393 651.462 175.053 651.102 175.92C650.756 176.773 650.582 177.8 650.582 179C650.582 180.2 650.756 181.233 651.102 182.1C651.462 182.953 651.956 183.613 652.582 184.08C653.222 184.533 653.942 184.76 654.742 184.76Z" fill="#737373"/>
<path d="M630.76 224L636.22 211.44H628.54V210H637.94V211.26L632.54 224H630.76ZM644.318 224.24C643.358 224.24 642.524 224.067 641.818 223.72C641.124 223.373 640.571 222.9 640.158 222.3C639.758 221.7 639.504 221.027 639.398 220.28H641.038C641.198 221.027 641.564 221.633 642.138 222.1C642.711 222.567 643.444 222.8 644.338 222.8C645.004 222.8 645.571 222.647 646.038 222.34C646.518 222.033 646.884 221.613 647.138 221.08C647.404 220.547 647.538 219.953 647.538 219.3C647.538 218.62 647.404 218.02 647.138 217.5C646.871 216.98 646.504 216.58 646.038 216.3C645.571 216.007 645.024 215.86 644.398 215.86C643.638 215.86 642.991 216.027 642.458 216.36C641.924 216.693 641.524 217.12 641.258 217.64H639.638L640.798 210H648.198V211.46H642.098L641.318 215.76C641.651 215.373 642.091 215.06 642.638 214.82C643.198 214.567 643.844 214.44 644.578 214.44C645.271 214.44 645.898 214.56 646.458 214.8C647.018 215.04 647.498 215.38 647.898 215.82C648.298 216.26 648.604 216.773 648.818 217.36C649.044 217.947 649.158 218.587 649.158 219.28C649.158 219.96 649.044 220.6 648.818 221.2C648.604 221.787 648.291 222.313 647.878 222.78C647.464 223.233 646.958 223.593 646.358 223.86C645.758 224.113 645.078 224.24 644.318 224.24Z" fill="#737373"/>
<path d="M634.22 262.24C633.26 262.24 632.427 262.067 631.72 261.72C631.027 261.373 630.473 260.9 630.06 260.3C629.66 259.7 629.407 259.027 629.3 258.28H630.94C631.1 259.027 631.467 259.633 632.04 260.1C632.613 260.567 633.347 260.8 634.24 260.8C634.907 260.8 635.473 260.647 635.94 260.34C636.42 260.033 636.787 259.613 637.04 259.08C637.307 258.547 637.44 257.953 637.44 257.3C637.44 256.62 637.307 256.02 637.04 255.5C636.773 254.98 636.407 254.58 635.94 254.3C635.473 254.007 634.927 253.86 634.3 253.86C633.54 253.86 632.893 254.027 632.36 254.36C631.827 254.693 631.427 255.12 631.16 255.64H629.54L630.7 248H638.1V249.46H632L631.22 253.76C631.553 253.373 631.993 253.06 632.54 252.82C633.1 252.567 633.747 252.44 634.48 252.44C635.173 252.44 635.8 252.56 636.36 252.8C636.92 253.04 637.4 253.38 637.8 253.82C638.2 254.26 638.507 254.773 638.72 255.36C638.947 255.947 639.06 256.587 639.06 257.28C639.06 257.96 638.947 258.6 638.72 259.2C638.507 259.787 638.193 260.313 637.78 260.78C637.367 261.233 636.86 261.593 636.26 261.86C635.66 262.113 634.98 262.24 634.22 262.24ZM647.067 262.24C645.84 262.24 644.78 261.94 643.887 261.34C643.007 260.727 642.334 259.88 641.867 258.8C641.4 257.707 641.167 256.44 641.167 255C641.167 253.56 641.4 252.3 641.867 251.22C642.334 250.127 643.007 249.28 643.887 248.68C644.78 248.067 645.84 247.76 647.067 247.76C648.294 247.76 649.34 248.067 650.207 248.68C651.087 249.28 651.76 250.127 652.227 251.22C652.694 252.3 652.927 253.56 652.927 255C652.927 256.44 652.694 257.707 652.227 258.8C651.76 259.88 651.087 260.727 650.207 261.34C649.34 261.94 648.294 262.24 647.067 262.24ZM647.047 260.76C647.847 260.76 648.56 260.533 649.187 260.08C649.814 259.613 650.307 258.953 650.667 258.1C651.027 257.233 651.207 256.2 651.207 255C651.207 253.8 651.027 252.773 650.667 251.92C650.307 251.053 649.814 250.393 649.187 249.94C648.56 249.487 647.847 249.26 647.047 249.26C646.247 249.26 645.527 249.487 644.887 249.94C644.26 250.393 643.767 251.053 643.407 251.92C643.06 252.773 642.887 253.8 642.887 255C642.887 256.2 643.06 257.233 643.407 258.1C643.767 258.953 644.26 259.613 644.887 260.08C645.527 260.533 646.247 260.76 647.047 260.76Z" fill="#737373"/>
<path d="M629.28 300V298.82C630.227 298.073 631.127 297.32 631.98 296.56C632.847 295.8 633.613 295.047 634.28 294.3C634.947 293.54 635.467 292.8 635.84 292.08C636.227 291.36 636.42 290.667 636.42 290C636.42 289.507 636.333 289.053 636.16 288.64C635.987 288.213 635.707 287.867 635.32 287.6C634.947 287.333 634.44 287.2 633.8 287.2C633.173 287.2 632.653 287.34 632.24 287.62C631.827 287.887 631.513 288.247 631.3 288.7C631.1 289.14 631 289.627 631 290.16H629.38C629.393 289.24 629.587 288.453 629.96 287.8C630.347 287.133 630.873 286.627 631.54 286.28C632.207 285.933 632.967 285.76 633.82 285.76C634.66 285.76 635.4 285.92 636.04 286.24C636.68 286.547 637.18 287.007 637.54 287.62C637.913 288.233 638.1 289.007 638.1 289.94C638.1 290.593 637.96 291.247 637.68 291.9C637.413 292.553 637.053 293.193 636.6 293.82C636.147 294.433 635.64 295.027 635.08 295.6C634.533 296.173 633.967 296.713 633.38 297.22C632.807 297.727 632.267 298.187 631.76 298.6H638.58V300H629.28ZM645.743 300.24C644.783 300.24 643.95 300.067 643.243 299.72C642.55 299.373 641.997 298.9 641.583 298.3C641.183 297.7 640.93 297.027 640.823 296.28H642.463C642.623 297.027 642.99 297.633 643.563 298.1C644.137 298.567 644.87 298.8 645.763 298.8C646.43 298.8 646.997 298.647 647.463 298.34C647.943 298.033 648.31 297.613 648.563 297.08C648.83 296.547 648.963 295.953 648.963 295.3C648.963 294.62 648.83 294.02 648.563 293.5C648.297 292.98 647.93 292.58 647.463 292.3C646.997 292.007 646.45 291.86 645.823 291.86C645.063 291.86 644.417 292.027 643.883 292.36C643.35 292.693 642.95 293.12 642.683 293.64H641.063L642.223 286H649.623V287.46H643.523L642.743 291.76C643.077 291.373 643.517 291.06 644.063 290.82C644.623 290.567 645.27 290.44 646.003 290.44C646.697 290.44 647.323 290.56 647.883 290.8C648.443 291.04 648.923 291.38 649.323 291.82C649.723 292.26 650.03 292.773 650.243 293.36C650.47 293.947 650.583 294.587 650.583 295.28C650.583 295.96 650.47 296.6 650.243 297.2C650.03 297.787 649.717 298.313 649.303 298.78C648.89 299.233 648.383 299.593 647.783 299.86C647.183 300.113 646.503 300.24 645.743 300.24Z" fill="#737373"/>
<path d="M634.86 338.24C633.633 338.24 632.573 337.94 631.68 337.34C630.8 336.727 630.127 335.88 629.66 334.8C629.193 333.707 628.96 332.44 628.96 331C628.96 329.56 629.193 328.3 629.66 327.22C630.127 326.127 630.8 325.28 631.68 324.68C632.573 324.067 633.633 323.76 634.86 323.76C636.087 323.76 637.133 324.067 638 324.68C638.88 325.28 639.553 326.127 640.02 327.22C640.487 328.3 640.72 329.56 640.72 331C640.72 332.44 640.487 333.707 640.02 334.8C639.553 335.88 638.88 336.727 638 337.34C637.133 337.94 636.087 338.24 634.86 338.24ZM634.84 336.76C635.64 336.76 636.353 336.533 636.98 336.08C637.607 335.613 638.1 334.953 638.46 334.1C638.82 333.233 639 332.2 639 331C639 329.8 638.82 328.773 638.46 327.92C638.1 327.053 637.607 326.393 636.98 325.94C636.353 325.487 635.64 325.26 634.84 325.26C634.04 325.26 633.32 325.487 632.68 325.94C632.053 326.393 631.56 327.053 631.2 327.92C630.853 328.773 630.68 329.8 630.68 331C630.68 332.2 630.853 333.233 631.2 334.1C631.56 334.953 632.053 335.613 632.68 336.08C633.32 336.533 634.04 336.76 634.84 336.76Z" fill="#737373"/>
<path d="M630.9 398L639.04 384H640.72L632.58 398H630.9ZM639.72 398.24C639.12 398.24 638.58 398.107 638.1 397.84C637.62 397.56 637.233 397.167 636.94 396.66C636.66 396.153 636.52 395.56 636.52 394.88C636.52 394.187 636.66 393.593 636.94 393.1C637.233 392.593 637.62 392.207 638.1 391.94C638.58 391.66 639.12 391.52 639.72 391.52C640.333 391.52 640.873 391.66 641.34 391.94C641.82 392.207 642.2 392.593 642.48 393.1C642.76 393.593 642.9 394.187 642.9 394.88C642.9 395.56 642.76 396.153 642.48 396.66C642.2 397.167 641.82 397.56 641.34 397.84C640.86 398.107 640.32 398.24 639.72 398.24ZM639.7 396.94C640.02 396.94 640.313 396.867 640.58 396.72C640.847 396.56 641.06 396.327 641.22 396.02C641.393 395.713 641.48 395.333 641.48 394.88C641.48 394.413 641.4 394.027 641.24 393.72C641.08 393.413 640.867 393.187 640.6 393.04C640.333 392.88 640.04 392.8 639.72 392.8C639.413 392.8 639.12 392.88 638.84 393.04C638.573 393.187 638.353 393.413 638.18 393.72C638.02 394.027 637.94 394.413 637.94 394.88C637.94 395.333 638.02 395.713 638.18 396.02C638.353 396.327 638.573 396.56 638.84 396.72C639.107 396.867 639.393 396.94 639.7 396.94ZM632.02 390.5C631.42 390.5 630.88 390.367 630.4 390.1C629.92 389.82 629.533 389.427 629.24 388.92C628.96 388.413 628.82 387.82 628.82 387.14C628.82 386.447 628.96 385.853 629.24 385.36C629.533 384.853 629.92 384.467 630.4 384.2C630.893 383.92 631.44 383.78 632.04 383.78C632.64 383.78 633.18 383.92 633.66 384.2C634.14 384.467 634.52 384.853 634.8 385.36C635.08 385.853 635.22 386.447 635.22 387.14C635.22 387.82 635.08 388.413 634.8 388.92C634.52 389.427 634.133 389.82 633.64 390.1C633.16 390.367 632.62 390.5 632.02 390.5ZM632.02 389.2C632.34 389.2 632.633 389.127 632.9 388.98C633.167 388.82 633.38 388.587 633.54 388.28C633.7 387.973 633.78 387.593 633.78 387.14C633.78 386.673 633.7 386.287 633.54 385.98C633.38 385.66 633.167 385.427 632.9 385.28C632.633 385.12 632.347 385.04 632.04 385.04C631.733 385.04 631.44 385.12 631.16 385.28C630.88 385.427 630.653 385.66 630.48 385.98C630.32 386.287 630.24 386.673 630.24 387.14C630.24 387.593 630.32 387.973 630.48 388.28C630.653 388.587 630.873 388.82 631.14 388.98C631.42 389.127 631.713 389.2 632.02 389.2Z" fill="#737373"/>
<path d="M734.78 398V385.38H730.6V384H740.64V385.38H736.46V398H734.78ZM745.314 398.24C744.381 398.24 743.541 398.027 742.794 397.6C742.047 397.16 741.461 396.547 741.034 395.76C740.607 394.96 740.394 394.033 740.394 392.98C740.394 391.9 740.607 390.967 741.034 390.18C741.474 389.38 742.067 388.767 742.814 388.34C743.574 387.9 744.421 387.68 745.354 387.68C746.314 387.68 747.161 387.9 747.894 388.34C748.641 388.767 749.227 389.38 749.654 390.18C750.094 390.967 750.314 391.893 750.314 392.96C750.314 394.027 750.094 394.96 749.654 395.76C749.214 396.547 748.621 397.16 747.874 397.6C747.127 398.027 746.274 398.24 745.314 398.24ZM745.334 396.8C745.907 396.8 746.441 396.66 746.934 396.38C747.427 396.087 747.827 395.653 748.134 395.08C748.441 394.507 748.594 393.8 748.594 392.96C748.594 392.107 748.441 391.4 748.134 390.84C747.841 390.267 747.447 389.84 746.954 389.56C746.474 389.267 745.941 389.12 745.354 389.12C744.794 389.12 744.261 389.267 743.754 389.56C743.261 389.84 742.861 390.267 742.554 390.84C742.261 391.4 742.114 392.107 742.114 392.96C742.114 393.8 742.261 394.507 742.554 395.08C742.861 395.653 743.254 396.087 743.734 396.38C744.227 396.66 744.761 396.8 745.334 396.8ZM757.11 398.24C756.136 398.24 755.283 398.013 754.55 397.56C753.816 397.093 753.25 396.46 752.85 395.66C752.45 394.86 752.25 393.953 752.25 392.94C752.25 391.927 752.45 391.027 752.85 390.24C753.25 389.44 753.816 388.813 754.55 388.36C755.296 387.907 756.156 387.68 757.13 387.68C757.956 387.68 758.676 387.847 759.29 388.18C759.916 388.513 760.396 388.98 760.73 389.58V383.6H762.41V398H760.89L760.75 396.34C760.536 396.673 760.263 396.987 759.93 397.28C759.596 397.56 759.196 397.793 758.73 397.98C758.263 398.153 757.723 398.24 757.11 398.24ZM757.31 396.78C757.976 396.78 758.563 396.62 759.07 396.3C759.576 395.98 759.97 395.54 760.25 394.98C760.53 394.407 760.67 393.733 760.67 392.96C760.67 392.2 760.53 391.533 760.25 390.96C759.97 390.387 759.576 389.94 759.07 389.62C758.563 389.3 757.976 389.14 757.31 389.14C756.656 389.14 756.076 389.3 755.57 389.62C755.063 389.94 754.67 390.387 754.39 390.96C754.11 391.533 753.97 392.2 753.97 392.96C753.97 393.733 754.11 394.407 754.39 394.98C754.67 395.54 755.063 395.98 755.57 396.3C756.076 396.62 756.656 396.78 757.31 396.78ZM768.489 398.24C767.675 398.24 766.995 398.1 766.449 397.82C765.902 397.527 765.495 397.147 765.229 396.68C764.962 396.2 764.829 395.68 764.829 395.12C764.829 394.44 765.002 393.867 765.349 393.4C765.709 392.92 766.209 392.56 766.849 392.32C767.502 392.067 768.269 391.94 769.149 391.94H771.809C771.809 391.313 771.709 390.793 771.509 390.38C771.322 389.953 771.042 389.633 770.669 389.42C770.309 389.207 769.855 389.1 769.309 389.1C768.669 389.1 768.115 389.26 767.649 389.58C767.182 389.9 766.895 390.373 766.789 391H765.069C765.149 390.28 765.389 389.68 765.789 389.2C766.202 388.707 766.722 388.333 767.349 388.08C767.975 387.813 768.629 387.68 769.309 387.68C770.242 387.68 771.015 387.853 771.629 388.2C772.255 388.533 772.722 389.007 773.029 389.62C773.335 390.22 773.489 390.933 773.489 391.76V398H771.989L771.889 396.22C771.755 396.5 771.582 396.767 771.369 397.02C771.169 397.26 770.929 397.473 770.649 397.66C770.369 397.833 770.049 397.973 769.689 398.08C769.342 398.187 768.942 398.24 768.489 398.24ZM768.749 396.82C769.215 396.82 769.635 396.727 770.009 396.54C770.395 396.34 770.722 396.073 770.989 395.74C771.255 395.393 771.455 395.013 771.589 394.6C771.735 394.187 771.809 393.753 771.809 393.3V393.24H769.289C768.635 393.24 768.109 393.32 767.709 393.48C767.309 393.627 767.022 393.84 766.849 394.12C766.675 394.387 766.589 394.693 766.589 395.04C766.589 395.4 766.669 395.713 766.829 395.98C767.002 396.247 767.249 396.453 767.569 396.6C767.902 396.747 768.295 396.82 768.749 396.82ZM776.895 402.4L779.355 396.88H778.775L774.815 387.92H776.635L779.915 395.62L783.355 387.92H785.095L778.655 402.4H776.895Z" fill="#A3A3A3"/>
<path d="M858.78 398V385.38H854.6V384H864.64V385.38H860.46V398H858.78ZM868.407 398.24C867.593 398.24 866.913 398.1 866.367 397.82C865.82 397.527 865.413 397.147 865.147 396.68C864.88 396.2 864.747 395.68 864.747 395.12C864.747 394.44 864.92 393.867 865.267 393.4C865.627 392.92 866.127 392.56 866.767 392.32C867.42 392.067 868.187 391.94 869.067 391.94H871.727C871.727 391.313 871.627 390.793 871.427 390.38C871.24 389.953 870.96 389.633 870.587 389.42C870.227 389.207 869.773 389.1 869.227 389.1C868.587 389.1 868.033 389.26 867.567 389.58C867.1 389.9 866.813 390.373 866.707 391H864.987C865.067 390.28 865.307 389.68 865.707 389.2C866.12 388.707 866.64 388.333 867.267 388.08C867.893 387.813 868.547 387.68 869.227 387.68C870.16 387.68 870.933 387.853 871.547 388.2C872.173 388.533 872.64 389.007 872.947 389.62C873.253 390.22 873.407 390.933 873.407 391.76V398H871.907L871.807 396.22C871.673 396.5 871.5 396.767 871.287 397.02C871.087 397.26 870.847 397.473 870.567 397.66C870.287 397.833 869.967 397.973 869.607 398.08C869.26 398.187 868.86 398.24 868.407 398.24ZM868.667 396.82C869.133 396.82 869.553 396.727 869.927 396.54C870.313 396.34 870.64 396.073 870.907 395.74C871.173 395.393 871.373 395.013 871.507 394.6C871.653 394.187 871.727 393.753 871.727 393.3V393.24H869.207C868.553 393.24 868.027 393.32 867.627 393.48C867.227 393.627 866.94 393.84 866.767 394.12C866.593 394.387 866.507 394.693 866.507 395.04C866.507 395.4 866.587 395.713 866.747 395.98C866.92 396.247 867.167 396.453 867.487 396.6C867.82 396.747 868.213 396.82 868.667 396.82ZM876.005 398V387.92H877.525L877.645 389.84C877.872 389.387 878.159 389 878.505 388.68C878.865 388.36 879.292 388.113 879.785 387.94C880.292 387.767 880.865 387.68 881.505 387.68V389.44H880.885C880.459 389.44 880.052 389.5 879.665 389.62C879.279 389.727 878.932 389.907 878.625 390.16C878.332 390.413 878.099 390.76 877.925 391.2C877.765 391.627 877.685 392.16 877.685 392.8V398H876.005ZM887.153 402.64C886.247 402.64 885.44 402.52 884.733 402.28C884.04 402.053 883.5 401.7 883.113 401.22C882.727 400.74 882.533 400.147 882.533 399.44C882.533 399.133 882.593 398.807 882.713 398.46C882.847 398.113 883.067 397.773 883.373 397.44C883.693 397.107 884.14 396.807 884.713 396.54L885.873 397.22C885.167 397.513 884.707 397.847 884.493 398.22C884.28 398.607 884.173 398.96 884.173 399.28C884.173 399.72 884.3 400.087 884.553 400.38C884.807 400.673 885.16 400.893 885.613 401.04C886.067 401.187 886.58 401.26 887.153 401.26C887.727 401.26 888.22 401.18 888.633 401.02C889.047 400.86 889.367 400.633 889.593 400.34C889.82 400.047 889.933 399.7 889.933 399.3C889.933 398.833 889.76 398.44 889.413 398.12C889.067 397.813 888.407 397.633 887.433 397.58C886.647 397.527 885.987 397.453 885.453 397.36C884.92 397.267 884.48 397.16 884.133 397.04C883.787 396.907 883.493 396.76 883.253 396.6C883.027 396.44 882.82 396.273 882.633 396.1V395.64L884.573 393.72L886.033 394.24L884.033 396.04L884.293 395.34C884.44 395.447 884.58 395.547 884.713 395.64C884.847 395.733 885.027 395.813 885.253 395.88C885.48 395.947 885.793 396.007 886.193 396.06C886.607 396.113 887.147 396.167 887.813 396.22C888.733 396.287 889.467 396.447 890.013 396.7C890.573 396.953 890.973 397.293 891.213 397.72C891.467 398.147 891.593 398.653 891.593 399.24C891.593 399.813 891.433 400.353 891.113 400.86C890.807 401.38 890.327 401.807 889.673 402.14C889.02 402.473 888.18 402.64 887.153 402.64ZM887.133 394.84C886.293 394.84 885.573 394.68 884.973 394.36C884.387 394.04 883.94 393.613 883.633 393.08C883.327 392.533 883.173 391.927 883.173 391.26C883.173 390.593 883.327 389.993 883.633 389.46C883.953 388.927 884.407 388.5 884.993 388.18C885.58 387.847 886.293 387.68 887.133 387.68C887.973 387.68 888.687 387.847 889.273 388.18C889.86 388.5 890.307 388.927 890.613 389.46C890.92 389.993 891.073 390.593 891.073 391.26C891.073 391.927 890.92 392.533 890.613 393.08C890.307 393.613 889.86 394.04 889.273 394.36C888.687 394.68 887.973 394.84 887.133 394.84ZM887.133 393.46C887.853 393.46 888.42 393.273 888.833 392.9C889.247 392.527 889.453 391.98 889.453 391.26C889.453 390.553 889.247 390.013 888.833 389.64C888.42 389.267 887.853 389.08 887.133 389.08C886.427 389.08 885.853 389.267 885.413 389.64C884.987 390.013 884.773 390.553 884.773 391.26C884.773 391.98 884.987 392.527 885.413 392.9C885.84 393.273 886.413 393.46 887.133 393.46ZM888.773 389.34L888.273 387.92H892.393V389.18L888.773 389.34ZM898.355 398.24C897.408 398.24 896.568 398.02 895.835 397.58C895.115 397.14 894.548 396.527 894.135 395.74C893.722 394.94 893.515 394.013 893.515 392.96C893.515 391.893 893.715 390.967 894.115 390.18C894.528 389.393 895.102 388.78 895.835 388.34C896.582 387.9 897.435 387.68 898.395 387.68C899.382 387.68 900.215 387.9 900.895 388.34C901.588 388.78 902.115 389.36 902.475 390.08C902.848 390.787 903.035 391.567 903.035 392.42C903.035 392.553 903.035 392.693 903.035 392.84C903.035 392.987 903.028 393.153 903.015 393.34H894.775V392.04H901.395C901.355 391.12 901.048 390.4 900.475 389.88C899.915 389.36 899.208 389.1 898.355 389.1C897.782 389.1 897.248 389.233 896.755 389.5C896.275 389.753 895.888 390.133 895.595 390.64C895.302 391.133 895.155 391.753 895.155 392.5V393.06C895.155 393.887 895.302 394.58 895.595 395.14C895.902 395.7 896.295 396.12 896.775 396.4C897.268 396.68 897.795 396.82 898.355 396.82C899.062 396.82 899.642 396.667 900.095 396.36C900.562 396.04 900.895 395.613 901.095 395.08H902.755C902.595 395.68 902.315 396.22 901.915 396.7C901.515 397.18 901.015 397.56 900.415 397.84C899.828 398.107 899.142 398.24 898.355 398.24ZM908.93 398C908.33 398 907.81 397.907 907.37 397.72C906.93 397.533 906.59 397.22 906.35 396.78C906.124 396.327 906.01 395.72 906.01 394.96V389.34H904.25V387.92H906.01L906.23 385.48H907.69V387.92H910.61V389.34H907.69V394.96C907.69 395.587 907.817 396.013 908.07 396.24C908.324 396.453 908.77 396.56 909.41 396.56H910.49V398H908.93Z" fill="#A3A3A3"/>
<path d="M971.78 398V385.38H967.6V384H977.64V385.38H973.46V398H971.78ZM979.611 398V383.6H981.291V389.62C981.624 389.02 982.091 388.547 982.691 388.2C983.304 387.853 983.971 387.68 984.691 387.68C985.464 387.68 986.138 387.84 986.711 388.16C987.284 388.467 987.724 388.94 988.031 389.58C988.338 390.22 988.491 391.027 988.491 392V398H986.831V392.18C986.831 391.167 986.618 390.407 986.191 389.9C985.764 389.38 985.144 389.12 984.331 389.12C983.758 389.12 983.238 389.26 982.771 389.54C982.318 389.82 981.958 390.22 981.691 390.74C981.424 391.26 981.291 391.9 981.291 392.66V398H979.611ZM991.275 398V387.92H992.955V398H991.275ZM992.115 385.78C991.782 385.78 991.502 385.673 991.275 385.46C991.062 385.233 990.955 384.953 990.955 384.62C990.955 384.287 991.062 384.02 991.275 383.82C991.502 383.607 991.782 383.5 992.115 383.5C992.435 383.5 992.708 383.607 992.935 383.82C993.162 384.02 993.275 384.287 993.275 384.62C993.275 384.953 993.162 385.233 992.935 385.46C992.708 385.673 992.435 385.78 992.115 385.78ZM999.72 398.24C998.88 398.24 998.146 398.1 997.52 397.82C996.906 397.54 996.413 397.153 996.04 396.66C995.68 396.153 995.46 395.56 995.38 394.88H997.1C997.166 395.227 997.306 395.547 997.52 395.84C997.733 396.133 998.02 396.373 998.38 396.56C998.753 396.733 999.206 396.82 999.74 396.82C1000.21 396.82 1000.59 396.753 1000.9 396.62C1001.21 396.473 1001.43 396.28 1001.58 396.04C1001.74 395.8 1001.82 395.54 1001.82 395.26C1001.82 394.847 1001.72 394.533 1001.52 394.32C1001.33 394.107 1001.05 393.94 1000.68 393.82C1000.31 393.687 999.853 393.573 999.32 393.48C998.88 393.4 998.446 393.293 998.02 393.16C997.593 393.027 997.213 392.853 996.88 392.64C996.546 392.413 996.28 392.14 996.08 391.82C995.893 391.5 995.8 391.107 995.8 390.64C995.8 390.067 995.946 389.56 996.24 389.12C996.533 388.667 996.953 388.313 997.5 388.06C998.06 387.807 998.706 387.68 999.44 387.68C1000.52 387.68 1001.39 387.94 1002.06 388.46C1002.73 388.98 1003.12 389.733 1003.24 390.72H1001.58C1001.51 390.213 1001.29 389.82 1000.92 389.54C1000.56 389.247 1000.06 389.1 999.42 389.1C998.793 389.1 998.313 389.227 997.98 389.48C997.66 389.733 997.5 390.067 997.5 390.48C997.5 390.747 997.586 390.987 997.76 391.2C997.946 391.4 998.213 391.573 998.56 391.72C998.92 391.867 999.36 391.987 999.88 392.08C1000.55 392.2 1001.15 392.36 1001.7 392.56C1002.25 392.76 1002.69 393.06 1003.02 393.46C1003.37 393.847 1003.54 394.4 1003.54 395.12C1003.54 395.747 1003.38 396.293 1003.06 396.76C1002.75 397.227 1002.31 397.593 1001.74 397.86C1001.17 398.113 1000.49 398.24 999.72 398.24ZM1013.31 398L1010.35 387.92H1012.03L1014.33 396.42H1014.03L1016.53 387.92H1018.43L1020.97 396.4L1020.65 396.42L1022.93 387.92H1024.63L1021.69 398H1019.97L1017.33 389.12H1017.67L1015.03 398H1013.31ZM1030.57 398.24C1029.63 398.24 1028.79 398.02 1028.05 397.58C1027.33 397.14 1026.77 396.527 1026.35 395.74C1025.94 394.94 1025.73 394.013 1025.73 392.96C1025.73 391.893 1025.93 390.967 1026.33 390.18C1026.75 389.393 1027.32 388.78 1028.05 388.34C1028.8 387.9 1029.65 387.68 1030.61 387.68C1031.6 387.68 1032.43 387.9 1033.11 388.34C1033.81 388.78 1034.33 389.36 1034.69 390.08C1035.07 390.787 1035.25 391.567 1035.25 392.42C1035.25 392.553 1035.25 392.693 1035.25 392.84C1035.25 392.987 1035.25 393.153 1035.23 393.34H1026.99V392.04H1033.61C1033.57 391.12 1033.27 390.4 1032.69 389.88C1032.13 389.36 1031.43 389.1 1030.57 389.1C1030 389.1 1029.47 389.233 1028.97 389.5C1028.49 389.753 1028.11 390.133 1027.81 390.64C1027.52 391.133 1027.37 391.753 1027.37 392.5V393.06C1027.37 393.887 1027.52 394.58 1027.81 395.14C1028.12 395.7 1028.51 396.12 1028.99 396.4C1029.49 396.68 1030.01 396.82 1030.57 396.82C1031.28 396.82 1031.86 396.667 1032.31 396.36C1032.78 396.04 1033.11 395.613 1033.31 395.08H1034.97C1034.81 395.68 1034.53 396.22 1034.13 396.7C1033.73 397.18 1033.23 397.56 1032.63 397.84C1032.05 398.107 1031.36 398.24 1030.57 398.24ZM1041.94 398.24C1040.99 398.24 1040.15 398.02 1039.42 397.58C1038.7 397.14 1038.13 396.527 1037.72 395.74C1037.31 394.94 1037.1 394.013 1037.1 392.96C1037.1 391.893 1037.3 390.967 1037.7 390.18C1038.11 389.393 1038.69 388.78 1039.42 388.34C1040.17 387.9 1041.02 387.68 1041.98 387.68C1042.97 387.68 1043.8 387.9 1044.48 388.34C1045.17 388.78 1045.7 389.36 1046.06 390.08C1046.43 390.787 1046.62 391.567 1046.62 392.42C1046.62 392.553 1046.62 392.693 1046.62 392.84C1046.62 392.987 1046.61 393.153 1046.6 393.34H1038.36V392.04H1044.98C1044.94 391.12 1044.63 390.4 1044.06 389.88C1043.5 389.36 1042.79 389.1 1041.94 389.1C1041.37 389.1 1040.83 389.233 1040.34 389.5C1039.86 389.753 1039.47 390.133 1039.18 390.64C1038.89 391.133 1038.74 391.753 1038.74 392.5V393.06C1038.74 393.887 1038.89 394.58 1039.18 395.14C1039.49 395.7 1039.88 396.12 1040.36 396.4C1040.85 396.68 1041.38 396.82 1041.94 396.82C1042.65 396.82 1043.23 396.667 1043.68 396.36C1044.15 396.04 1044.48 395.613 1044.68 395.08H1046.34C1046.18 395.68 1045.9 396.22 1045.5 396.7C1045.1 397.18 1044.6 397.56 1044 397.84C1043.41 398.107 1042.73 398.24 1041.94 398.24ZM1055.09 398L1050.29 392.48L1054.67 387.92H1056.73L1051.71 393.08L1051.73 391.88L1057.23 398H1055.09ZM1048.89 398V383.6H1050.57V398H1048.89Z" fill="#A3A3A3"/>
<line x1="628" y1="361.5" x2="1089" y2="361.5" stroke="#262626"/>
<rect x="844" y="300" width="77" height="31" rx="8" fill="url(#paint4_linear_682_207)" fill-opacity="0.2"/>
<rect x="844.5" y="300.5" width="76" height="30" rx="7.5" stroke="#404040" stroke-opacity="0.8"/>
<rect x="718" y="204" width="77" height="127" rx="8" fill="url(#paint5_linear_682_207)" fill-opacity="0.2"/>
<rect x="718.5" y="204.5" width="76" height="126" rx="7.5" stroke="#404040" stroke-opacity="0.8"/>
<rect x="974" y="268" width="77" height="63" rx="8" fill="url(#paint6_linear_682_207)" fill-opacity="0.2"/>
<rect x="974.5" y="268.5" width="76" height="62" rx="7.5" stroke="#404040" stroke-opacity="0.8"/>
<g filter="url(#filter1_d_682_207)">
<path d="M820 291.5H946" stroke="white" stroke-width="2" stroke-linecap="round"/>
</g>
<defs>
<filter id="filter0_d_682_207" x="246.6" y="226.1" width="138.8" height="12.8" filterUnits="userSpaceOnUse" color-interpolation-filters="sRGB">
<feFlood flood-opacity="0" result="BackgroundImageFix"/>
<feColorMatrix in="SourceAlpha" type="matrix" values="0 0 0 0 0 0 0 0 0 0 0 0 0 0 0 0 0 0 127 0" result="hardAlpha"/>
<feOffset dy="1"/>
<feGaussianBlur stdDeviation="2.7"/>
<feComposite in2="hardAlpha" operator="out"/>
<feColorMatrix type="matrix" values="0 0 0 0 1 0 0 0 0 1 0 0 0 0 1 0 0 0 1 0"/>
<feBlend mode="normal" in2="BackgroundImageFix" result="effect1_dropShadow_682_207"/>
<feBlend mode="normal" in="SourceGraphic" in2="effect1_dropShadow_682_207" result="shape"/>
</filter>
<filter id="filter1_d_682_207" x="813.6" y="286.1" width="138.8" height="12.8" filterUnits="userSpaceOnUse" color-interpolation-filters="sRGB">
<feFlood flood-opacity="0" result="BackgroundImageFix"/>
<feColorMatrix in="SourceAlpha" type="matrix" values="0 0 0 0 0 0 0 0 0 0 0 0 0 0 0 0 0 0 127 0" result="hardAlpha"/>
<feOffset dy="1"/>
<feGaussianBlur stdDeviation="2.7"/>
<feComposite in2="hardAlpha" operator="out"/>
<feColorMatrix type="matrix" values="0 0 0 0 1 0 0 0 0 1 0 0 0 0 1 0 0 0 1 0"/>
<feBlend mode="normal" in2="BackgroundImageFix" result="effect1_dropShadow_682_207"/>
<feBlend mode="normal" in="SourceGraphic" in2="effect1_dropShadow_682_207" result="shape"/>
</filter>
<linearGradient id="paint0_linear_682_207" x1="21" y1="275" x2="559" y2="275" gradientUnits="userSpaceOnUse">
<stop stop-color="#0EA5E9" stop-opacity="0.8"/>
<stop offset="1" stop-color="#172554" stop-opacity="0.5"/>
</linearGradient>
<linearGradient id="paint1_linear_682_207" x1="190.5" y1="300" x2="190.5" y2="331" gradientUnits="userSpaceOnUse">
<stop stop-color="white" stop-opacity="0.2"/>
<stop offset="1" stop-color="#999999" stop-opacity="0.5"/>
</linearGradient>
<linearGradient id="paint2_linear_682_207" x1="315.5" y1="242" x2="315.5" y2="331" gradientUnits="userSpaceOnUse">
<stop stop-color="white" stop-opacity="0.2"/>
<stop offset="1" stop-color="#999999" stop-opacity="0.5"/>
</linearGradient>
<linearGradient id="paint3_linear_682_207" x1="445.5" y1="204" x2="445.5" y2="331" gradientUnits="userSpaceOnUse">
<stop stop-color="white" stop-opacity="0.2"/>
<stop offset="1" stop-color="#999999" stop-opacity="0.5"/>
</linearGradient>
<linearGradient id="paint4_linear_682_207" x1="882.5" y1="300" x2="882.5" y2="331" gradientUnits="userSpaceOnUse">
<stop stop-color="white" stop-opacity="0.2"/>
<stop offset="1" stop-color="#999999" stop-opacity="0.5"/>
</linearGradient>
<linearGradient id="paint5_linear_682_207" x1="756.5" y1="204" x2="756.5" y2="331" gradientUnits="userSpaceOnUse">
<stop stop-color="white" stop-opacity="0.2"/>
<stop offset="1" stop-color="#999999" stop-opacity="0.5"/>
</linearGradient>
<linearGradient id="paint6_linear_682_207" x1="1012.5" y1="268" x2="1012.5" y2="331" gradientUnits="userSpaceOnUse">
<stop stop-color="white" stop-opacity="0.2"/>
<stop offset="1" stop-color="#999999" stop-opacity="0.5"/>
</linearGradient>
</defs>
</svg>
