<svg width="604" height="398" viewBox="0 0 604 398" fill="none" xmlns="http://www.w3.org/2000/svg">
<path d="M0 0H604V331C604 368.003 574.003 398 537 398H67C29.9969 398 0 368.003 0 331V0Z" fill="white" fill-opacity="0.01"/>
<path d="M0.5 0.5H603.5V331C603.5 367.727 573.727 397.5 537 397.5H67C30.2731 397.5 0.5 367.727 0.5 331V0.5Z" stroke="white" stroke-opacity="0.1"/>
<circle cx="82.9998" cy="80.8318" r="39.8318" fill="#3B82F6"/>
<path d="M82.9994 87.449C82.7595 87.449 82.5347 87.4126 82.3248 87.34C82.1149 87.2674 81.92 87.1426 81.74 86.9657L75.2632 80.6395C74.9034 80.288 74.7307 79.878 74.7451 79.4094C74.7594 78.9408 74.9322 78.5308 75.2632 78.1793C75.623 77.8278 76.0506 77.6451 76.546 77.631C77.0413 77.617 77.4683 77.7851 77.827 78.1354L81.2003 81.4303V68.8657C81.2003 68.3678 81.373 67.9507 81.7185 67.6145C82.0639 67.2783 82.4909 67.1096 82.9994 67.1084C83.508 67.1072 83.9356 67.2759 84.2822 67.6145C84.6288 67.9531 84.801 68.3701 84.7986 68.8657V81.4303L88.1719 78.1354C88.5317 77.7839 88.9593 77.6152 89.4547 77.6293C89.95 77.6433 90.377 77.8267 90.7357 78.1793C91.0655 78.5308 91.2382 78.9408 91.2538 79.4094C91.2694 79.878 91.0967 80.288 90.7357 80.6395L84.2588 86.9657C84.0789 87.1414 83.884 87.2662 83.6741 87.34C83.4642 87.4138 83.2393 87.4501 82.9994 87.449ZM72.2047 95.2249C71.2152 95.2249 70.3684 94.8811 69.6643 94.1934C68.9603 93.5057 68.6076 92.6781 68.6064 91.7104V88.1958C68.6064 87.6979 68.7792 87.2809 69.1246 86.9446C69.47 86.6084 69.897 86.4397 70.4056 86.4385C70.9141 86.4374 71.3417 86.6061 71.6883 86.9446C72.035 87.2832 72.2071 87.7003 72.2047 88.1958V91.7104H93.7942V88.1958C93.7942 87.6979 93.9669 87.2809 94.3123 86.9446C94.6578 86.6084 95.0847 86.4397 95.5933 86.4385C96.1018 86.4374 96.5294 86.6061 96.8761 86.9446C97.2227 87.2832 97.3948 87.7003 97.3924 88.1958V91.7104C97.3924 92.6769 97.0404 93.5046 96.3363 94.1934C95.6323 94.8823 94.7849 95.2261 93.7942 95.2249H72.2047Z" fill="white"/>
<path d="M148.054 75L156.826 51.2H159.852L168.59 75H165.53L158.322 54.77L151.046 75H148.054ZM152.066 68.88L152.882 66.568H163.66L164.476 68.88H152.066ZM178.086 75.408C176.771 75.408 175.627 75.1587 174.652 74.66C173.677 74.1613 172.918 73.402 172.374 72.382C171.83 71.3393 171.558 70.0473 171.558 68.506V57.116H174.414V68.2C174.414 69.7867 174.799 70.9767 175.57 71.77C176.363 72.5633 177.417 72.96 178.732 72.96C179.639 72.96 180.455 72.756 181.18 72.348C181.905 71.9173 182.483 71.294 182.914 70.478C183.367 69.662 183.594 68.6647 183.594 67.486V57.116H186.45V75H183.866L183.696 72.144C183.22 73.1867 182.483 73.9913 181.486 74.558C180.511 75.1247 179.378 75.408 178.086 75.408ZM198.287 82.888C196.678 82.888 195.261 82.684 194.037 82.276C192.836 81.8907 191.895 81.29 191.215 80.474C190.558 79.658 190.229 78.6493 190.229 77.448C190.229 76.8813 190.331 76.292 190.535 75.68C190.762 75.068 191.136 74.4787 191.657 73.912C192.201 73.3453 192.96 72.8353 193.935 72.382L196.111 73.538C194.819 74.0367 193.98 74.6147 193.595 75.272C193.21 75.9293 193.017 76.564 193.017 77.176C193.017 77.924 193.232 78.5473 193.663 79.046C194.116 79.5447 194.74 79.9187 195.533 80.168C196.326 80.4173 197.244 80.542 198.287 80.542C199.307 80.542 200.18 80.406 200.905 80.134C201.653 79.8847 202.22 79.5107 202.605 79.012C203.013 78.536 203.217 77.9693 203.217 77.312C203.217 76.36 202.911 75.612 202.299 75.068C201.687 74.5467 200.497 74.2407 198.729 74.15C197.346 74.0593 196.19 73.9347 195.261 73.776C194.332 73.6173 193.561 73.436 192.949 73.232C192.36 73.0053 191.861 72.756 191.453 72.484C191.068 72.212 190.716 71.9287 190.399 71.634V70.852L193.765 67.622L196.451 68.506L192.779 71.532L193.221 70.24C193.47 70.4213 193.708 70.5913 193.935 70.75C194.162 70.9087 194.468 71.056 194.853 71.192C195.261 71.3053 195.816 71.4187 196.519 71.532C197.244 71.6453 198.196 71.7473 199.375 71.838C201.007 71.9513 202.31 72.2233 203.285 72.654C204.26 73.0847 204.962 73.6853 205.393 74.456C205.824 75.204 206.039 76.122 206.039 77.21C206.039 78.162 205.767 79.0687 205.223 79.93C204.702 80.7913 203.863 81.494 202.707 82.038C201.574 82.6047 200.1 82.888 198.287 82.888ZM198.253 69.424C196.802 69.424 195.567 69.152 194.547 68.608C193.55 68.0413 192.79 67.282 192.269 66.33C191.748 65.3553 191.487 64.2673 191.487 63.066C191.487 61.8647 191.748 60.788 192.269 59.836C192.813 58.884 193.584 58.1247 194.581 57.558C195.601 56.9913 196.825 56.708 198.253 56.708C199.726 56.708 200.962 56.9913 201.959 57.558C202.956 58.1247 203.716 58.884 204.237 59.836C204.758 60.788 205.019 61.8647 205.019 63.066C205.019 64.2673 204.758 65.3553 204.237 66.33C203.716 67.282 202.956 68.0413 201.959 68.608C200.962 69.152 199.726 69.424 198.253 69.424ZM198.253 67.078C199.522 67.078 200.508 66.7493 201.211 66.092C201.914 65.412 202.265 64.4033 202.265 63.066C202.265 61.7287 201.914 60.7313 201.211 60.074C200.508 59.4167 199.522 59.088 198.253 59.088C197.052 59.088 196.066 59.4167 195.295 60.074C194.547 60.7313 194.173 61.7287 194.173 63.066C194.173 64.4033 194.536 65.412 195.261 66.092C196.009 66.7493 197.006 67.078 198.253 67.078ZM201.245 59.53L200.395 57.116H207.399V59.258L201.245 59.53ZM217.266 75.408C215.951 75.408 214.806 75.1587 213.832 74.66C212.857 74.1613 212.098 73.402 211.554 72.382C211.01 71.3393 210.738 70.0473 210.738 68.506V57.116H213.594V68.2C213.594 69.7867 213.979 70.9767 214.75 71.77C215.543 72.5633 216.597 72.96 217.912 72.96C218.818 72.96 219.634 72.756 220.36 72.348C221.085 71.9173 221.663 71.294 222.094 70.478C222.547 69.662 222.774 68.6647 222.774 67.486V57.116H225.63V75H223.046L222.876 72.144C222.4 73.1867 221.663 73.9913 220.666 74.558C219.691 75.1247 218.558 75.408 217.266 75.408ZM236.923 75.408C235.313 75.408 233.976 75.17 232.911 74.694C231.868 74.1953 231.075 73.5153 230.531 72.654C229.987 71.77 229.658 70.75 229.545 69.594H232.469C232.559 70.206 232.763 70.7727 233.081 71.294C233.421 71.7927 233.908 72.2007 234.543 72.518C235.177 72.8353 235.982 72.994 236.957 72.994C237.727 72.994 238.385 72.8807 238.929 72.654C239.473 72.4047 239.881 72.0647 240.153 71.634C240.447 71.2033 240.595 70.7047 240.595 70.138C240.595 69.39 240.425 68.812 240.085 68.404C239.767 67.9733 239.291 67.656 238.657 67.452C238.045 67.2253 237.274 67.0553 236.345 66.942C235.347 66.806 234.463 66.6133 233.693 66.364C232.922 66.1147 232.265 65.786 231.721 65.378C231.199 64.97 230.803 64.46 230.531 63.848C230.259 63.236 230.123 62.5107 230.123 61.672C230.123 60.6973 230.383 59.836 230.905 59.088C231.426 58.34 232.163 57.762 233.115 57.354C234.089 56.9233 235.234 56.708 236.549 56.708C238.475 56.708 239.994 57.15 241.105 58.034C242.238 58.918 242.907 60.176 243.111 61.808H240.289C240.175 60.9693 239.79 60.312 239.133 59.836C238.475 59.36 237.603 59.122 236.515 59.122C235.359 59.122 234.486 59.3373 233.897 59.768C233.307 60.1987 233.013 60.7653 233.013 61.468C233.013 61.9893 233.137 62.4653 233.387 62.896C233.659 63.304 234.112 63.6553 234.747 63.95C235.381 64.222 236.231 64.426 237.297 64.562C238.634 64.7207 239.767 64.9813 240.697 65.344C241.626 65.684 242.329 66.2167 242.805 66.942C243.303 67.6673 243.541 68.6533 243.519 69.9C243.519 71.0787 243.235 72.076 242.669 72.892C242.125 73.708 241.354 74.3313 240.357 74.762C239.382 75.1927 238.237 75.408 236.923 75.408ZM253.934 75C252.914 75 252.03 74.8413 251.282 74.524C250.534 74.2067 249.956 73.674 249.548 72.926C249.163 72.1553 248.97 71.124 248.97 69.832V59.53H245.842V57.116H248.97L249.344 52.662H251.826V57.116H256.892V59.53H251.826V69.832C251.826 70.8973 252.041 71.6227 252.472 72.008C252.903 72.3707 253.662 72.552 254.75 72.552H256.824V75H253.934ZM277.761 75.408C276.016 75.408 274.497 75.0907 273.205 74.456C271.913 73.8213 270.916 72.9373 270.213 71.804C269.511 70.6707 269.159 69.356 269.159 67.86H272.151C272.151 68.7893 272.367 69.6507 272.797 70.444C273.228 71.2147 273.851 71.838 274.667 72.314C275.506 72.7673 276.537 72.994 277.761 72.994C278.827 72.994 279.733 72.824 280.481 72.484C281.252 72.1213 281.83 71.634 282.215 71.022C282.623 70.41 282.827 69.7187 282.827 68.948C282.827 68.0867 282.635 67.3727 282.249 66.806C281.887 66.2167 281.377 65.7407 280.719 65.378C280.062 64.9927 279.303 64.6527 278.441 64.358C277.58 64.0633 276.651 63.7573 275.653 63.44C273.659 62.8053 272.208 62.012 271.301 61.06C270.417 60.0853 269.975 58.8387 269.975 57.32C269.975 56.028 270.27 54.8947 270.859 53.92C271.471 52.9453 272.333 52.186 273.443 51.642C274.577 51.0753 275.914 50.792 277.455 50.792C278.974 50.792 280.289 51.0753 281.399 51.642C282.533 52.2087 283.417 52.9907 284.051 53.988C284.686 54.9627 285.003 56.096 285.003 57.388H282.011C282.011 56.7307 281.841 56.0847 281.501 55.45C281.161 54.8153 280.64 54.294 279.937 53.886C279.257 53.4553 278.396 53.24 277.353 53.24C276.492 53.2173 275.721 53.3647 275.041 53.682C274.384 53.9767 273.863 54.4073 273.477 54.974C273.115 55.5407 272.933 56.232 272.933 57.048C272.933 57.8187 273.092 58.442 273.409 58.918C273.749 59.394 274.225 59.802 274.837 60.142C275.472 60.4593 276.209 60.754 277.047 61.026C277.886 61.298 278.815 61.604 279.835 61.944C280.991 62.3293 282.011 62.8053 282.895 63.372C283.802 63.916 284.505 64.6187 285.003 65.48C285.525 66.3413 285.785 67.4407 285.785 68.778C285.785 69.9113 285.479 70.988 284.867 72.008C284.278 73.0053 283.394 73.8213 282.215 74.456C281.037 75.0907 279.552 75.408 277.761 75.408ZM295.439 75.408C294.079 75.408 292.946 75.1587 292.039 74.66C291.133 74.1387 290.453 73.4587 289.999 72.62C289.546 71.7587 289.319 70.8407 289.319 69.866C289.319 68.6873 289.614 67.69 290.203 66.874C290.815 66.0353 291.665 65.4007 292.753 64.97C293.841 64.5393 295.111 64.324 296.561 64.324H301.015C301.015 63.168 300.879 62.2047 300.607 61.434C300.335 60.6633 299.893 60.0853 299.281 59.7C298.669 59.3147 297.853 59.122 296.833 59.122C295.813 59.122 294.941 59.3827 294.215 59.904C293.49 60.4027 293.037 61.1507 292.855 62.148H289.931C290.067 60.9693 290.464 59.9833 291.121 59.19C291.779 58.374 292.606 57.762 293.603 57.354C294.623 56.9233 295.7 56.708 296.833 56.708C298.443 56.708 299.769 57.0027 300.811 57.592C301.854 58.1587 302.625 58.9633 303.123 60.006C303.622 61.026 303.871 62.2387 303.871 63.644V75H301.321L301.151 71.94C300.925 72.416 300.63 72.8693 300.267 73.3C299.927 73.708 299.519 74.0707 299.043 74.388C298.567 74.7053 298.023 74.9547 297.411 75.136C296.822 75.3173 296.165 75.408 295.439 75.408ZM295.847 72.994C296.595 72.994 297.287 72.824 297.921 72.484C298.556 72.144 299.1 71.6907 299.553 71.124C300.029 70.5347 300.392 69.8773 300.641 69.152C300.891 68.4267 301.015 67.6673 301.015 66.874V66.534H296.799C295.734 66.534 294.861 66.67 294.181 66.942C293.524 67.214 293.048 67.5993 292.753 68.098C292.459 68.574 292.311 69.118 292.311 69.73C292.311 70.3873 292.447 70.9653 292.719 71.464C292.991 71.94 293.388 72.314 293.909 72.586C294.453 72.858 295.099 72.994 295.847 72.994ZM308.59 75V50.52H311.446V75H308.59ZM323.672 75.408C322.085 75.408 320.68 75.0227 319.456 74.252C318.232 73.4813 317.268 72.3933 316.566 70.988C315.886 69.5827 315.546 67.9393 315.546 66.058C315.546 64.1767 315.886 62.5333 316.566 61.128C317.268 59.7227 318.232 58.6347 319.456 57.864C320.702 57.0933 322.13 56.708 323.74 56.708C325.462 56.708 326.902 57.0933 328.058 57.864C329.214 58.6347 330.086 59.666 330.676 60.958C331.265 62.25 331.56 63.6667 331.56 65.208C331.56 65.4347 331.56 65.6613 331.56 65.888C331.56 66.1147 331.548 66.3867 331.526 66.704H317.688V64.494H328.772C328.726 62.7487 328.216 61.4227 327.242 60.516C326.29 59.5867 325.1 59.122 323.672 59.122C322.72 59.122 321.836 59.36 321.02 59.836C320.226 60.2893 319.58 60.9693 319.082 61.876C318.583 62.7827 318.334 63.916 318.334 65.276V66.228C318.334 67.724 318.583 68.982 319.082 70.002C319.58 70.9993 320.226 71.7473 321.02 72.246C321.836 72.7447 322.72 72.994 323.672 72.994C324.941 72.994 325.938 72.756 326.664 72.28C327.389 71.7813 327.922 71.0787 328.262 70.172H331.084C330.812 71.1693 330.336 72.0647 329.656 72.858C328.998 73.6513 328.16 74.2747 327.14 74.728C326.142 75.1813 324.986 75.408 323.672 75.408ZM341.978 75.408C340.368 75.408 339.031 75.17 337.966 74.694C336.923 74.1953 336.13 73.5153 335.586 72.654C335.042 71.77 334.713 70.75 334.6 69.594H337.524C337.614 70.206 337.818 70.7727 338.136 71.294C338.476 71.7927 338.963 72.2007 339.598 72.518C340.232 72.8353 341.037 72.994 342.012 72.994C342.782 72.994 343.44 72.8807 343.984 72.654C344.528 72.4047 344.936 72.0647 345.208 71.634C345.502 71.2033 345.65 70.7047 345.65 70.138C345.65 69.39 345.48 68.812 345.14 68.404C344.822 67.9733 344.346 67.656 343.712 67.452C343.1 67.2253 342.329 67.0553 341.4 66.942C340.402 66.806 339.518 66.6133 338.748 66.364C337.977 66.1147 337.32 65.786 336.776 65.378C336.254 64.97 335.858 64.46 335.586 63.848C335.314 63.236 335.178 62.5107 335.178 61.672C335.178 60.6973 335.438 59.836 335.96 59.088C336.481 58.34 337.218 57.762 338.17 57.354C339.144 56.9233 340.289 56.708 341.604 56.708C343.53 56.708 345.049 57.15 346.16 58.034C347.293 58.918 347.962 60.176 348.166 61.808H345.344C345.23 60.9693 344.845 60.312 344.188 59.836C343.53 59.36 342.658 59.122 341.57 59.122C340.414 59.122 339.541 59.3373 338.952 59.768C338.362 60.1987 338.068 60.7653 338.068 61.468C338.068 61.9893 338.192 62.4653 338.442 62.896C338.714 63.304 339.167 63.6553 339.802 63.95C340.436 64.222 341.286 64.426 342.352 64.562C343.689 64.7207 344.822 64.9813 345.752 65.344C346.681 65.684 347.384 66.2167 347.86 66.942C348.358 67.6673 348.596 68.6533 348.574 69.9C348.574 71.0787 348.29 72.076 347.724 72.892C347.18 73.708 346.409 74.3313 345.412 74.762C344.437 75.1927 343.292 75.408 341.978 75.408ZM353.938 75.17C353.394 75.17 352.93 74.9887 352.544 74.626C352.182 74.2407 352 73.776 352 73.232C352 72.688 352.182 72.2347 352.544 71.872C352.93 71.4867 353.394 71.294 353.938 71.294C354.528 71.294 354.992 71.4867 355.332 71.872C355.695 72.2347 355.876 72.688 355.876 73.232C355.876 73.776 355.695 74.2407 355.332 74.626C354.992 74.9887 354.528 75.17 353.938 75.17ZM359.889 82.48V57.116H362.473L362.711 59.904C363.073 59.3147 363.527 58.782 364.071 58.306C364.637 57.83 365.306 57.4447 366.077 57.15C366.87 56.8553 367.777 56.708 368.797 56.708C370.406 56.708 371.811 57.116 373.013 57.932C374.237 58.748 375.189 59.8587 375.869 61.264C376.549 62.6693 376.889 64.2787 376.889 66.092C376.889 67.8827 376.549 69.4807 375.869 70.886C375.189 72.2913 374.237 73.402 373.013 74.218C371.789 75.0113 370.372 75.408 368.763 75.408C367.38 75.408 366.167 75.1247 365.125 74.558C364.082 73.9913 363.289 73.198 362.745 72.178V82.48H359.889ZM368.423 72.926C369.488 72.926 370.429 72.654 371.245 72.11C372.083 71.5433 372.741 70.75 373.217 69.73C373.715 68.6873 373.965 67.4633 373.965 66.058C373.965 64.6527 373.715 63.44 373.217 62.42C372.741 61.3773 372.083 60.584 371.245 60.04C370.429 59.4733 369.488 59.19 368.423 59.19C367.289 59.19 366.303 59.4733 365.465 60.04C364.626 60.584 363.98 61.3773 363.527 62.42C363.073 63.44 362.847 64.6527 362.847 66.058C362.847 67.4633 363.073 68.6873 363.527 69.73C363.98 70.75 364.626 71.5433 365.465 72.11C366.303 72.654 367.289 72.926 368.423 72.926ZM388.417 75.408C386.83 75.408 385.425 75 384.201 74.184C382.977 73.368 382.025 72.2573 381.345 70.852C380.665 69.424 380.325 67.8147 380.325 66.024C380.325 64.2107 380.665 62.6127 381.345 61.23C382.025 59.8247 382.977 58.7253 384.201 57.932C385.425 57.116 386.842 56.708 388.451 56.708C389.856 56.708 391.058 56.9913 392.055 57.558C393.075 58.1247 393.88 58.918 394.469 59.938V50.52H397.325V75H394.741L394.503 72.144C394.163 72.7107 393.71 73.2433 393.143 73.742C392.599 74.2407 391.93 74.6487 391.137 74.966C390.366 75.2607 389.46 75.408 388.417 75.408ZM388.791 72.926C389.924 72.926 390.91 72.654 391.749 72.11C392.588 71.5433 393.234 70.75 393.687 69.73C394.14 68.6873 394.367 67.4633 394.367 66.058C394.367 64.6527 394.14 63.44 393.687 62.42C393.234 61.3773 392.588 60.584 391.749 60.04C390.91 59.4733 389.924 59.19 388.791 59.19C387.726 59.19 386.774 59.4733 385.935 60.04C385.096 60.584 384.439 61.3773 383.963 62.42C383.487 63.44 383.249 64.6527 383.249 66.058C383.249 67.4633 383.487 68.6873 383.963 69.73C384.439 70.75 385.096 71.5433 385.935 72.11C386.774 72.654 387.726 72.926 388.791 72.926ZM403.278 75V55.212C403.278 54.124 403.46 53.24 403.822 52.56C404.185 51.8573 404.718 51.3473 405.42 51.03C406.146 50.69 407.03 50.52 408.072 50.52H410.69V52.968H408.548C407.687 52.968 407.064 53.1493 406.678 53.512C406.316 53.852 406.134 54.4527 406.134 55.314V75H403.278ZM400.49 59.53V57.116H410.894V59.53H400.49Z" fill="white"/>
<rect x="147" y="100" width="405" height="20" rx="10" fill="#2C2C2C"/>
<circle cx="82.8318" cy="194.832" r="39.8318" fill="#3B82F6"/>
<path d="M82.8315 201.449C82.5916 201.449 82.3667 201.413 82.1568 201.34C81.9469 201.267 81.752 201.143 81.5721 200.966L75.0952 194.639C74.7354 194.288 74.5627 193.878 74.5771 193.409C74.5915 192.941 74.7642 192.531 75.0952 192.179C75.4551 191.828 75.8826 191.645 76.378 191.631C76.8734 191.617 77.3004 191.785 77.659 192.135L81.0323 195.43V182.866C81.0323 182.368 81.2051 181.951 81.5505 181.615C81.8959 181.278 82.3229 181.11 82.8315 181.108C83.34 181.107 83.7676 181.276 84.1142 181.615C84.4609 181.953 84.633 182.37 84.6306 182.866V195.43L88.0039 192.135C88.3638 191.784 88.7914 191.615 89.2867 191.629C89.7821 191.643 90.2091 191.827 90.5677 192.179C90.8975 192.531 91.0702 192.941 91.0858 193.409C91.1014 193.878 90.9287 194.288 90.5677 194.639L84.0908 200.966C83.9109 201.141 83.716 201.266 83.5061 201.34C83.2962 201.414 83.0713 201.45 82.8315 201.449ZM72.0367 209.225C71.0472 209.225 70.2004 208.881 69.4964 208.193C68.7923 207.506 68.4397 206.678 68.4385 205.71V202.196C68.4385 201.698 68.6112 201.281 68.9566 200.945C69.3021 200.608 69.729 200.44 70.2376 200.439C70.7462 200.437 71.1737 200.606 71.5204 200.945C71.867 201.283 72.0391 201.7 72.0367 202.196V205.71H93.6262V202.196C93.6262 201.698 93.7989 201.281 94.1444 200.945C94.4898 200.608 94.9168 200.44 95.4253 200.439C95.9339 200.437 96.3615 200.606 96.7081 200.945C97.0547 201.283 97.2268 201.7 97.2244 202.196V205.71C97.2244 206.677 96.8724 207.505 96.1684 208.193C95.4643 208.882 94.6169 209.226 93.6262 209.225H72.0367Z" fill="white"/>
<path d="M149.45 189V165.2H152.782L160.874 181.962L168.898 165.2H172.264V189H169.408V170.334L161.928 185.872H159.786L152.306 170.47V189H149.45ZM184.987 189.408C183.332 189.408 181.87 189.023 180.601 188.252C179.331 187.481 178.345 186.393 177.643 184.988C176.94 183.583 176.589 181.939 176.589 180.058C176.589 178.154 176.94 176.511 177.643 175.128C178.368 173.723 179.365 172.635 180.635 171.864C181.927 171.093 183.4 170.708 185.055 170.708C186.732 170.708 188.194 171.093 189.441 171.864C190.71 172.635 191.696 173.723 192.399 175.128C193.101 176.511 193.453 178.154 193.453 180.058C193.453 181.939 193.09 183.583 192.365 184.988C191.662 186.393 190.676 187.481 189.407 188.252C188.137 189.023 186.664 189.408 184.987 189.408ZM184.987 186.96C186.029 186.96 186.97 186.711 187.809 186.212C188.647 185.691 189.305 184.92 189.781 183.9C190.279 182.857 190.529 181.577 190.529 180.058C190.529 178.517 190.291 177.236 189.815 176.216C189.339 175.196 188.681 174.437 187.843 173.938C187.027 173.417 186.097 173.156 185.055 173.156C184.035 173.156 183.105 173.417 182.267 173.938C181.428 174.437 180.759 175.196 180.261 176.216C179.762 177.236 179.513 178.517 179.513 180.058C179.513 181.577 179.751 182.857 180.227 183.9C180.725 184.92 181.383 185.691 182.199 186.212C183.037 186.711 183.967 186.96 184.987 186.96ZM197.59 189V171.116H200.174L200.378 174.38C200.786 173.564 201.318 172.884 201.976 172.34C202.633 171.796 203.426 171.388 204.356 171.116C205.308 170.844 206.373 170.708 207.552 170.708V173.7H205.784C205.104 173.7 204.446 173.791 203.812 173.972C203.177 174.153 202.599 174.448 202.078 174.856C201.579 175.264 201.182 175.819 200.888 176.522C200.593 177.225 200.446 178.109 200.446 179.174V189H197.59ZM217.443 196.888C215.834 196.888 214.417 196.684 213.193 196.276C211.992 195.891 211.051 195.29 210.371 194.474C209.714 193.658 209.385 192.649 209.385 191.448C209.385 190.881 209.487 190.292 209.691 189.68C209.918 189.068 210.292 188.479 210.813 187.912C211.357 187.345 212.117 186.835 213.091 186.382L215.267 187.538C213.975 188.037 213.137 188.615 212.751 189.272C212.366 189.929 212.173 190.564 212.173 191.176C212.173 191.924 212.389 192.547 212.819 193.046C213.273 193.545 213.896 193.919 214.689 194.168C215.483 194.417 216.401 194.542 217.443 194.542C218.463 194.542 219.336 194.406 220.061 194.134C220.809 193.885 221.376 193.511 221.761 193.012C222.169 192.536 222.373 191.969 222.373 191.312C222.373 190.36 222.067 189.612 221.455 189.068C220.843 188.547 219.653 188.241 217.885 188.15C216.503 188.059 215.347 187.935 214.417 187.776C213.488 187.617 212.717 187.436 212.105 187.232C211.516 187.005 211.017 186.756 210.609 186.484C210.224 186.212 209.873 185.929 209.555 185.634V184.852L212.921 181.622L215.607 182.506L211.935 185.532L212.377 184.24C212.627 184.421 212.865 184.591 213.091 184.75C213.318 184.909 213.624 185.056 214.009 185.192C214.417 185.305 214.973 185.419 215.675 185.532C216.401 185.645 217.353 185.747 218.531 185.838C220.163 185.951 221.467 186.223 222.441 186.654C223.416 187.085 224.119 187.685 224.549 188.456C224.98 189.204 225.195 190.122 225.195 191.21C225.195 192.162 224.923 193.069 224.379 193.93C223.858 194.791 223.019 195.494 221.863 196.038C220.73 196.605 219.257 196.888 217.443 196.888ZM217.409 183.424C215.959 183.424 214.723 183.152 213.703 182.608C212.706 182.041 211.947 181.282 211.425 180.33C210.904 179.355 210.643 178.267 210.643 177.066C210.643 175.865 210.904 174.788 211.425 173.836C211.969 172.884 212.74 172.125 213.737 171.558C214.757 170.991 215.981 170.708 217.409 170.708C218.883 170.708 220.118 170.991 221.115 171.558C222.113 172.125 222.872 172.884 223.393 173.836C223.915 174.788 224.175 175.865 224.175 177.066C224.175 178.267 223.915 179.355 223.393 180.33C222.872 181.282 222.113 182.041 221.115 182.608C220.118 183.152 218.883 183.424 217.409 183.424ZM217.409 181.078C218.679 181.078 219.665 180.749 220.367 180.092C221.07 179.412 221.421 178.403 221.421 177.066C221.421 175.729 221.07 174.731 220.367 174.074C219.665 173.417 218.679 173.088 217.409 173.088C216.208 173.088 215.222 173.417 214.451 174.074C213.703 174.731 213.329 175.729 213.329 177.066C213.329 178.403 213.692 179.412 214.417 180.092C215.165 180.749 216.163 181.078 217.409 181.078ZM220.401 173.53L219.551 171.116H226.555V173.258L220.401 173.53ZM235.572 189.408C234.212 189.408 233.079 189.159 232.172 188.66C231.265 188.139 230.585 187.459 230.132 186.62C229.679 185.759 229.452 184.841 229.452 183.866C229.452 182.687 229.747 181.69 230.336 180.874C230.948 180.035 231.798 179.401 232.886 178.97C233.974 178.539 235.243 178.324 236.694 178.324H241.148C241.148 177.168 241.012 176.205 240.74 175.434C240.468 174.663 240.026 174.085 239.414 173.7C238.802 173.315 237.986 173.122 236.966 173.122C235.946 173.122 235.073 173.383 234.348 173.904C233.623 174.403 233.169 175.151 232.988 176.148H230.064C230.2 174.969 230.597 173.983 231.254 173.19C231.911 172.374 232.739 171.762 233.736 171.354C234.756 170.923 235.833 170.708 236.966 170.708C238.575 170.708 239.901 171.003 240.944 171.592C241.987 172.159 242.757 172.963 243.256 174.006C243.755 175.026 244.004 176.239 244.004 177.644V189H241.454L241.284 185.94C241.057 186.416 240.763 186.869 240.4 187.3C240.06 187.708 239.652 188.071 239.176 188.388C238.7 188.705 238.156 188.955 237.544 189.136C236.955 189.317 236.297 189.408 235.572 189.408ZM235.98 186.994C236.728 186.994 237.419 186.824 238.054 186.484C238.689 186.144 239.233 185.691 239.686 185.124C240.162 184.535 240.525 183.877 240.774 183.152C241.023 182.427 241.148 181.667 241.148 180.874V180.534H236.932C235.867 180.534 234.994 180.67 234.314 180.942C233.657 181.214 233.181 181.599 232.886 182.098C232.591 182.574 232.444 183.118 232.444 183.73C232.444 184.387 232.58 184.965 232.852 185.464C233.124 185.94 233.521 186.314 234.042 186.586C234.586 186.858 235.232 186.994 235.98 186.994ZM248.723 189V171.116H251.307L251.443 173.938C251.964 172.918 252.712 172.125 253.687 171.558C254.684 170.991 255.829 170.708 257.121 170.708C258.435 170.708 259.58 170.957 260.555 171.456C261.529 171.955 262.289 172.714 262.833 173.734C263.377 174.754 263.649 176.046 263.649 177.61V189H260.793V177.916C260.793 176.329 260.396 175.139 259.603 174.346C258.832 173.553 257.789 173.156 256.475 173.156C255.591 173.156 254.775 173.371 254.027 173.802C253.279 174.21 252.678 174.822 252.225 175.638C251.794 176.454 251.579 177.451 251.579 178.63V189H248.723ZM285.33 189.408C283.584 189.408 282.066 189.091 280.774 188.456C279.482 187.821 278.484 186.937 277.782 185.804C277.079 184.671 276.728 183.356 276.728 181.86H279.72C279.72 182.789 279.935 183.651 280.366 184.444C280.796 185.215 281.42 185.838 282.236 186.314C283.074 186.767 284.106 186.994 285.33 186.994C286.395 186.994 287.302 186.824 288.05 186.484C288.82 186.121 289.398 185.634 289.784 185.022C290.192 184.41 290.396 183.719 290.396 182.948C290.396 182.087 290.203 181.373 289.818 180.806C289.455 180.217 288.945 179.741 288.288 179.378C287.63 178.993 286.871 178.653 286.01 178.358C285.148 178.063 284.219 177.757 283.222 177.44C281.227 176.805 279.776 176.012 278.87 175.06C277.986 174.085 277.544 172.839 277.544 171.32C277.544 170.028 277.838 168.895 278.428 167.92C279.04 166.945 279.901 166.186 281.012 165.642C282.145 165.075 283.482 164.792 285.024 164.792C286.542 164.792 287.857 165.075 288.968 165.642C290.101 166.209 290.985 166.991 291.62 167.988C292.254 168.963 292.572 170.096 292.572 171.388H289.58C289.58 170.731 289.41 170.085 289.07 169.45C288.73 168.815 288.208 168.294 287.506 167.886C286.826 167.455 285.964 167.24 284.922 167.24C284.06 167.217 283.29 167.365 282.61 167.682C281.952 167.977 281.431 168.407 281.046 168.974C280.683 169.541 280.502 170.232 280.502 171.048C280.502 171.819 280.66 172.442 280.978 172.918C281.318 173.394 281.794 173.802 282.406 174.142C283.04 174.459 283.777 174.754 284.616 175.026C285.454 175.298 286.384 175.604 287.404 175.944C288.56 176.329 289.58 176.805 290.464 177.372C291.37 177.916 292.073 178.619 292.572 179.48C293.093 180.341 293.354 181.441 293.354 182.778C293.354 183.911 293.048 184.988 292.436 186.008C291.846 187.005 290.962 187.821 289.784 188.456C288.605 189.091 287.12 189.408 285.33 189.408ZM303.008 189.408C301.648 189.408 300.514 189.159 299.608 188.66C298.701 188.139 298.021 187.459 297.568 186.62C297.114 185.759 296.888 184.841 296.888 183.866C296.888 182.687 297.182 181.69 297.772 180.874C298.384 180.035 299.234 179.401 300.322 178.97C301.41 178.539 302.679 178.324 304.13 178.324H308.584C308.584 177.168 308.448 176.205 308.176 175.434C307.904 174.663 307.462 174.085 306.85 173.7C306.238 173.315 305.422 173.122 304.402 173.122C303.382 173.122 302.509 173.383 301.784 173.904C301.058 174.403 300.605 175.151 300.424 176.148H297.5C297.636 174.969 298.032 173.983 298.69 173.19C299.347 172.374 300.174 171.762 301.172 171.354C302.192 170.923 303.268 170.708 304.402 170.708C306.011 170.708 307.337 171.003 308.38 171.592C309.422 172.159 310.193 172.963 310.692 174.006C311.19 175.026 311.44 176.239 311.44 177.644V189H308.89L308.72 185.94C308.493 186.416 308.198 186.869 307.836 187.3C307.496 187.708 307.088 188.071 306.612 188.388C306.136 188.705 305.592 188.955 304.98 189.136C304.39 189.317 303.733 189.408 303.008 189.408ZM303.416 186.994C304.164 186.994 304.855 186.824 305.49 186.484C306.124 186.144 306.668 185.691 307.122 185.124C307.598 184.535 307.96 183.877 308.21 183.152C308.459 182.427 308.584 181.667 308.584 180.874V180.534H304.368C303.302 180.534 302.43 180.67 301.75 180.942C301.092 181.214 300.616 181.599 300.322 182.098C300.027 182.574 299.88 183.118 299.88 183.73C299.88 184.387 300.016 184.965 300.288 185.464C300.56 185.94 300.956 186.314 301.478 186.586C302.022 186.858 302.668 186.994 303.416 186.994ZM316.158 189V164.52H319.014V189H316.158ZM331.24 189.408C329.653 189.408 328.248 189.023 327.024 188.252C325.8 187.481 324.837 186.393 324.134 184.988C323.454 183.583 323.114 181.939 323.114 180.058C323.114 178.177 323.454 176.533 324.134 175.128C324.837 173.723 325.8 172.635 327.024 171.864C328.271 171.093 329.699 170.708 331.308 170.708C333.031 170.708 334.47 171.093 335.626 171.864C336.782 172.635 337.655 173.666 338.244 174.958C338.833 176.25 339.128 177.667 339.128 179.208C339.128 179.435 339.128 179.661 339.128 179.888C339.128 180.115 339.117 180.387 339.094 180.704H325.256V178.494H336.34C336.295 176.749 335.785 175.423 334.81 174.516C333.858 173.587 332.668 173.122 331.24 173.122C330.288 173.122 329.404 173.36 328.588 173.836C327.795 174.289 327.149 174.969 326.65 175.876C326.151 176.783 325.902 177.916 325.902 179.276V180.228C325.902 181.724 326.151 182.982 326.65 184.002C327.149 184.999 327.795 185.747 328.588 186.246C329.404 186.745 330.288 186.994 331.24 186.994C332.509 186.994 333.507 186.756 334.232 186.28C334.957 185.781 335.49 185.079 335.83 184.172H338.652C338.38 185.169 337.904 186.065 337.224 186.858C336.567 187.651 335.728 188.275 334.708 188.728C333.711 189.181 332.555 189.408 331.24 189.408ZM349.546 189.408C347.937 189.408 346.599 189.17 345.534 188.694C344.491 188.195 343.698 187.515 343.154 186.654C342.61 185.77 342.281 184.75 342.168 183.594H345.092C345.183 184.206 345.387 184.773 345.704 185.294C346.044 185.793 346.531 186.201 347.166 186.518C347.801 186.835 348.605 186.994 349.58 186.994C350.351 186.994 351.008 186.881 351.552 186.654C352.096 186.405 352.504 186.065 352.776 185.634C353.071 185.203 353.218 184.705 353.218 184.138C353.218 183.39 353.048 182.812 352.708 182.404C352.391 181.973 351.915 181.656 351.28 181.452C350.668 181.225 349.897 181.055 348.968 180.942C347.971 180.806 347.087 180.613 346.316 180.364C345.545 180.115 344.888 179.786 344.344 179.378C343.823 178.97 343.426 178.46 343.154 177.848C342.882 177.236 342.746 176.511 342.746 175.672C342.746 174.697 343.007 173.836 343.528 173.088C344.049 172.34 344.786 171.762 345.738 171.354C346.713 170.923 347.857 170.708 349.172 170.708C351.099 170.708 352.617 171.15 353.728 172.034C354.861 172.918 355.53 174.176 355.734 175.808H352.912C352.799 174.969 352.413 174.312 351.756 173.836C351.099 173.36 350.226 173.122 349.138 173.122C347.982 173.122 347.109 173.337 346.52 173.768C345.931 174.199 345.636 174.765 345.636 175.468C345.636 175.989 345.761 176.465 346.01 176.896C346.282 177.304 346.735 177.655 347.37 177.95C348.005 178.222 348.855 178.426 349.92 178.562C351.257 178.721 352.391 178.981 353.32 179.344C354.249 179.684 354.952 180.217 355.428 180.942C355.927 181.667 356.165 182.653 356.142 183.9C356.142 185.079 355.859 186.076 355.292 186.892C354.748 187.708 353.977 188.331 352.98 188.762C352.005 189.193 350.861 189.408 349.546 189.408ZM361.507 189.17C360.963 189.17 360.498 188.989 360.113 188.626C359.75 188.241 359.569 187.776 359.569 187.232C359.569 186.688 359.75 186.235 360.113 185.872C360.498 185.487 360.963 185.294 361.507 185.294C362.096 185.294 362.561 185.487 362.901 185.872C363.263 186.235 363.445 186.688 363.445 187.232C363.445 187.776 363.263 188.241 362.901 188.626C362.561 188.989 362.096 189.17 361.507 189.17ZM367.457 196.48V171.116H370.041L370.279 173.904C370.642 173.315 371.095 172.782 371.639 172.306C372.206 171.83 372.874 171.445 373.645 171.15C374.438 170.855 375.345 170.708 376.365 170.708C377.974 170.708 379.38 171.116 380.581 171.932C381.805 172.748 382.757 173.859 383.437 175.264C384.117 176.669 384.457 178.279 384.457 180.092C384.457 181.883 384.117 183.481 383.437 184.886C382.757 186.291 381.805 187.402 380.581 188.218C379.357 189.011 377.94 189.408 376.331 189.408C374.948 189.408 373.736 189.125 372.693 188.558C371.65 187.991 370.857 187.198 370.313 186.178V196.48H367.457ZM375.991 186.926C377.056 186.926 377.997 186.654 378.813 186.11C379.652 185.543 380.309 184.75 380.785 183.73C381.284 182.687 381.533 181.463 381.533 180.058C381.533 178.653 381.284 177.44 380.785 176.42C380.309 175.377 379.652 174.584 378.813 174.04C377.997 173.473 377.056 173.19 375.991 173.19C374.858 173.19 373.872 173.473 373.033 174.04C372.194 174.584 371.548 175.377 371.095 176.42C370.642 177.44 370.415 178.653 370.415 180.058C370.415 181.463 370.642 182.687 371.095 183.73C371.548 184.75 372.194 185.543 373.033 186.11C373.872 186.654 374.858 186.926 375.991 186.926ZM395.985 189.408C394.399 189.408 392.993 189 391.769 188.184C390.545 187.368 389.593 186.257 388.913 184.852C388.233 183.424 387.893 181.815 387.893 180.024C387.893 178.211 388.233 176.613 388.913 175.23C389.593 173.825 390.545 172.725 391.769 171.932C392.993 171.116 394.41 170.708 396.019 170.708C397.425 170.708 398.626 170.991 399.623 171.558C400.643 172.125 401.448 172.918 402.037 173.938V164.52H404.893V189H402.309L402.071 186.144C401.731 186.711 401.278 187.243 400.711 187.742C400.167 188.241 399.499 188.649 398.705 188.966C397.935 189.261 397.028 189.408 395.985 189.408ZM396.359 186.926C397.493 186.926 398.479 186.654 399.317 186.11C400.156 185.543 400.802 184.75 401.255 183.73C401.709 182.687 401.935 181.463 401.935 180.058C401.935 178.653 401.709 177.44 401.255 176.42C400.802 175.377 400.156 174.584 399.317 174.04C398.479 173.473 397.493 173.19 396.359 173.19C395.294 173.19 394.342 173.473 393.503 174.04C392.665 174.584 392.007 175.377 391.531 176.42C391.055 177.44 390.817 178.653 390.817 180.058C390.817 181.463 391.055 182.687 391.531 183.73C392.007 184.75 392.665 185.543 393.503 186.11C394.342 186.654 395.294 186.926 396.359 186.926ZM410.847 189V169.212C410.847 168.124 411.028 167.24 411.391 166.56C411.753 165.857 412.286 165.347 412.989 165.03C413.714 164.69 414.598 164.52 415.641 164.52H418.259V166.968H416.117C415.255 166.968 414.632 167.149 414.247 167.512C413.884 167.852 413.703 168.453 413.703 169.314V189H410.847ZM408.059 173.53V171.116H418.463V173.53H408.059Z" fill="white"/>
<rect x="146.832" y="214" width="405" height="20" rx="10" fill="#2C2C2C"/>
<circle cx="82.8318" cy="308.832" r="39.8318" fill="#3B82F6"/>
<path d="M82.8315 315.449C82.5916 315.449 82.3667 315.413 82.1568 315.34C81.9469 315.267 81.752 315.143 81.5721 314.966L75.0952 308.639C74.7354 308.288 74.5627 307.878 74.5771 307.409C74.5915 306.941 74.7642 306.531 75.0952 306.179C75.4551 305.828 75.8826 305.645 76.378 305.631C76.8734 305.617 77.3004 305.785 77.659 306.135L81.0323 309.43V296.866C81.0323 296.368 81.2051 295.951 81.5505 295.615C81.8959 295.278 82.3229 295.11 82.8315 295.108C83.34 295.107 83.7676 295.276 84.1142 295.615C84.4609 295.953 84.633 296.37 84.6306 296.866V309.43L88.0039 306.135C88.3638 305.784 88.7914 305.615 89.2867 305.629C89.7821 305.643 90.2091 305.827 90.5677 306.179C90.8975 306.531 91.0702 306.941 91.0858 307.409C91.1014 307.878 90.9287 308.288 90.5677 308.639L84.0908 314.966C83.9109 315.141 83.716 315.266 83.5061 315.34C83.2962 315.414 83.0713 315.45 82.8315 315.449ZM72.0367 323.225C71.0472 323.225 70.2004 322.881 69.4964 322.193C68.7923 321.506 68.4397 320.678 68.4385 319.71V316.196C68.4385 315.698 68.6112 315.281 68.9566 314.945C69.3021 314.608 69.729 314.44 70.2376 314.439C70.7462 314.437 71.1737 314.606 71.5204 314.945C71.867 315.283 72.0391 315.7 72.0367 316.196V319.71H93.6262V316.196C93.6262 315.698 93.7989 315.281 94.1444 314.945C94.4898 314.608 94.9168 314.44 95.4253 314.439C95.9339 314.437 96.3615 314.606 96.7081 314.945C97.0547 315.283 97.2268 315.7 97.2244 316.196V319.71C97.2244 320.677 96.8724 321.505 96.1684 322.193C95.4643 322.882 94.6169 323.226 93.6262 323.225H72.0367Z" fill="white"/>
<path d="M149.45 303V279.2H152.782L160.874 295.962L168.898 279.2H172.264V303H169.408V284.334L161.928 299.872H159.786L152.306 284.47V303H149.45ZM182.879 303.408C181.519 303.408 180.385 303.159 179.479 302.66C178.572 302.139 177.892 301.459 177.439 300.62C176.985 299.759 176.759 298.841 176.759 297.866C176.759 296.687 177.053 295.69 177.643 294.874C178.255 294.035 179.105 293.401 180.193 292.97C181.281 292.539 182.55 292.324 184.001 292.324H188.455C188.455 291.168 188.319 290.205 188.047 289.434C187.775 288.663 187.333 288.085 186.721 287.7C186.109 287.315 185.293 287.122 184.273 287.122C183.253 287.122 182.38 287.383 181.655 287.904C180.929 288.403 180.476 289.151 180.295 290.148H177.371C177.507 288.969 177.903 287.983 178.561 287.19C179.218 286.374 180.045 285.762 181.043 285.354C182.063 284.923 183.139 284.708 184.273 284.708C185.882 284.708 187.208 285.003 188.251 285.592C189.293 286.159 190.064 286.963 190.563 288.006C191.061 289.026 191.311 290.239 191.311 291.644V303H188.761L188.591 299.94C188.364 300.416 188.069 300.869 187.707 301.3C187.367 301.708 186.959 302.071 186.483 302.388C186.007 302.705 185.463 302.955 184.851 303.136C184.261 303.317 183.604 303.408 182.879 303.408ZM183.287 300.994C184.035 300.994 184.726 300.824 185.361 300.484C185.995 300.144 186.539 299.691 186.993 299.124C187.469 298.535 187.831 297.877 188.081 297.152C188.33 296.427 188.455 295.667 188.455 294.874V294.534H184.239C183.173 294.534 182.301 294.67 181.621 294.942C180.963 295.214 180.487 295.599 180.193 296.098C179.898 296.574 179.751 297.118 179.751 297.73C179.751 298.387 179.887 298.965 180.159 299.464C180.431 299.94 180.827 300.314 181.349 300.586C181.893 300.858 182.539 300.994 183.287 300.994ZM196.029 303V285.116H198.613L198.817 288.38C199.225 287.564 199.758 286.884 200.415 286.34C201.073 285.796 201.866 285.388 202.795 285.116C203.747 284.844 204.813 284.708 205.991 284.708V287.7H204.223C203.543 287.7 202.886 287.791 202.251 287.972C201.617 288.153 201.039 288.448 200.517 288.856C200.019 289.264 199.622 289.819 199.327 290.522C199.033 291.225 198.885 292.109 198.885 293.174V303H196.029ZM219.783 303L211.657 293.344L219.307 285.116H222.809L214.071 294.364L214.105 292.324L223.421 303H219.783ZM209.277 303V278.52H212.133V303H209.277ZM232.627 303.408C231.04 303.408 229.635 303.023 228.411 302.252C227.187 301.481 226.223 300.393 225.521 298.988C224.841 297.583 224.501 295.939 224.501 294.058C224.501 292.177 224.841 290.533 225.521 289.128C226.223 287.723 227.187 286.635 228.411 285.864C229.657 285.093 231.085 284.708 232.695 284.708C234.417 284.708 235.857 285.093 237.013 285.864C238.169 286.635 239.041 287.666 239.631 288.958C240.22 290.25 240.515 291.667 240.515 293.208C240.515 293.435 240.515 293.661 240.515 293.888C240.515 294.115 240.503 294.387 240.481 294.704H226.643V292.494H237.727C237.681 290.749 237.171 289.423 236.197 288.516C235.245 287.587 234.055 287.122 232.627 287.122C231.675 287.122 230.791 287.36 229.975 287.836C229.181 288.289 228.535 288.969 228.037 289.876C227.538 290.783 227.289 291.916 227.289 293.276V294.228C227.289 295.724 227.538 296.982 228.037 298.002C228.535 298.999 229.181 299.747 229.975 300.246C230.791 300.745 231.675 300.994 232.627 300.994C233.896 300.994 234.893 300.756 235.619 300.28C236.344 299.781 236.877 299.079 237.217 298.172H240.039C239.767 299.169 239.291 300.065 238.611 300.858C237.953 301.651 237.115 302.275 236.095 302.728C235.097 303.181 233.941 303.408 232.627 303.408ZM250.844 303C249.824 303 248.94 302.841 248.192 302.524C247.444 302.207 246.866 301.674 246.458 300.926C246.073 300.155 245.88 299.124 245.88 297.832V287.53H242.752V285.116H245.88L246.254 280.662H248.736V285.116H253.802V287.53H248.736V297.832C248.736 298.897 248.951 299.623 249.382 300.008C249.813 300.371 250.572 300.552 251.66 300.552H253.734V303H250.844ZM257.993 303V285.116H260.849V303H257.993ZM259.421 281.716C258.854 281.716 258.378 281.535 257.993 281.172C257.63 280.787 257.449 280.311 257.449 279.744C257.449 279.177 257.63 278.724 257.993 278.384C258.378 278.021 258.854 277.84 259.421 277.84C259.965 277.84 260.429 278.021 260.815 278.384C261.2 278.724 261.393 279.177 261.393 279.744C261.393 280.311 261.2 280.787 260.815 281.172C260.429 281.535 259.965 281.716 259.421 281.716ZM265.922 303V285.116H268.506L268.642 287.938C269.163 286.918 269.911 286.125 270.886 285.558C271.883 284.991 273.028 284.708 274.32 284.708C275.634 284.708 276.779 284.957 277.754 285.456C278.728 285.955 279.488 286.714 280.032 287.734C280.576 288.754 280.848 290.046 280.848 291.61V303H277.992V291.916C277.992 290.329 277.595 289.139 276.802 288.346C276.031 287.553 274.988 287.156 273.674 287.156C272.79 287.156 271.974 287.371 271.226 287.802C270.478 288.21 269.877 288.822 269.424 289.638C268.993 290.454 268.778 291.451 268.778 292.63V303H265.922ZM292.582 310.888C290.973 310.888 289.556 310.684 288.332 310.276C287.131 309.891 286.19 309.29 285.51 308.474C284.853 307.658 284.524 306.649 284.524 305.448C284.524 304.881 284.626 304.292 284.83 303.68C285.057 303.068 285.431 302.479 285.952 301.912C286.496 301.345 287.255 300.835 288.23 300.382L290.406 301.538C289.114 302.037 288.275 302.615 287.89 303.272C287.505 303.929 287.312 304.564 287.312 305.176C287.312 305.924 287.527 306.547 287.958 307.046C288.411 307.545 289.035 307.919 289.828 308.168C290.621 308.417 291.539 308.542 292.582 308.542C293.602 308.542 294.475 308.406 295.2 308.134C295.948 307.885 296.515 307.511 296.9 307.012C297.308 306.536 297.512 305.969 297.512 305.312C297.512 304.36 297.206 303.612 296.594 303.068C295.982 302.547 294.792 302.241 293.024 302.15C291.641 302.059 290.485 301.935 289.556 301.776C288.627 301.617 287.856 301.436 287.244 301.232C286.655 301.005 286.156 300.756 285.748 300.484C285.363 300.212 285.011 299.929 284.694 299.634V298.852L288.06 295.622L290.746 296.506L287.074 299.532L287.516 298.24C287.765 298.421 288.003 298.591 288.23 298.75C288.457 298.909 288.763 299.056 289.148 299.192C289.556 299.305 290.111 299.419 290.814 299.532C291.539 299.645 292.491 299.747 293.67 299.838C295.302 299.951 296.605 300.223 297.58 300.654C298.555 301.085 299.257 301.685 299.688 302.456C300.119 303.204 300.334 304.122 300.334 305.21C300.334 306.162 300.062 307.069 299.518 307.93C298.997 308.791 298.158 309.494 297.002 310.038C295.869 310.605 294.395 310.888 292.582 310.888ZM292.548 297.424C291.097 297.424 289.862 297.152 288.842 296.608C287.845 296.041 287.085 295.282 286.564 294.33C286.043 293.355 285.782 292.267 285.782 291.066C285.782 289.865 286.043 288.788 286.564 287.836C287.108 286.884 287.879 286.125 288.876 285.558C289.896 284.991 291.12 284.708 292.548 284.708C294.021 284.708 295.257 284.991 296.254 285.558C297.251 286.125 298.011 286.884 298.532 287.836C299.053 288.788 299.314 289.865 299.314 291.066C299.314 292.267 299.053 293.355 298.532 294.33C298.011 295.282 297.251 296.041 296.254 296.608C295.257 297.152 294.021 297.424 292.548 297.424ZM292.548 295.078C293.817 295.078 294.803 294.749 295.506 294.092C296.209 293.412 296.56 292.403 296.56 291.066C296.56 289.729 296.209 288.731 295.506 288.074C294.803 287.417 293.817 287.088 292.548 287.088C291.347 287.088 290.361 287.417 289.59 288.074C288.842 288.731 288.468 289.729 288.468 291.066C288.468 292.403 288.831 293.412 289.556 294.092C290.304 294.749 291.301 295.078 292.548 295.078ZM295.54 287.53L294.69 285.116H301.694V287.258L295.54 287.53ZM314.266 303V285.116H316.85L316.986 287.564C317.53 286.68 318.266 285.989 319.196 285.49C320.125 284.969 321.1 284.708 322.12 284.708C322.981 284.708 323.752 284.833 324.432 285.082C325.134 285.309 325.746 285.671 326.268 286.17C326.789 286.646 327.208 287.247 327.526 287.972C328.115 286.907 328.908 286.102 329.906 285.558C330.926 284.991 331.991 284.708 333.102 284.708C334.416 284.708 335.538 284.969 336.468 285.49C337.42 285.989 338.145 286.759 338.644 287.802C339.165 288.822 339.426 290.103 339.426 291.644V303H336.604V291.95C336.604 290.341 336.252 289.139 335.55 288.346C334.847 287.553 333.895 287.156 332.694 287.156C331.878 287.156 331.13 287.371 330.45 287.802C329.792 288.233 329.26 288.867 328.852 289.706C328.466 290.545 328.274 291.565 328.274 292.766V303H325.418V291.95C325.418 290.341 325.066 289.139 324.364 288.346C323.661 287.553 322.72 287.156 321.542 287.156C320.748 287.156 320.012 287.371 319.332 287.802C318.674 288.233 318.142 288.867 317.734 289.706C317.326 290.545 317.122 291.565 317.122 292.766V303H314.266ZM349.724 303.408C348.364 303.408 347.231 303.159 346.324 302.66C345.418 302.139 344.738 301.459 344.284 300.62C343.831 299.759 343.604 298.841 343.604 297.866C343.604 296.687 343.899 295.69 344.488 294.874C345.1 294.035 345.95 293.401 347.038 292.97C348.126 292.539 349.396 292.324 350.846 292.324H355.3C355.3 291.168 355.164 290.205 354.892 289.434C354.62 288.663 354.178 288.085 353.566 287.7C352.954 287.315 352.138 287.122 351.118 287.122C350.098 287.122 349.226 287.383 348.5 287.904C347.775 288.403 347.322 289.151 347.14 290.148H344.216C344.352 288.969 344.749 287.983 345.406 287.19C346.064 286.374 346.891 285.762 347.888 285.354C348.908 284.923 349.985 284.708 351.118 284.708C352.728 284.708 354.054 285.003 355.096 285.592C356.139 286.159 356.91 286.963 357.408 288.006C357.907 289.026 358.156 290.239 358.156 291.644V303H355.606L355.436 299.94C355.21 300.416 354.915 300.869 354.552 301.3C354.212 301.708 353.804 302.071 353.328 302.388C352.852 302.705 352.308 302.955 351.696 303.136C351.107 303.317 350.45 303.408 349.724 303.408ZM350.132 300.994C350.88 300.994 351.572 300.824 352.206 300.484C352.841 300.144 353.385 299.691 353.838 299.124C354.314 298.535 354.677 297.877 354.926 297.152C355.176 296.427 355.3 295.667 355.3 294.874V294.534H351.084C350.019 294.534 349.146 294.67 348.466 294.942C347.809 295.214 347.333 295.599 347.038 296.098C346.744 296.574 346.596 297.118 346.596 297.73C346.596 298.387 346.732 298.965 347.004 299.464C347.276 299.94 347.673 300.314 348.194 300.586C348.738 300.858 349.384 300.994 350.132 300.994ZM363.147 303V285.116H366.003V303H363.147ZM364.575 281.716C364.008 281.716 363.532 281.535 363.147 281.172C362.784 280.787 362.603 280.311 362.603 279.744C362.603 279.177 362.784 278.724 363.147 278.384C363.532 278.021 364.008 277.84 364.575 277.84C365.119 277.84 365.584 278.021 365.969 278.384C366.354 278.724 366.547 279.177 366.547 279.744C366.547 280.311 366.354 280.787 365.969 281.172C365.584 281.535 365.119 281.716 364.575 281.716ZM371.076 303V278.52H373.932V303H371.076ZM385.206 303.408C383.597 303.408 382.259 303.17 381.194 302.694C380.151 302.195 379.358 301.515 378.814 300.654C378.27 299.77 377.941 298.75 377.828 297.594H380.752C380.843 298.206 381.047 298.773 381.364 299.294C381.704 299.793 382.191 300.201 382.826 300.518C383.461 300.835 384.265 300.994 385.24 300.994C386.011 300.994 386.668 300.881 387.212 300.654C387.756 300.405 388.164 300.065 388.436 299.634C388.731 299.203 388.878 298.705 388.878 298.138C388.878 297.39 388.708 296.812 388.368 296.404C388.051 295.973 387.575 295.656 386.94 295.452C386.328 295.225 385.557 295.055 384.628 294.942C383.631 294.806 382.747 294.613 381.976 294.364C381.205 294.115 380.548 293.786 380.004 293.378C379.483 292.97 379.086 292.46 378.814 291.848C378.542 291.236 378.406 290.511 378.406 289.672C378.406 288.697 378.667 287.836 379.188 287.088C379.709 286.34 380.446 285.762 381.398 285.354C382.373 284.923 383.517 284.708 384.832 284.708C386.759 284.708 388.277 285.15 389.388 286.034C390.521 286.918 391.19 288.176 391.394 289.808H388.572C388.459 288.969 388.073 288.312 387.416 287.836C386.759 287.36 385.886 287.122 384.798 287.122C383.642 287.122 382.769 287.337 382.18 287.768C381.591 288.199 381.296 288.765 381.296 289.468C381.296 289.989 381.421 290.465 381.67 290.896C381.942 291.304 382.395 291.655 383.03 291.95C383.665 292.222 384.515 292.426 385.58 292.562C386.917 292.721 388.051 292.981 388.98 293.344C389.909 293.684 390.612 294.217 391.088 294.942C391.587 295.667 391.825 296.653 391.802 297.9C391.802 299.079 391.519 300.076 390.952 300.892C390.408 301.708 389.637 302.331 388.64 302.762C387.665 303.193 386.521 303.408 385.206 303.408ZM397.167 303.17C396.623 303.17 396.158 302.989 395.773 302.626C395.41 302.241 395.229 301.776 395.229 301.232C395.229 300.688 395.41 300.235 395.773 299.872C396.158 299.487 396.623 299.294 397.167 299.294C397.756 299.294 398.221 299.487 398.561 299.872C398.924 300.235 399.105 300.688 399.105 301.232C399.105 301.776 398.924 302.241 398.561 302.626C398.221 302.989 397.756 303.17 397.167 303.17ZM403.117 310.48V285.116H405.701L405.939 287.904C406.302 287.315 406.755 286.782 407.299 286.306C407.866 285.83 408.534 285.445 409.305 285.15C410.098 284.855 411.005 284.708 412.025 284.708C413.634 284.708 415.04 285.116 416.241 285.932C417.465 286.748 418.417 287.859 419.097 289.264C419.777 290.669 420.117 292.279 420.117 294.092C420.117 295.883 419.777 297.481 419.097 298.886C418.417 300.291 417.465 301.402 416.241 302.218C415.017 303.011 413.6 303.408 411.991 303.408C410.608 303.408 409.396 303.125 408.353 302.558C407.31 301.991 406.517 301.198 405.973 300.178V310.48H403.117ZM411.651 300.926C412.716 300.926 413.657 300.654 414.473 300.11C415.312 299.543 415.969 298.75 416.445 297.73C416.944 296.687 417.193 295.463 417.193 294.058C417.193 292.653 416.944 291.44 416.445 290.42C415.969 289.377 415.312 288.584 414.473 288.04C413.657 287.473 412.716 287.19 411.651 287.19C410.518 287.19 409.532 287.473 408.693 288.04C407.854 288.584 407.208 289.377 406.755 290.42C406.302 291.44 406.075 292.653 406.075 294.058C406.075 295.463 406.302 296.687 406.755 297.73C407.208 298.75 407.854 299.543 408.693 300.11C409.532 300.654 410.518 300.926 411.651 300.926ZM431.646 303.408C430.059 303.408 428.654 303 427.43 302.184C426.206 301.368 425.254 300.257 424.574 298.852C423.894 297.424 423.554 295.815 423.554 294.024C423.554 292.211 423.894 290.613 424.574 289.23C425.254 287.825 426.206 286.725 427.43 285.932C428.654 285.116 430.07 284.708 431.68 284.708C433.085 284.708 434.286 284.991 435.284 285.558C436.304 286.125 437.108 286.918 437.698 287.938V278.52H440.554V303H437.97L437.732 300.144C437.392 300.711 436.938 301.243 436.372 301.742C435.828 302.241 435.159 302.649 434.366 302.966C433.595 303.261 432.688 303.408 431.646 303.408ZM432.02 300.926C433.153 300.926 434.139 300.654 434.978 300.11C435.816 299.543 436.462 298.75 436.916 297.73C437.369 296.687 437.596 295.463 437.596 294.058C437.596 292.653 437.369 291.44 436.916 290.42C436.462 289.377 435.816 288.584 434.978 288.04C434.139 287.473 433.153 287.19 432.02 287.19C430.954 287.19 430.002 287.473 429.164 288.04C428.325 288.584 427.668 289.377 427.192 290.42C426.716 291.44 426.478 292.653 426.478 294.058C426.478 295.463 426.716 296.687 427.192 297.73C427.668 298.75 428.325 299.543 429.164 300.11C430.002 300.654 430.954 300.926 432.02 300.926ZM446.507 303V283.212C446.507 282.124 446.688 281.24 447.051 280.56C447.413 279.857 447.946 279.347 448.649 279.03C449.374 278.69 450.258 278.52 451.301 278.52H453.919V280.968H451.777C450.915 280.968 450.292 281.149 449.907 281.512C449.544 281.852 449.363 282.453 449.363 283.314V303H446.507ZM443.719 287.53V285.116H454.123V287.53H443.719Z" fill="white"/>
<rect x="146.832" y="328" width="405" height="20" rx="10" fill="#2C2C2C"/>
</svg>
