<svg width="1381" height="817" viewBox="0 0 1381 817" fill="none" xmlns="http://www.w3.org/2000/svg">
<line x1="133" y1="601" x2="1245" y2="601" stroke="url(#paint0_linear_678_227)" stroke-opacity="0.8" stroke-width="4" stroke-dasharray="15 15"/>
<line x1="231" y1="708" x2="1343" y2="708" stroke="url(#paint1_linear_678_227)" stroke-opacity="0.8" stroke-width="4" stroke-dasharray="15 15"/>
<line x1="269" y1="815" x2="1381" y2="815" stroke="url(#paint2_linear_678_227)" stroke-opacity="0.8" stroke-width="4" stroke-dasharray="15 15"/>
<rect x="108" y="2" width="1159" height="360" rx="73" fill="#171717" stroke="#262626" stroke-width="4"/>
<rect x="185" y="63.0977" width="359" height="254.805" rx="38" fill="#020202"/>
<path d="M414.963 189.555C414.783 188.671 414.356 187.856 413.733 187.204C413.109 186.552 412.313 186.091 411.438 185.873L378.677 177.678L390.793 149.401C391.214 148.42 391.293 147.326 391.018 146.294C390.744 145.262 390.132 144.352 389.279 143.709C388.427 143.062 387.382 142.722 386.313 142.743C385.244 142.764 384.213 143.144 383.386 143.823L330.854 186.804C330.169 187.364 329.653 188.104 329.364 188.941C329.075 189.778 329.024 190.678 329.218 191.542C329.411 192.406 329.84 193.2 330.458 193.834C331.076 194.467 331.858 194.917 332.717 195.132L364.804 203.16L348.83 231.117C348.416 231.843 348.2 232.665 348.204 233.5C348.207 234.336 348.43 235.156 348.849 235.879C349.269 236.601 349.871 237.201 350.595 237.618C351.319 238.036 352.139 238.256 352.975 238.256C354.008 238.256 355.014 237.921 355.84 237.301L413.148 194.321C413.87 193.779 414.423 193.044 414.745 192.2C415.066 191.357 415.141 190.439 414.963 189.555Z" fill="#3B82F6"/>
<path d="M638.807 75.6364V112H634.403V75.6364H638.807ZM676.471 75.6364V112H672.21L652.394 83.4489H652.039V112H647.636V75.6364H651.897L671.784 104.259H672.139V75.6364H676.471ZM699.345 112V75.6364H711.632C714.473 75.6364 716.805 76.1217 718.627 77.0923C720.45 78.0511 721.8 79.371 722.676 81.0518C723.552 82.7327 723.99 84.6444 723.99 86.7869C723.99 88.9295 723.552 90.8293 722.676 92.4865C721.8 94.1437 720.456 95.4458 718.645 96.3928C716.834 97.3279 714.52 97.7955 711.703 97.7955H701.76V93.8182H711.561C713.502 93.8182 715.065 93.5341 716.248 92.9659C717.444 92.3977 718.308 91.5928 718.841 90.5511C719.385 89.4976 719.657 88.2429 719.657 86.7869C719.657 85.331 719.385 84.0585 718.841 82.9695C718.296 81.8804 717.426 81.04 716.23 80.4482C715.035 79.8445 713.455 79.5426 711.49 79.5426H703.748V112H699.345ZM716.461 95.6648L725.41 112H720.297L711.49 95.6648H716.461ZM731.327 112V75.6364H753.273V79.5426H735.731V91.8295H752.137V95.7358H735.731V108.094H753.557V112H731.327ZM762.702 75.6364L773.497 106.247H773.923L784.719 75.6364H789.335L775.983 112H771.437L758.085 75.6364H762.702ZM799.403 75.6364V112H794.999V75.6364H799.403ZM808.232 112V75.6364H830.178V79.5426H812.635V91.8295H829.041V95.7358H812.635V108.094H830.462V112H808.232ZM844.719 112L834.776 75.6364H839.251L846.85 105.253H847.205L854.947 75.6364H859.918L867.66 105.253H868.015L875.614 75.6364H880.089L870.146 112H865.6L857.575 83.0227H857.29L849.265 112H844.719Z" fill="#404040"/>
<circle cx="599.5" cy="93.5" r="19.5" fill="#404040"/>
<g filter="url(#filter0_d_678_227)">
<rect x="34" y="106" width="1307" height="406" rx="73" fill="#171717" stroke="#262626" stroke-width="4"/>
<path d="M565.24 337V281.38H546.61V274H592.96V281.38H574.24V337H565.24ZM614.238 338.08C609.978 338.08 606.138 337.09 602.718 335.11C599.358 333.13 596.688 330.37 594.708 326.83C592.788 323.23 591.828 319.09 591.828 314.41C591.828 309.61 592.818 305.44 594.798 301.9C596.778 298.3 599.478 295.51 602.898 293.53C606.318 291.55 610.158 290.56 614.418 290.56C618.738 290.56 622.578 291.55 625.938 293.53C629.298 295.51 631.938 298.27 633.858 301.81C635.838 305.35 636.828 309.52 636.828 314.32C636.828 319.12 635.838 323.29 633.858 326.83C631.938 330.37 629.268 333.13 625.848 335.11C622.428 337.09 618.558 338.08 614.238 338.08ZM614.238 330.34C616.698 330.34 618.918 329.74 620.898 328.54C622.938 327.34 624.558 325.57 625.758 323.23C627.018 320.83 627.648 317.86 627.648 314.32C627.648 310.78 627.048 307.84 625.848 305.5C624.648 303.1 623.028 301.3 620.988 300.1C619.008 298.9 616.818 298.3 614.418 298.3C612.018 298.3 609.798 298.9 607.758 300.1C605.718 301.3 604.068 303.1 602.808 305.5C601.608 307.84 601.008 310.78 601.008 314.32C601.008 317.86 601.608 320.83 602.808 323.23C604.068 325.57 605.688 327.34 607.668 328.54C609.708 329.74 611.898 330.34 614.238 330.34ZM647.415 356.8V291.64H655.515L656.415 298.66C657.375 297.28 658.575 295.99 660.015 294.79C661.455 293.53 663.165 292.51 665.145 291.73C667.185 290.95 669.555 290.56 672.255 290.56C676.575 290.56 680.355 291.61 683.595 293.71C686.895 295.81 689.445 298.66 691.245 302.26C693.105 305.8 694.035 309.85 694.035 314.41C694.035 318.97 693.105 323.05 691.245 326.65C689.385 330.19 686.805 332.98 683.505 335.02C680.265 337.06 676.485 338.08 672.165 338.08C668.625 338.08 665.505 337.39 662.805 336.01C660.105 334.57 657.975 332.59 656.415 330.07V356.8H647.415ZM670.725 330.25C673.485 330.25 675.915 329.59 678.015 328.27C680.175 326.95 681.855 325.09 683.055 322.69C684.315 320.29 684.945 317.5 684.945 314.32C684.945 311.14 684.315 308.38 683.055 306.04C681.855 303.64 680.175 301.78 678.015 300.46C675.915 299.08 673.485 298.39 670.725 298.39C667.905 298.39 665.415 299.08 663.255 300.46C661.155 301.78 659.505 303.64 658.305 306.04C657.105 308.38 656.505 311.14 656.505 314.32C656.505 317.5 657.105 320.29 658.305 322.69C659.505 325.09 661.155 326.95 663.255 328.27C665.415 329.59 667.905 330.25 670.725 330.25ZM746.291 337C743.411 337 740.921 336.55 738.821 335.65C736.721 334.75 735.101 333.25 733.961 331.15C732.821 329.05 732.251 326.2 732.251 322.6V299.29H724.421V291.64H732.251L733.331 280.3H741.251V291.64H754.121V299.29H741.251V322.69C741.251 325.27 741.791 327.04 742.871 328C743.951 328.9 745.811 329.35 748.451 329.35H753.671V337H746.291ZM764.046 337V291.64H772.146L772.956 300.19C773.976 298.15 775.296 296.44 776.916 295.06C778.536 293.62 780.426 292.51 782.586 291.73C784.806 290.95 787.326 290.56 790.146 290.56V300.1H786.906C785.046 300.1 783.276 300.34 781.596 300.82C779.916 301.24 778.416 301.99 777.096 303.07C775.836 304.15 774.846 305.62 774.126 307.48C773.406 309.34 773.046 311.65 773.046 314.41V337H764.046ZM817.613 338.08C813.293 338.08 809.453 337.09 806.093 335.11C802.733 333.13 800.093 330.37 798.173 326.83C796.313 323.29 795.383 319.18 795.383 314.5C795.383 309.7 796.313 305.53 798.173 301.99C800.093 298.39 802.733 295.6 806.093 293.62C809.453 291.58 813.353 290.56 817.793 290.56C822.233 290.56 826.043 291.55 829.223 293.53C832.403 295.51 834.863 298.15 836.603 301.45C838.343 304.69 839.213 308.29 839.213 312.25C839.213 312.85 839.183 313.51 839.123 314.23C839.123 314.89 839.093 315.64 839.033 316.48H801.953V310.09H830.213C830.033 306.31 828.773 303.37 826.433 301.27C824.093 299.11 821.183 298.03 817.703 298.03C815.243 298.03 812.993 298.6 810.953 299.74C808.913 300.82 807.263 302.44 806.003 304.6C804.803 306.7 804.203 309.37 804.203 312.61V315.13C804.203 318.49 804.803 321.34 806.003 323.68C807.263 325.96 808.913 327.7 810.953 328.9C812.993 330.04 815.213 330.61 817.613 330.61C820.493 330.61 822.863 329.98 824.723 328.72C826.583 327.46 827.963 325.75 828.863 323.59H837.863C837.083 326.35 835.763 328.84 833.903 331.06C832.043 333.22 829.733 334.93 826.973 336.19C824.273 337.45 821.153 338.08 817.613 338.08ZM849.212 337V291.64H857.312L857.852 299.38C859.292 296.68 861.332 294.55 863.972 292.99C866.612 291.37 869.642 290.56 873.062 290.56C876.662 290.56 879.752 291.28 882.332 292.72C884.912 294.16 886.922 296.35 888.362 299.29C889.802 302.17 890.522 305.8 890.522 310.18V337H881.522V311.08C881.522 306.88 880.592 303.7 878.732 301.54C876.872 299.38 874.172 298.3 870.632 298.3C868.292 298.3 866.192 298.87 864.332 300.01C862.472 301.09 860.972 302.71 859.832 304.87C858.752 307.03 858.212 309.67 858.212 312.79V337H849.212ZM922.194 338.08C917.874 338.08 914.064 337.06 910.764 335.02C907.464 332.92 904.884 330.1 903.024 326.56C901.224 322.96 900.324 318.88 900.324 314.32C900.324 309.7 901.224 305.62 903.024 302.08C904.884 298.54 907.464 295.75 910.764 293.71C914.124 291.61 917.964 290.56 922.284 290.56C925.824 290.56 928.944 291.28 931.644 292.72C934.344 294.1 936.444 296.08 937.944 298.66V272.2H946.944V337H938.844L937.944 329.98C937.044 331.36 935.874 332.68 934.434 333.94C932.994 335.14 931.254 336.13 929.214 336.91C927.174 337.69 924.834 338.08 922.194 338.08ZM923.634 330.25C926.454 330.25 928.944 329.59 931.104 328.27C933.264 326.95 934.914 325.09 936.054 322.69C937.254 320.29 937.854 317.5 937.854 314.32C937.854 311.14 937.254 308.38 936.054 306.04C934.914 303.64 933.264 301.78 931.104 300.46C928.944 299.08 926.454 298.39 923.634 298.39C920.934 298.39 918.504 299.08 916.344 300.46C914.184 301.78 912.504 303.64 911.304 306.04C910.104 308.38 909.504 311.14 909.504 314.32C909.504 317.5 910.104 320.29 911.304 322.69C912.504 325.09 914.184 326.95 916.344 328.27C918.504 329.59 920.934 330.25 923.634 330.25ZM976.801 338.08C972.961 338.08 969.601 337.45 966.721 336.19C963.841 334.93 961.561 333.16 959.881 330.88C958.201 328.6 957.181 325.93 956.821 322.87H966.001C966.301 324.31 966.871 325.63 967.711 326.83C968.611 328.03 969.811 328.99 971.311 329.71C972.871 330.43 974.701 330.79 976.801 330.79C978.781 330.79 980.401 330.52 981.661 329.98C982.981 329.38 983.941 328.6 984.541 327.64C985.141 326.62 985.441 325.54 985.441 324.4C985.441 322.72 985.021 321.46 984.181 320.62C983.401 319.72 982.201 319.03 980.581 318.55C979.021 318.01 977.131 317.53 974.911 317.11C972.811 316.75 970.771 316.27 968.791 315.67C966.871 315.01 965.131 314.2 963.571 313.24C962.071 312.28 960.871 311.08 959.971 309.64C959.071 308.14 958.621 306.31 958.621 304.15C958.621 301.57 959.311 299.26 960.691 297.22C962.071 295.12 964.021 293.5 966.541 292.36C969.121 291.16 972.151 290.56 975.631 290.56C980.671 290.56 984.721 291.76 987.781 294.16C990.841 296.56 992.641 299.95 993.181 304.33H984.451C984.211 302.29 983.311 300.73 981.751 299.65C980.191 298.51 978.121 297.94 975.541 297.94C972.961 297.94 970.981 298.45 969.601 299.47C968.221 300.49 967.531 301.84 967.531 303.52C967.531 304.6 967.921 305.56 968.701 306.4C969.481 307.24 970.621 307.96 972.121 308.56C973.681 309.1 975.571 309.61 977.791 310.09C980.971 310.69 983.821 311.44 986.341 312.34C988.861 313.24 990.871 314.56 992.371 316.3C993.871 318.04 994.621 320.53 994.621 323.77C994.681 326.59 993.961 329.08 992.461 331.24C991.021 333.4 988.951 335.08 986.251 336.28C983.611 337.48 980.461 338.08 976.801 338.08Z" fill="white"/>
<path d="M557.384 440V404.664H545.68V400.8H573.792V404.664H562.088V440H557.384ZM586.879 440.672C584.266 440.672 581.914 440.075 579.823 438.88C577.733 437.648 576.09 435.931 574.895 433.728C573.701 431.488 573.103 428.893 573.103 425.944C573.103 422.92 573.701 420.307 574.895 418.104C576.127 415.864 577.789 414.147 579.879 412.952C582.007 411.72 584.378 411.104 586.991 411.104C589.679 411.104 592.05 411.72 594.103 412.952C596.194 414.147 597.837 415.864 599.031 418.104C600.263 420.307 600.879 422.901 600.879 425.888C600.879 428.875 600.263 431.488 599.031 433.728C597.799 435.931 596.138 437.648 594.047 438.88C591.957 440.075 589.567 440.672 586.879 440.672ZM586.935 436.64C588.541 436.64 590.034 436.248 591.415 435.464C592.797 434.643 593.917 433.429 594.775 431.824C595.634 430.219 596.063 428.24 596.063 425.888C596.063 423.499 595.634 421.52 594.775 419.952C593.954 418.347 592.853 417.152 591.471 416.368C590.127 415.547 588.634 415.136 586.991 415.136C585.423 415.136 583.93 415.547 582.511 416.368C581.13 417.152 580.01 418.347 579.151 419.952C578.33 421.52 577.919 423.499 577.919 425.888C577.919 428.24 578.33 430.219 579.151 431.824C580.01 433.429 581.111 434.643 582.455 435.464C583.837 436.248 585.33 436.64 586.935 436.64ZM619.907 440.672C617.181 440.672 614.792 440.037 612.739 438.768C610.685 437.461 609.099 435.688 607.979 433.448C606.859 431.208 606.299 428.669 606.299 425.832C606.299 422.995 606.859 420.475 607.979 418.272C609.099 416.032 610.685 414.277 612.739 413.008C614.829 411.739 617.237 411.104 619.963 411.104C622.277 411.104 624.293 411.571 626.011 412.504C627.765 413.437 629.109 414.744 630.043 416.424V399.68H634.747V440H630.491L630.099 435.352C629.501 436.285 628.736 437.163 627.803 437.984C626.869 438.768 625.749 439.421 624.443 439.944C623.136 440.429 621.624 440.672 619.907 440.672ZM620.467 436.584C622.333 436.584 623.976 436.136 625.395 435.24C626.813 434.344 627.915 433.112 628.699 431.544C629.483 429.939 629.875 428.053 629.875 425.888C629.875 423.76 629.483 421.893 628.699 420.288C627.915 418.683 626.813 417.432 625.395 416.536C623.976 415.64 622.333 415.192 620.467 415.192C618.637 415.192 617.013 415.64 615.595 416.536C614.176 417.432 613.075 418.683 612.291 420.288C611.507 421.893 611.115 423.76 611.115 425.888C611.115 428.053 611.507 429.939 612.291 431.544C613.075 433.112 614.176 434.344 615.595 435.24C617.013 436.136 618.637 436.584 620.467 436.584ZM651.768 440.672C649.491 440.672 647.587 440.28 646.056 439.496C644.525 438.675 643.387 437.611 642.64 436.304C641.893 434.96 641.52 433.504 641.52 431.936C641.52 430.032 642.005 428.427 642.976 427.12C643.984 425.776 645.384 424.768 647.176 424.096C649.005 423.387 651.152 423.032 653.616 423.032H661.064C661.064 421.277 660.784 419.821 660.224 418.664C659.701 417.469 658.917 416.573 657.872 415.976C656.864 415.379 655.595 415.08 654.064 415.08C652.272 415.08 650.723 415.528 649.416 416.424C648.109 417.32 647.307 418.645 647.008 420.4H642.192C642.416 418.384 643.088 416.704 644.208 415.36C645.365 413.979 646.821 412.933 648.576 412.224C650.331 411.477 652.16 411.104 654.064 411.104C656.677 411.104 658.843 411.589 660.56 412.56C662.315 413.493 663.621 414.819 664.48 416.536C665.339 418.216 665.768 420.213 665.768 422.528V440H661.568L661.288 435.016C660.915 435.8 660.429 436.547 659.832 437.256C659.272 437.928 658.6 438.525 657.816 439.048C657.032 439.533 656.136 439.925 655.128 440.224C654.157 440.523 653.037 440.672 651.768 440.672ZM652.496 436.696C653.803 436.696 654.979 436.435 656.024 435.912C657.107 435.352 658.021 434.605 658.768 433.672C659.515 432.701 660.075 431.637 660.448 430.48C660.859 429.323 661.064 428.109 661.064 426.84V426.672H654.008C652.179 426.672 650.704 426.896 649.584 427.344C648.464 427.755 647.661 428.352 647.176 429.136C646.691 429.883 646.448 430.741 646.448 431.712C646.448 432.72 646.672 433.597 647.12 434.344C647.605 435.091 648.296 435.669 649.192 436.08C650.125 436.491 651.227 436.696 652.496 436.696ZM675.305 452.32L682.193 436.864H680.569L669.481 411.776H674.577L683.761 433.336L693.393 411.776H698.265L680.233 452.32H675.305ZM696.255 446.888L699.503 434.512H704.375L699.503 446.888H696.255ZM729.59 440V406.064L722.87 407.744V404.384L731.158 400.8H734.35V440H729.59ZM757.731 440.672C754.297 440.672 751.329 439.832 748.827 438.152C746.363 436.435 744.478 434.064 743.171 431.04C741.865 427.979 741.211 424.432 741.211 420.4C741.211 416.368 741.865 412.84 743.171 409.816C744.478 406.755 746.363 404.384 748.827 402.704C751.329 400.987 754.297 400.128 757.731 400.128C761.166 400.128 764.097 400.987 766.523 402.704C768.987 404.384 770.873 406.755 772.179 409.816C773.486 412.84 774.139 416.368 774.139 420.4C774.139 424.432 773.486 427.979 772.179 431.04C770.873 434.064 768.987 436.435 766.523 438.152C764.097 439.832 761.166 440.672 757.731 440.672ZM757.675 436.528C759.915 436.528 761.913 435.893 763.667 434.624C765.422 433.317 766.803 431.469 767.811 429.08C768.819 426.653 769.323 423.76 769.323 420.4C769.323 417.04 768.819 414.165 767.811 411.776C766.803 409.349 765.422 407.501 763.667 406.232C761.913 404.963 759.915 404.328 757.675 404.328C755.435 404.328 753.419 404.963 751.627 406.232C749.873 407.501 748.491 409.349 747.483 411.776C746.513 414.165 746.027 417.04 746.027 420.4C746.027 423.76 746.513 426.653 747.483 429.08C748.491 431.469 749.873 433.317 751.627 434.624C753.419 435.893 755.435 436.528 757.675 436.528ZM782.405 440.28C781.471 440.28 780.687 439.981 780.053 439.384C779.455 438.749 779.157 437.984 779.157 437.088C779.157 436.192 779.455 435.445 780.053 434.848C780.687 434.213 781.471 433.896 782.405 433.896C783.338 433.896 784.103 434.213 784.701 434.848C785.298 435.445 785.597 436.192 785.597 437.088C785.597 437.984 785.298 438.749 784.701 439.384C784.103 439.981 783.338 440.28 782.405 440.28ZM782.405 417.488C781.471 417.488 780.687 417.189 780.053 416.592C779.455 415.957 779.157 415.192 779.157 414.296C779.157 413.4 779.455 412.653 780.053 412.056C780.687 411.421 781.471 411.104 782.405 411.104C783.338 411.104 784.103 411.421 784.701 412.056C785.298 412.653 785.597 413.4 785.597 414.296C785.597 415.192 785.298 415.957 784.701 416.592C784.103 417.189 783.338 417.488 782.405 417.488ZM791.709 440V436.696C794.36 434.605 796.88 432.496 799.269 430.368C801.696 428.24 803.842 426.131 805.709 424.04C807.576 421.912 809.032 419.84 810.077 417.824C811.16 415.808 811.701 413.867 811.701 412C811.701 410.619 811.458 409.349 810.973 408.192C810.488 406.997 809.704 406.027 808.621 405.28C807.576 404.533 806.157 404.16 804.365 404.16C802.61 404.16 801.154 404.552 799.997 405.336C798.84 406.083 797.962 407.091 797.365 408.36C796.805 409.592 796.525 410.955 796.525 412.448H791.989C792.026 409.872 792.568 407.669 793.613 405.84C794.696 403.973 796.17 402.555 798.037 401.584C799.904 400.613 802.032 400.128 804.421 400.128C806.773 400.128 808.845 400.576 810.637 401.472C812.429 402.331 813.829 403.619 814.837 405.336C815.882 407.053 816.405 409.219 816.405 411.832C816.405 413.661 816.013 415.491 815.229 417.32C814.482 419.149 813.474 420.941 812.205 422.696C810.936 424.413 809.517 426.075 807.949 427.68C806.418 429.285 804.832 430.797 803.189 432.216C801.584 433.635 800.072 434.923 798.653 436.08H817.749V440H791.709ZM837.807 440.672C835.119 440.672 832.785 440.187 830.807 439.216C828.865 438.245 827.316 436.92 826.159 435.24C825.039 433.56 824.329 431.675 824.031 429.584H828.623C829.071 431.675 830.097 433.373 831.703 434.68C833.308 435.987 835.361 436.64 837.863 436.64C839.729 436.64 841.316 436.211 842.623 435.352C843.967 434.493 844.993 433.317 845.703 431.824C846.449 430.331 846.823 428.669 846.823 426.84C846.823 424.936 846.449 423.256 845.703 421.8C844.956 420.344 843.929 419.224 842.623 418.44C841.316 417.619 839.785 417.208 838.031 417.208C835.903 417.208 834.092 417.675 832.599 418.608C831.105 419.541 829.985 420.736 829.239 422.192H824.703L827.951 400.8H848.671V404.888H831.591L829.407 416.928C830.34 415.845 831.572 414.968 833.103 414.296C834.671 413.587 836.481 413.232 838.535 413.232C840.476 413.232 842.231 413.568 843.799 414.24C845.367 414.912 846.711 415.864 847.831 417.096C848.951 418.328 849.809 419.765 850.407 421.408C851.041 423.051 851.359 424.843 851.359 426.784C851.359 428.688 851.041 430.48 850.407 432.16C849.809 433.803 848.932 435.277 847.775 436.584C846.617 437.853 845.199 438.861 843.519 439.608C841.839 440.317 839.935 440.672 837.807 440.672Z" fill="#737373"/>
<path d="M633.239 175.636V212H628.977L609.162 183.449H608.807V212H604.403V175.636H608.665L628.551 204.259H628.906V175.636H633.239ZM642.05 212V175.636H663.996V179.543H646.453V191.83H662.86V195.736H646.453V208.094H664.28V212H642.05ZM678.538 212L668.595 175.636H673.069L680.669 205.253H681.024L688.765 175.636H693.737L701.478 205.253H701.833L709.433 175.636H713.907L703.964 212H699.419L691.393 183.023H691.109L683.083 212H678.538Z" fill="#3B82F6"/>
<circle cx="563.5" cy="193.5" r="19.5" fill="#3B82F6"/>
<rect x="104" y="174" width="379" height="269" rx="46" fill="#020202"/>
<path d="M346.774 307.502C346.584 306.569 346.134 305.708 345.476 305.02C344.817 304.332 343.977 303.845 343.053 303.615L308.468 294.963L321.258 265.111C321.702 264.075 321.786 262.92 321.496 261.831C321.206 260.742 320.56 259.781 319.66 259.102C318.76 258.42 317.657 258.061 316.528 258.082C315.4 258.104 314.311 258.506 313.439 259.223L257.98 304.598C257.257 305.19 256.712 305.971 256.407 306.854C256.102 307.738 256.048 308.688 256.252 309.6C256.456 310.512 256.91 311.35 257.562 312.019C258.214 312.688 259.04 313.163 259.947 313.39L293.822 321.866L276.957 351.379C276.52 352.146 276.293 353.014 276.296 353.896C276.3 354.778 276.535 355.644 276.978 356.407C277.421 357.169 278.056 357.803 278.82 358.243C279.585 358.684 280.451 358.916 281.333 358.917C282.424 358.917 283.486 358.563 284.358 357.908L344.858 312.533C345.621 311.961 346.205 311.185 346.544 310.295C346.883 309.404 346.963 308.436 346.774 307.502Z" fill="#3B82F6"/>
</g>
<defs>
<filter id="filter0_d_678_227" x="0.9" y="54.9" width="1373.2" height="472.2" filterUnits="userSpaceOnUse" color-interpolation-filters="sRGB">
<feFlood flood-opacity="0" result="BackgroundImageFix"/>
<feColorMatrix in="SourceAlpha" type="matrix" values="0 0 0 0 0 0 0 0 0 0 0 0 0 0 0 0 0 0 127 0" result="hardAlpha"/>
<feOffset dy="-18"/>
<feGaussianBlur stdDeviation="15.55"/>
<feComposite in2="hardAlpha" operator="out"/>
<feColorMatrix type="matrix" values="0 0 0 0 0 0 0 0 0 0 0 0 0 0 0 0 0 0 0.65 0"/>
<feBlend mode="normal" in2="BackgroundImageFix" result="effect1_dropShadow_678_227"/>
<feBlend mode="normal" in="SourceGraphic" in2="effect1_dropShadow_678_227" result="shape"/>
</filter>
<linearGradient id="paint0_linear_678_227" x1="133" y1="603.5" x2="1245" y2="603.5" gradientUnits="userSpaceOnUse">
<stop stop-color="#171717"/>
<stop offset="1" stop-color="#8C8C8C"/>
</linearGradient>
<linearGradient id="paint1_linear_678_227" x1="231" y1="710.5" x2="1343" y2="710.5" gradientUnits="userSpaceOnUse">
<stop stop-color="#171717"/>
<stop offset="1" stop-color="#8C8C8C"/>
</linearGradient>
<linearGradient id="paint2_linear_678_227" x1="269" y1="817.5" x2="1381" y2="817.5" gradientUnits="userSpaceOnUse">
<stop stop-color="#171717"/>
<stop offset="1" stop-color="#8C8C8C"/>
</linearGradient>
</defs>
</svg>
