<svg width="560" height="474" viewBox="0 0 560 474" fill="none" xmlns="http://www.w3.org/2000/svg">
<g clip-path="url(#clip0_682_263)">
<rect width="560" height="474" rx="24" fill="white" fill-opacity="0.01"/>
<g filter="url(#filter0_i_682_263)">
<rect x="221" y="31" width="239" height="121" rx="16" fill="white" fill-opacity="0.03"/>
<rect x="220" y="30" width="241" height="123" rx="17" stroke="white" stroke-opacity="0.1" stroke-width="2"/>
<line x1="270" y1="76.5" x2="293" y2="76.5" stroke="#262626" stroke-width="3"/>
<line x1="270" y1="92.5" x2="333" y2="92.5" stroke="#262626" stroke-width="3"/>
<line x1="270" y1="108.5" x2="411" y2="108.5" stroke="#262626" stroke-width="3"/>
</g>
<rect x="221" y="322" width="239" height="121" rx="16" fill="white" fill-opacity="0.03"/>
<rect x="220" y="321" width="241" height="123" rx="17" stroke="white" stroke-opacity="0.1" stroke-width="2"/>
<line x1="270" y1="367.5" x2="293" y2="367.5" stroke="#262626" stroke-width="3"/>
<line x1="270" y1="383.5" x2="333" y2="383.5" stroke="#262626" stroke-width="3"/>
<line x1="270" y1="399.5" x2="411" y2="399.5" stroke="#262626" stroke-width="3"/>
<rect x="-40" y="322" width="239" height="121" rx="16" fill="white" fill-opacity="0.01"/>
<rect x="-41" y="321" width="241" height="123" rx="17" stroke="white" stroke-opacity="0.1" stroke-width="2"/>
<rect x="-160" y="176" width="239" height="121" rx="16" fill="white" fill-opacity="0.01"/>
<rect x="-161" y="175" width="241" height="123" rx="17" stroke="white" stroke-opacity="0.1" stroke-width="2"/>
<rect x="-41" y="30" width="239" height="121" rx="16" fill="white" fill-opacity="0.01"/>
<rect x="-42" y="29" width="241" height="123" rx="17" stroke="white" stroke-opacity="0.1" stroke-width="2"/>
<rect x="482" y="322" width="239" height="121" rx="16" fill="white" fill-opacity="0.01"/>
<rect x="481" y="321" width="241" height="123" rx="17" stroke="white" stroke-opacity="0.1" stroke-width="2"/>
<rect x="482" y="176" width="239" height="121" rx="16" fill="white" fill-opacity="0.01"/>
<rect x="481" y="175" width="241" height="123" rx="17" stroke="white" stroke-opacity="0.1" stroke-width="2"/>
<rect x="482" y="30" width="239" height="121" rx="16" fill="white" fill-opacity="0.01"/>
<rect x="481" y="29" width="241" height="123" rx="17" stroke="white" stroke-opacity="0.1" stroke-width="2"/>
<rect x="103" y="177" width="239" height="121" rx="16" fill="white" fill-opacity="0.03"/>
<rect x="102" y="176" width="241" height="123" rx="17" stroke="white" stroke-opacity="0.1" stroke-width="2"/>
<line x1="152" y1="222" x2="175" y2="222" stroke="#6B6B6F" stroke-width="4"/>
<line x1="152" y1="238.5" x2="215" y2="238.5" stroke="#262626" stroke-width="3"/>
<line x1="152" y1="254.5" x2="293" y2="254.5" stroke="#262626" stroke-width="3"/>
<circle cx="417" cy="237" r="32" fill="white" fill-opacity="0.1"/>
<path d="M415.255 241.356L430.086 226.525C430.436 226.175 430.844 226 431.311 226C431.778 226 432.186 226.175 432.536 226.525C432.886 226.875 433.061 227.291 433.061 227.773C433.061 228.255 432.886 228.67 432.536 229.019L416.48 245.119C416.13 245.469 415.721 245.644 415.255 245.644C414.788 245.644 414.38 245.469 414.03 245.119L406.505 237.594C406.155 237.244 405.987 236.828 406.001 236.348C406.015 235.867 406.197 235.451 406.549 235.1C406.9 234.749 407.316 234.574 407.796 234.575C408.277 234.576 408.692 234.751 409.042 235.1L415.255 241.356Z" fill="white"/>
</g>
<rect x="1" y="1" width="558" height="472" rx="23" stroke="white" stroke-opacity="0.1" stroke-width="2"/>
<defs>
<filter id="filter0_i_682_263" x="219" y="29" width="243" height="125" filterUnits="userSpaceOnUse" color-interpolation-filters="sRGB">
<feFlood flood-opacity="0" result="BackgroundImageFix"/>
<feBlend mode="normal" in="SourceGraphic" in2="BackgroundImageFix" result="shape"/>
<feColorMatrix in="SourceAlpha" type="matrix" values="0 0 0 0 0 0 0 0 0 0 0 0 0 0 0 0 0 0 127 0" result="hardAlpha"/>
<feOffset/>
<feGaussianBlur stdDeviation="2"/>
<feComposite in2="hardAlpha" operator="arithmetic" k2="-1" k3="1"/>
<feColorMatrix type="matrix" values="0 0 0 0 1 0 0 0 0 1 0 0 0 0 1 0 0 0 0.25 0"/>
<feBlend mode="normal" in2="shape" result="effect1_innerShadow_682_263"/>
</filter>
<clipPath id="clip0_682_263">
<rect width="560" height="474" rx="24" fill="white"/>
</clipPath>
</defs>
</svg>
