<svg width="918" height="533" viewBox="0 0 918 533" fill="none" xmlns="http://www.w3.org/2000/svg">
<line x1="3.5" y1="529" x2="3.49998" y2="4" stroke="url(#paint0_linear_678_226)" stroke-dasharray="15 15"/>
<line x1="133.5" y1="529" x2="133.5" y2="4" stroke="url(#paint1_linear_678_226)" stroke-dasharray="15 15"/>
<line x1="263.5" y1="529" x2="263.5" y2="4" stroke="url(#paint2_linear_678_226)" stroke-dasharray="15 15"/>
<line x1="393.5" y1="529" x2="393.5" y2="4" stroke="url(#paint3_linear_678_226)" stroke-dasharray="15 15"/>
<line x1="523.5" y1="529" x2="523.5" y2="4" stroke="url(#paint4_linear_678_226)" stroke-dasharray="15 15"/>
<line x1="653.5" y1="529" x2="653.5" y2="4" stroke="url(#paint5_linear_678_226)" stroke-dasharray="15 15"/>
<line x1="783.5" y1="529" x2="783.5" y2="4" stroke="url(#paint6_linear_678_226)" stroke-dasharray="15 15"/>
<line x1="913.5" y1="529" x2="913.5" y2="4" stroke="url(#paint7_linear_678_226)" stroke-dasharray="15 15"/>
<path d="M295.128 316.497C293.045 316.497 291.168 316.083 289.499 315.254C287.83 314.426 286.493 313.289 285.487 311.845C284.48 310.401 283.93 308.756 283.835 306.909H288.097C288.262 308.554 289.008 309.916 290.334 310.993C291.671 312.058 293.269 312.591 295.128 312.591C296.619 312.591 297.945 312.242 299.105 311.543C300.277 310.845 301.194 309.886 301.857 308.667C302.532 307.436 302.869 306.045 302.869 304.494C302.869 302.908 302.52 301.494 301.822 300.251C301.135 298.996 300.188 298.008 298.981 297.286C297.773 296.563 296.394 296.196 294.844 296.185C293.731 296.173 292.589 296.344 291.417 296.7C290.245 297.043 289.28 297.487 288.523 298.031L284.403 297.534L286.605 279.636H305.497V283.543H290.298L289.02 294.267H289.233C289.979 293.675 290.914 293.184 292.038 292.793C293.163 292.403 294.335 292.207 295.554 292.207C297.779 292.207 299.762 292.74 301.502 293.805C303.254 294.859 304.627 296.303 305.621 298.138C306.628 299.973 307.131 302.068 307.131 304.423C307.131 306.743 306.61 308.815 305.568 310.638C304.538 312.449 303.118 313.881 301.307 314.935C299.496 315.976 297.436 316.497 295.128 316.497Z" fill="#262626"/>
<path d="M165.625 316.497C162.95 316.497 160.671 315.769 158.789 314.313C156.907 312.845 155.469 310.721 154.474 307.939C153.48 305.145 152.983 301.772 152.983 297.818C152.983 293.888 153.48 290.532 154.474 287.751C155.481 284.957 156.925 282.826 158.807 281.359C160.701 279.879 162.973 279.139 165.625 279.139C168.277 279.139 170.543 279.879 172.425 281.359C174.319 282.826 175.763 284.957 176.758 287.751C177.764 290.532 178.267 293.888 178.267 297.818C178.267 301.772 177.77 305.145 176.776 307.939C175.781 310.721 174.343 312.845 172.461 314.313C170.579 315.769 168.3 316.497 165.625 316.497ZM165.625 312.591C168.277 312.591 170.336 311.312 171.804 308.756C173.272 306.199 174.006 302.553 174.006 297.818C174.006 294.67 173.668 291.988 172.994 289.775C172.331 287.561 171.372 285.875 170.117 284.714C168.874 283.554 167.377 282.974 165.625 282.974C162.997 282.974 160.943 284.271 159.464 286.863C157.984 289.443 157.244 293.095 157.244 297.818C157.244 300.967 157.576 303.642 158.239 305.844C158.902 308.045 159.854 309.72 161.097 310.869C162.352 312.017 163.861 312.591 165.625 312.591Z" fill="#262626"/>
<path d="M41.4602 295.865V299.771H25.5511V295.865H41.4602ZM60.1259 316.497C58.0426 316.497 56.1664 316.083 54.4973 315.254C52.8283 314.426 51.4907 313.289 50.4846 311.845C49.4784 310.401 48.928 308.756 48.8333 306.909H53.0946C53.2604 308.554 54.0061 309.916 55.3319 310.993C56.6694 312.058 58.2675 312.591 60.1259 312.591C61.6174 312.591 62.9431 312.242 64.1032 311.543C65.275 310.845 66.1924 309.886 66.8553 308.667C67.53 307.436 67.8674 306.045 67.8674 304.494C67.8674 302.908 67.5182 301.494 66.8198 300.251C66.1332 298.996 65.1863 298.008 63.9789 297.286C62.7715 296.563 61.3925 296.196 59.8418 296.185C58.7291 296.173 57.5868 296.344 56.415 296.7C55.2431 297.043 54.2784 297.487 53.5208 298.031L49.4015 297.534L51.6032 279.636H70.4952V283.543H55.2963L54.0179 294.267H54.231C54.9767 293.675 55.9119 293.184 57.0364 292.793C58.1609 292.403 59.3328 292.207 60.552 292.207C62.7774 292.207 64.7601 292.74 66.5002 293.805C68.2521 294.859 69.6252 296.303 70.6195 298.138C71.6257 299.973 72.1287 302.068 72.1287 304.423C72.1287 306.743 71.6079 308.815 70.5662 310.638C69.5364 312.449 68.1159 313.881 66.3049 314.935C64.4938 315.976 62.4341 316.497 60.1259 316.497Z" fill="#262626"/>
<path d="M423.548 279.636V316H419.145V284.253H418.932L410.054 290.148V285.673L419.145 279.636H423.548ZM445.867 316.497C443.192 316.497 440.913 315.769 439.031 314.313C437.149 312.845 435.711 310.721 434.717 307.939C433.722 305.145 433.225 301.772 433.225 297.818C433.225 293.888 433.722 290.532 434.717 287.751C435.723 284.957 437.167 282.826 439.049 281.359C440.943 279.879 443.216 279.139 445.867 279.139C448.519 279.139 450.786 279.879 452.668 281.359C454.562 282.826 456.006 284.957 457 287.751C458.006 290.532 458.509 293.888 458.509 297.818C458.509 301.772 458.012 305.145 457.018 307.939C456.023 310.721 454.585 312.845 452.703 314.313C450.821 315.769 448.542 316.497 445.867 316.497ZM445.867 312.591C448.519 312.591 450.578 311.312 452.046 308.756C453.514 306.199 454.248 302.553 454.248 297.818C454.248 294.67 453.911 291.988 453.236 289.775C452.573 287.561 451.614 285.875 450.359 284.714C449.116 283.554 447.619 282.974 445.867 282.974C443.239 282.974 441.186 284.271 439.706 286.863C438.226 289.443 437.487 293.095 437.487 297.818C437.487 300.967 437.818 303.642 438.481 305.844C439.144 308.045 440.097 309.72 441.339 310.869C442.594 312.017 444.103 312.591 445.867 312.591Z" fill="#262626"/>
<path d="M552.548 279.636V316H548.145V284.253H547.932L539.054 290.148V285.673L548.145 279.636H552.548ZM574.37 316.497C572.287 316.497 570.411 316.083 568.741 315.254C567.072 314.426 565.735 313.289 564.729 311.845C563.723 310.401 563.172 308.756 563.077 306.909H567.339C567.504 308.554 568.25 309.916 569.576 310.993C570.914 312.058 572.512 312.591 574.37 312.591C575.862 312.591 577.187 312.242 578.347 311.543C579.519 310.845 580.437 309.886 581.099 308.667C581.774 307.436 582.112 306.045 582.112 304.494C582.112 302.908 581.762 301.494 581.064 300.251C580.377 298.996 579.43 298.008 578.223 297.286C577.016 296.563 575.637 296.196 574.086 296.185C572.973 296.173 571.831 296.344 570.659 296.7C569.487 297.043 568.522 297.487 567.765 298.031L563.646 297.534L565.847 279.636H584.739V283.543H569.54L568.262 294.267H568.475C569.221 293.675 570.156 293.184 571.281 292.793C572.405 292.403 573.577 292.207 574.796 292.207C577.022 292.207 579.004 292.74 580.744 293.805C582.496 294.859 583.869 296.303 584.864 298.138C585.87 299.973 586.373 302.068 586.373 304.423C586.373 306.743 585.852 308.815 584.81 310.638C583.781 312.449 582.36 313.881 580.549 314.935C578.738 315.976 576.678 316.497 574.37 316.497Z" fill="#262626"/>
<path d="M669.764 316V312.804L681.767 299.665C683.176 298.126 684.336 296.788 685.247 295.652C686.159 294.504 686.833 293.427 687.271 292.42C687.721 291.402 687.946 290.337 687.946 289.224C687.946 287.946 687.638 286.839 687.023 285.904C686.419 284.969 685.59 284.247 684.537 283.738C683.483 283.229 682.3 282.974 680.986 282.974C679.589 282.974 678.37 283.264 677.328 283.844C676.298 284.413 675.499 285.212 674.931 286.241C674.375 287.271 674.097 288.479 674.097 289.864H669.906C669.906 287.733 670.397 285.863 671.38 284.253C672.362 282.643 673.7 281.388 675.393 280.489C677.097 279.589 679.009 279.139 681.128 279.139C683.259 279.139 685.147 279.589 686.792 280.489C688.437 281.388 689.728 282.602 690.663 284.129C691.598 285.656 692.065 287.354 692.065 289.224C692.065 290.562 691.823 291.87 691.337 293.148C690.864 294.415 690.035 295.83 688.852 297.392C687.68 298.943 686.052 300.837 683.969 303.074L675.801 311.81V312.094H692.705V316H669.764ZM711.898 316.497C709.223 316.497 706.945 315.769 705.062 314.313C703.18 312.845 701.742 310.721 700.748 307.939C699.754 305.145 699.256 301.772 699.256 297.818C699.256 293.888 699.754 290.532 700.748 287.751C701.754 284.957 703.198 282.826 705.08 281.359C706.974 279.879 709.247 279.139 711.898 279.139C714.55 279.139 716.817 279.879 718.699 281.359C720.593 282.826 722.037 284.957 723.031 287.751C724.037 290.532 724.54 293.888 724.54 297.818C724.54 301.772 724.043 305.145 723.049 307.939C722.055 310.721 720.616 312.845 718.734 314.313C716.852 315.769 714.574 316.497 711.898 316.497ZM711.898 312.591C714.55 312.591 716.61 311.312 718.077 308.756C719.545 306.199 720.279 302.553 720.279 297.818C720.279 294.67 719.942 291.988 719.267 289.775C718.604 287.561 717.645 285.875 716.391 284.714C715.148 283.554 713.65 282.974 711.898 282.974C709.271 282.974 707.217 284.271 705.737 286.863C704.258 289.443 703.518 293.095 703.518 297.818C703.518 300.967 703.849 303.642 704.512 305.844C705.175 308.045 706.128 309.72 707.371 310.869C708.625 312.017 710.135 312.591 711.898 312.591Z" fill="#262626"/>
<path d="M799.764 316V312.804L811.767 299.665C813.176 298.126 814.336 296.788 815.247 295.652C816.159 294.504 816.833 293.427 817.271 292.42C817.721 291.402 817.946 290.337 817.946 289.224C817.946 287.946 817.638 286.839 817.023 285.904C816.419 284.969 815.59 284.247 814.537 283.738C813.483 283.229 812.3 282.974 810.986 282.974C809.589 282.974 808.37 283.264 807.328 283.844C806.298 284.413 805.499 285.212 804.931 286.241C804.375 287.271 804.097 288.479 804.097 289.864H799.906C799.906 287.733 800.397 285.863 801.38 284.253C802.362 282.643 803.7 281.388 805.393 280.489C807.097 279.589 809.009 279.139 811.128 279.139C813.259 279.139 815.147 279.589 816.792 280.489C818.437 281.388 819.728 282.602 820.663 284.129C821.598 285.656 822.065 287.354 822.065 289.224C822.065 290.562 821.823 291.87 821.337 293.148C820.864 294.415 820.035 295.83 818.852 297.392C817.68 298.943 816.052 300.837 813.969 303.074L805.801 311.81V312.094H822.705V316H799.764ZM841.401 316.497C839.318 316.497 837.442 316.083 835.773 315.254C834.104 314.426 832.766 313.289 831.76 311.845C830.754 310.401 830.203 308.756 830.109 306.909H834.37C834.536 308.554 835.281 309.916 836.607 310.993C837.945 312.058 839.543 312.591 841.401 312.591C842.893 312.591 844.219 312.242 845.379 311.543C846.55 310.845 847.468 309.886 848.131 308.667C848.805 307.436 849.143 306.045 849.143 304.494C849.143 302.908 848.794 301.494 848.095 300.251C847.409 298.996 846.462 298.008 845.254 297.286C844.047 296.563 842.668 296.196 841.117 296.185C840.004 296.173 838.862 296.344 837.69 296.7C836.518 297.043 835.554 297.487 834.796 298.031L830.677 297.534L832.879 279.636H851.771V283.543H836.572L835.293 294.267H835.506C836.252 293.675 837.187 293.184 838.312 292.793C839.436 292.403 840.608 292.207 841.827 292.207C844.053 292.207 846.036 292.74 847.776 293.805C849.527 294.859 850.901 296.303 851.895 298.138C852.901 299.973 853.404 302.068 853.404 304.423C853.404 306.743 852.883 308.815 851.842 310.638C850.812 312.449 849.391 313.881 847.58 314.935C845.769 315.976 843.71 316.497 841.401 316.497Z" fill="#262626"/>
<path d="M4 529C4 529 78.8022 466.191 147.801 448.47C196.227 436.032 233.419 451.408 279.802 436.044C318.996 423.061 319.925 393.831 362.395 386.34C411.397 377.696 436.325 415.586 486.654 411.192C589.302 402.229 554.065 315.91 592.108 253.477C621.673 204.956 600.796 161.207 662.902 128.021C709.429 103.16 769.927 135.252 810.39 98.3901C850.852 61.5285 873.538 40.8616 914 4" stroke="#262626" stroke-width="10"/>
<path d="M4 529C4 529 78.8022 466.191 147.801 448.47C196.227 436.032 233.419 451.408 279.802 436.044C318.996 423.061 319.924 393.831 362.395 386.34C411.397 377.696 436.325 415.586 486.654 411.192C589.302 402.229 554.065 315.91 592.108 253.477" stroke="url(#paint8_linear_678_226)" stroke-width="10"/>
<circle cx="590" cy="257" r="16" fill="#3B82F6"/>
<circle cx="590" cy="257" r="27.5" stroke="#3B82F6" stroke-opacity="0.3" stroke-width="23"/>
<defs>
<linearGradient id="paint0_linear_678_226" x1="4.49998" y1="4" x2="4.5" y2="529" gradientUnits="userSpaceOnUse">
<stop stop-color="#000008"/>
<stop offset="0.355" stop-color="#525252"/>
</linearGradient>
<linearGradient id="paint1_linear_678_226" x1="134.5" y1="4" x2="134.5" y2="529" gradientUnits="userSpaceOnUse">
<stop stop-color="#000008"/>
<stop offset="0.355" stop-color="#525252"/>
</linearGradient>
<linearGradient id="paint2_linear_678_226" x1="264.5" y1="4" x2="264.5" y2="529" gradientUnits="userSpaceOnUse">
<stop stop-color="#000008"/>
<stop offset="0.355" stop-color="#525252"/>
</linearGradient>
<linearGradient id="paint3_linear_678_226" x1="394.5" y1="4" x2="394.5" y2="529" gradientUnits="userSpaceOnUse">
<stop stop-color="#000008"/>
<stop offset="0.355" stop-color="#525252"/>
</linearGradient>
<linearGradient id="paint4_linear_678_226" x1="524.5" y1="4" x2="524.5" y2="529" gradientUnits="userSpaceOnUse">
<stop stop-color="#000008"/>
<stop offset="0.355" stop-color="#525252"/>
</linearGradient>
<linearGradient id="paint5_linear_678_226" x1="654.5" y1="4" x2="654.5" y2="529" gradientUnits="userSpaceOnUse">
<stop stop-color="#000008"/>
<stop offset="0.355" stop-color="#525252"/>
</linearGradient>
<linearGradient id="paint6_linear_678_226" x1="784.5" y1="4" x2="784.5" y2="529" gradientUnits="userSpaceOnUse">
<stop stop-color="#000008"/>
<stop offset="0.355" stop-color="#525252"/>
</linearGradient>
<linearGradient id="paint7_linear_678_226" x1="914.5" y1="4" x2="914.5" y2="529" gradientUnits="userSpaceOnUse">
<stop stop-color="#000008"/>
<stop offset="0.355" stop-color="#525252"/>
</linearGradient>
<linearGradient id="paint8_linear_678_226" x1="914" y1="4.0001" x2="11" y2="523.5" gradientUnits="userSpaceOnUse">
<stop stop-color="#262626"/>
<stop offset="0.51" stop-color="#3B82F6"/>
<stop offset="1" stop-color="#262626"/>
</linearGradient>
</defs>
</svg>
