<svg width="510" height="80" viewBox="0 0 510 80" fill="none" xmlns="http://www.w3.org/2000/svg">
<g clip-path="url(#clip0_371_286)">
<rect x="295" width="80" height="80" rx="16" transform="rotate(90 295 0)" fill="#1D4ED8"/>
<g filter="url(#filter0_f_371_286)">
<ellipse cx="255" cy="40" rx="25" ry="25" transform="rotate(90 255 40)" fill="#803007" fill-opacity="0.73"/>
</g>
<rect x="280" y="15" width="50" height="50" rx="10" transform="rotate(90 280 15)" fill="#3B82F6"/>
<rect x="280" y="15" width="50" height="50" rx="10" transform="rotate(90 280 15)" stroke="url(#paint0_linear_371_286)"/>
<path d="M255.785 46.6955C256.081 49.2259 256.393 51.8976 256.393 55L253.607 55C253.607 51.9325 253.918 49.2641 254.213 46.731C254.453 44.6665 254.683 42.6917 254.725 40.6634C253.326 42.1227 252.103 43.6697 250.821 45.2903C249.241 47.2883 247.572 49.3978 245.379 51.5914L243.409 49.6218C245.578 47.4526 247.684 45.7853 249.684 44.2022L249.686 44.2009C251.315 42.9115 252.873 41.6782 254.337 40.2747C252.316 40.3174 250.357 40.546 248.305 40.7854C245.774 41.0808 243.102 41.3926 240 41.3926L240 38.6071C243.068 38.6071 245.736 38.9175 248.269 39.212L248.271 39.2123C250.335 39.4523 252.309 39.6819 254.336 39.7249C252.879 38.3273 251.332 37.1042 249.713 35.8233L249.71 35.821C247.711 34.2411 245.602 32.5718 243.408 30.3779L245.378 28.4083C247.547 30.5771 249.214 32.6833 250.797 34.6829L250.801 34.6881L250.804 34.6924C252.092 36.3186 253.324 37.8744 254.725 39.3359C254.683 37.308 254.452 35.3332 254.212 33.2687C253.917 30.7356 253.607 28.0672 253.607 24.9997L256.393 24.9997C256.393 28.1021 256.081 30.7738 255.786 33.3042L255.785 33.3085C255.546 35.3589 255.317 37.3168 255.275 39.3359C256.676 37.8744 257.908 36.3186 259.196 34.6924L259.199 34.6881L259.202 34.6833C260.785 32.6837 262.453 30.5771 264.622 28.4083L266.591 30.3779C264.398 32.5718 262.288 34.2408 260.29 35.821L260.287 35.8233C258.668 37.1042 257.122 38.327 255.663 39.7249C257.692 39.6822 259.667 39.4523 261.731 39.2123C264.264 38.9175 266.933 38.6071 270 38.6071L270 41.3922C266.898 41.3922 264.226 41.0805 261.695 40.7854C259.643 40.5457 257.684 40.3171 255.664 40.2744C257.128 41.6782 258.687 42.9122 260.316 44.2022C262.316 45.785 264.423 47.4523 266.591 49.6215L264.622 51.591C262.428 49.3974 260.759 47.288 259.179 45.29C257.897 43.6693 256.674 42.1224 255.275 40.6634C255.317 42.6826 255.546 44.6404 255.785 46.6909L255.786 46.6951L255.785 46.6955Z" fill="white"/>
<mask id="path-6-inside-1_371_286" fill="white">
<path d="M300 -10C303.314 -10 306 -7.31371 306 -4L306 14C306 17.3137 303.314 20 300 20L282 20C278.686 20 276 17.3137 276 14L276 -4C276 -7.31371 278.686 -10 282 -10L300 -10Z"/>
</mask>
<path d="M300 -10C303.314 -10 306 -7.31371 306 -4L306 14C306 17.3137 303.314 20 300 20L282 20C278.686 20 276 17.3137 276 14L276 -4C276 -7.31371 278.686 -10 282 -10L300 -10Z" fill="#3B82F6"/>
<path d="M306 -10L306 20L306 -10ZM282 20.5C278.41 20.5 275.5 17.5899 275.5 14L275.5 -3.5C275.5 -7.08985 278.41 -10 282 -10C278.962 -10 276.5 -7.31371 276.5 -4L276.5 14C276.5 17.0376 278.962 19.5 282 19.5L282 20.5ZM276 -10L306 -10L276 -10ZM306 14C306 17.5899 303.09 20.5 299.5 20.5L282 20.5C278.41 20.5 275.5 17.5899 275.5 14L276.5 14C276.5 17.0376 278.962 19.5 282 19.5L300 19.5C303.314 19.5 306 17.0376 306 14Z" fill="#60A5FA" mask="url(#path-6-inside-1_371_286)"/>
<mask id="path-8-inside-2_371_286" fill="white">
<path d="M228 -10C231.314 -10 234 -7.31371 234 -4L234 14C234 17.3137 231.314 20 228 20L210 20C206.686 20 204 17.3137 204 14L204 -4C204 -7.31371 206.686 -10 210 -10L228 -10Z"/>
</mask>
<path d="M228 -10C231.314 -10 234 -7.31371 234 -4L234 14C234 17.3137 231.314 20 228 20L210 20C206.686 20 204 17.3137 204 14L204 -4C204 -7.31371 206.686 -10 210 -10L228 -10Z" fill="#3B82F6"/>
<path d="M228 -10.5C231.59 -10.5 234.5 -7.58985 234.5 -4L234.5 14C234.5 17.5899 231.59 20.5 228 20.5L228 19.5C231.038 19.5 233.5 17.0376 233.5 14L233.5 -4C233.5 -7.03757 231.038 -9.5 228 -9.5L228 -10.5ZM204 20L204 -10L204 20ZM204 -4C204 -7.58985 206.91 -10.5 210.5 -10.5L228 -10.5C231.59 -10.5 234.5 -7.58985 234.5 -4L233.5 -4C233.5 -7.03757 231.038 -9.5 228 -9.5L210 -9.5C206.686 -9.5 204 -7.03757 204 -4ZM234.5 14C234.5 17.5899 231.59 20.5 228 20.5L210.5 20.5C206.91 20.5 204 17.5899 204 14C204 17.0376 206.686 19.5 210 19.5L228 19.5C231.038 19.5 233.5 17.0376 233.5 14L234.5 14Z" fill="#60A5FA" mask="url(#path-8-inside-2_371_286)"/>
<mask id="path-10-inside-3_371_286" fill="white">
<path d="M300 60C303.314 60 306 62.6863 306 66L306 84C306 87.3137 303.314 90 300 90L282 90C278.686 90 276 87.3137 276 84L276 66C276 62.6863 278.686 60 282 60L300 60Z"/>
</mask>
<path d="M300 60C303.314 60 306 62.6863 306 66L306 84C306 87.3137 303.314 90 300 90L282 90C278.686 90 276 87.3137 276 84L276 66C276 62.6863 278.686 60 282 60L300 60Z" fill="#3B82F6"/>
<path d="M306 60L306 90L306 60ZM282 90C278.41 90 275.5 87.0899 275.5 83.5L275.5 66C275.5 62.4101 278.41 59.5 282 59.5L282 60.5C278.962 60.5 276.5 62.9624 276.5 66L276.5 84C276.5 87.3137 278.962 90 282 90ZM275.5 66C275.5 62.4101 278.41 59.5 282 59.5L299.5 59.5C303.09 59.5 306 62.4101 306 66C306 62.9624 303.314 60.5 300 60.5L282 60.5C278.962 60.5 276.5 62.9624 276.5 66L275.5 66ZM306 90L276 90L306 90Z" fill="#60A5FA" mask="url(#path-10-inside-3_371_286)"/>
<mask id="path-12-inside-4_371_286" fill="white">
<path d="M228 60C231.314 60 234 62.6863 234 66L234 84C234 87.3137 231.314 90 228 90L210 90C206.686 90 204 87.3137 204 84L204 66C204 62.6863 206.686 60 210 60L228 60Z"/>
</mask>
<path d="M228 60C231.314 60 234 62.6863 234 66L234 84C234 87.3137 231.314 90 228 90L210 90C206.686 90 204 87.3137 204 84L204 66C204 62.6863 206.686 60 210 60L228 60Z" fill="#3B82F6"/>
<path d="M228 59.5C231.59 59.5 234.5 62.4101 234.5 66L234.5 83.5C234.5 87.0899 231.59 90 228 90C231.038 90 233.5 87.3137 233.5 84L233.5 66C233.5 62.9624 231.038 60.5 228 60.5L228 59.5ZM204 90L204 60L204 90ZM204 66C204 62.4101 206.91 59.5 210.5 59.5L228 59.5C231.59 59.5 234.5 62.4101 234.5 66L233.5 66C233.5 62.9624 231.038 60.5 228 60.5L210 60.5C206.686 60.5 204 62.9624 204 66ZM234 90L204 90L234 90Z" fill="#60A5FA" mask="url(#path-12-inside-4_371_286)"/>
</g>
<rect x="294.5" y="0.5" width="79" height="79" rx="15.5" transform="rotate(90 294.5 0.5)" stroke="url(#paint1_linear_371_286)" stroke-opacity="0.95"/>
<circle cx="355" cy="40" r="29.5" fill="white" fill-opacity="0.1" stroke="url(#paint2_linear_371_286)"/>
<path d="M352 44.2857L359.785 40L352 35.7143V44.2857ZM369.34 33.1C369.535 33.7714 369.67 34.6714 369.76 35.8143C369.865 36.9571 369.91 37.9429 369.91 38.8L370 40C370 43.1286 369.76 45.4286 369.34 46.9C368.965 48.1857 368.095 49.0143 366.745 49.3714C366.04 49.5571 364.75 49.6857 362.77 49.7714C360.82 49.8714 359.035 49.9143 357.385 49.9143L355 50C348.715 50 344.8 49.7714 343.255 49.3714C341.905 49.0143 341.035 48.1857 340.66 46.9C340.465 46.2286 340.33 45.3286 340.24 44.1857C340.135 43.0429 340.09 42.0571 340.09 41.2L340 40C340 36.8714 340.24 34.5714 340.66 33.1C341.035 31.8143 341.905 30.9857 343.255 30.6286C343.96 30.4429 345.25 30.3143 347.23 30.2286C349.18 30.1286 350.965 30.0857 352.615 30.0857L355 30C361.285 30 365.2 30.2286 366.745 30.6286C368.095 30.9857 368.965 31.8143 369.34 33.1Z" fill="white"/>
<circle cx="430" cy="40" r="24.5" fill="white" fill-opacity="0.1" stroke="url(#paint3_linear_371_286)"/>
<path d="M435.75 31H438.817L432.117 38.6239L440 49H433.829L428.991 42.7082L423.463 49H420.393L427.559 40.8427L420 31.0014H426.329L430.694 36.7513L435.75 31ZM434.671 47.1728H436.371L425.4 32.7322H423.577L434.671 47.1728Z" fill="white"/>
<circle cx="492.5" cy="39.5" r="17" fill="white" fill-opacity="0.1" stroke="url(#paint4_linear_371_286)"/>
<path d="M502 40C502 34.48 497.52 30 492 30C486.48 30 482 34.48 482 40C482 44.84 485.44 48.87 490 49.8V43H488V40H490V37.5C490 35.57 491.57 34 493.5 34H496V37H494C493.45 37 493 37.45 493 38V40H496V43H493V49.95C498.05 49.45 502 45.19 502 40Z" fill="white"/>
<circle cx="155" cy="40" r="29.5" fill="white" fill-opacity="0.1" stroke="url(#paint5_linear_371_286)"/>
<path d="M148.7 25H161.3C166.1 25 170 28.9 170 33.7V46.3C170 48.6074 169.083 50.8203 167.452 52.4518C165.82 54.0834 163.607 55 161.3 55H148.7C143.9 55 140 51.1 140 46.3V33.7C140 31.3926 140.917 29.1797 142.548 27.5482C144.18 25.9166 146.393 25 148.7 25ZM148.4 28C146.968 28 145.594 28.5689 144.582 29.5816C143.569 30.5943 143 31.9678 143 33.4V46.6C143 49.585 145.415 52 148.4 52H161.6C163.032 52 164.406 51.4311 165.418 50.4184C166.431 49.4057 167 48.0322 167 46.6V33.4C167 30.415 164.585 28 161.6 28H148.4ZM162.875 30.25C163.372 30.25 163.849 30.4475 164.201 30.7992C164.552 31.1508 164.75 31.6277 164.75 32.125C164.75 32.6223 164.552 33.0992 164.201 33.4508C163.849 33.8025 163.372 34 162.875 34C162.378 34 161.901 33.8025 161.549 33.4508C161.198 33.0992 161 32.6223 161 32.125C161 31.6277 161.198 31.1508 161.549 30.7992C161.901 30.4475 162.378 30.25 162.875 30.25ZM155 32.5C156.989 32.5 158.897 33.2902 160.303 34.6967C161.71 36.1032 162.5 38.0109 162.5 40C162.5 41.9891 161.71 43.8968 160.303 45.3033C158.897 46.7098 156.989 47.5 155 47.5C153.011 47.5 151.103 46.7098 149.697 45.3033C148.29 43.8968 147.5 41.9891 147.5 40C147.5 38.0109 148.29 36.1032 149.697 34.6967C151.103 33.2902 153.011 32.5 155 32.5ZM155 35.5C153.807 35.5 152.662 35.9741 151.818 36.818C150.974 37.6619 150.5 38.8065 150.5 40C150.5 41.1935 150.974 42.3381 151.818 43.182C152.662 44.0259 153.807 44.5 155 44.5C156.193 44.5 157.338 44.0259 158.182 43.182C159.026 42.3381 159.5 41.1935 159.5 40C159.5 38.8065 159.026 37.6619 158.182 36.818C157.338 35.9741 156.193 35.5 155 35.5Z" fill="white"/>
<circle cx="80" cy="40" r="24.5" fill="white" fill-opacity="0.1" stroke="url(#paint6_linear_371_286)"/>
<path d="M85.6607 31.76C84.7454 30.7194 84.2409 29.3832 84.2411 28H80.1027V44.5333C80.0714 45.4283 79.6922 46.2761 79.0451 46.898C78.3979 47.5199 77.5334 47.8672 76.6339 47.8667C74.7321 47.8667 73.1518 46.32 73.1518 44.4C73.1518 42.1067 75.375 40.3867 77.6652 41.0933V36.88C73.0446 36.2667 69 39.84 69 44.4C69 48.84 72.6964 52 76.6205 52C80.8259 52 84.2411 48.6 84.2411 44.4V36.0133C85.9192 37.2131 87.934 37.8569 90 37.8533V33.7333C90 33.7333 87.4821 33.8533 85.6607 31.76Z" fill="white"/>
<circle cx="17.5" cy="39.5" r="17" fill="white" fill-opacity="0.1" stroke="url(#paint7_linear_371_286)"/>
<path d="M23.2222 31C23.6937 31 24.1459 31.1873 24.4793 31.5207C24.8127 31.8541 25 32.3063 25 32.7778V45.2222C25 45.6937 24.8127 46.1459 24.4793 46.4793C24.1459 46.8127 23.6937 47 23.2222 47H10.7778C10.3063 47 9.8541 46.8127 9.5207 46.4793C9.1873 46.1459 9 45.6937 9 45.2222V32.7778C9 32.3063 9.1873 31.8541 9.5207 31.5207C9.8541 31.1873 10.3063 31 10.7778 31H23.2222ZM22.7778 44.7778V40.0667C22.7778 39.2981 22.4725 38.5611 21.929 38.0176C21.3856 37.4742 20.6485 37.1689 19.88 37.1689C19.1244 37.1689 18.2444 37.6311 17.8178 38.3244V37.3378H15.3378V44.7778H17.8178V40.3956C17.8178 39.7111 18.3689 39.1511 19.0533 39.1511C19.3834 39.1511 19.6999 39.2822 19.9333 39.5156C20.1667 39.749 20.2978 40.0655 20.2978 40.3956V44.7778H22.7778ZM12.4489 35.9422C12.8449 35.9422 13.2248 35.7849 13.5048 35.5048C13.7849 35.2248 13.9422 34.8449 13.9422 34.4489C13.9422 33.6222 13.2756 32.9467 12.4489 32.9467C12.0505 32.9467 11.6684 33.1049 11.3867 33.3867C11.1049 33.6684 10.9467 34.0505 10.9467 34.4489C10.9467 35.2756 11.6222 35.9422 12.4489 35.9422ZM13.6844 44.7778V37.3378H11.2222V44.7778H13.6844Z" fill="white"/>
<defs>
<filter id="filter0_f_371_286" x="200" y="-15" width="110" height="110" filterUnits="userSpaceOnUse" color-interpolation-filters="sRGB">
<feFlood flood-opacity="0" result="BackgroundImageFix"/>
<feBlend mode="normal" in="SourceGraphic" in2="BackgroundImageFix" result="shape"/>
<feGaussianBlur stdDeviation="15" result="effect1_foregroundBlur_371_286"/>
</filter>
<linearGradient id="paint0_linear_371_286" x1="330" y1="15" x2="280.193" y2="65.1918" gradientUnits="userSpaceOnUse">
<stop stop-color="#60A5FA"/>
<stop offset="1" stop-color="#60A5FA" stop-opacity="0"/>
</linearGradient>
<linearGradient id="paint1_linear_371_286" x1="295" y1="-0.202835" x2="375.203" y2="79.7969" gradientUnits="userSpaceOnUse">
<stop stop-color="white"/>
<stop offset="1" stop-color="#60A5FA" stop-opacity="0.5"/>
</linearGradient>
<linearGradient id="paint2_linear_371_286" x1="355" y1="10" x2="355" y2="70" gradientUnits="userSpaceOnUse">
<stop stop-color="white" stop-opacity="0.2"/>
<stop offset="1" stop-opacity="0"/>
</linearGradient>
<linearGradient id="paint3_linear_371_286" x1="430" y1="15" x2="430" y2="65" gradientUnits="userSpaceOnUse">
<stop stop-color="white" stop-opacity="0.2"/>
<stop offset="1" stop-opacity="0"/>
</linearGradient>
<linearGradient id="paint4_linear_371_286" x1="492.5" y1="22" x2="492.5" y2="57" gradientUnits="userSpaceOnUse">
<stop stop-color="white" stop-opacity="0.2"/>
<stop offset="1" stop-opacity="0"/>
</linearGradient>
<linearGradient id="paint5_linear_371_286" x1="155" y1="10" x2="155" y2="70" gradientUnits="userSpaceOnUse">
<stop stop-color="white" stop-opacity="0.2"/>
<stop offset="1" stop-opacity="0"/>
</linearGradient>
<linearGradient id="paint6_linear_371_286" x1="80" y1="15" x2="80" y2="65" gradientUnits="userSpaceOnUse">
<stop stop-color="white" stop-opacity="0.2"/>
<stop offset="1" stop-opacity="0"/>
</linearGradient>
<linearGradient id="paint7_linear_371_286" x1="17.5" y1="22" x2="17.5" y2="57" gradientUnits="userSpaceOnUse">
<stop stop-color="white" stop-opacity="0.2"/>
<stop offset="1" stop-opacity="0"/>
</linearGradient>
<clipPath id="clip0_371_286">
<rect x="295" width="80" height="80" rx="16" transform="rotate(90 295 0)" fill="white"/>
</clipPath>
</defs>
</svg>
